max v2;
#N vpatcher 15 55 679 551;
#P origin 0 7;
#P window setfont Sans Serif 9.;
#P window linecount 1;
#P hidden newex 29 142 45 9109513 loadbang;
#P hidden message 29 166 55 9109513 logfreq \$1;
#P user dial 335 344 27 27 128 1 0 0 159 270 1 1. 170 170 170 221 221 221 120 120 120 225 225 225 0 0 0 0 0 0;
#P user dial 301 344 27 27 128 1 0 0 159 270 1 1. 170 170 170 221 221 221 120 120 120 225 225 225 0 0 0 0 0 0;
#P hidden newex 276 138 103 9109513 scale 0 127 30. 20000.;
#P user umenu 91 166 90 9109543 1 64 182 0;
#X add display;
#X add lowpass;
#X add highpass;
#X add bandpass;
#X add bandstop;
#X add peaknotch;
#X add lowshelf;
#X add highshelf;
#X add resonant;
#X add allpass;
#P user filtergraph~ 91 189 271 132 139 9 10. 20000. 0.0625 16. 1 1 1 0 0 1 1;
#X frgb 193 193 255;
#X brgb 233 233 255;
#X rgb2 0 0 0;
#X rgb3 130 130 130;
#X rgb4 0 0 0;
#X rgb5 118 121 166;
#X rgb6 210 74 54;
#X rgb7 255 22 22;
#X linmarkers 5512.5 11025. 16537.5;
#X logmarkers 10. 100. 1000. 10000.;
#X nfilters 1;
#X setfilter 0 2 0 0 0 30. 1. 6. 0. 22050. 0.0001 16. 0.5 25.;
#X done;
#N vpatcher 574 156 1299 794;
#P inlet 180 266 15 0;
#P window setfont Sans Serif 9.;
#P window linecount 0;
#P newex 166 303 45 9109513 r filterin~;
#P newex 166 372 53 9109513 s filterout~;
#P window linecount 1;
#P message 132 306 31 9109513 clear;
#P newex 166 351 32 9109513 *~ 1;
#P newex 166 329 79 9109513 biquad~;
#P connect 4 0 0 0;
#P connect 2 0 0 0;
#P connect 0 0 1 0;
#P connect 1 0 3 0;
#P connect 5 0 0 1;
#P pop;
#P hidden newobj 91 326 35 9109513 p filter;
#P comment 91 147 36 9109513 FILTER;
#P hidden newex 350 161 83 9109513 scale 0 127 0.5 6.;
#P comment 298 370 33 9109513 Cutoff;
#P comment 341 370 13 9109513 Q;
#P hidden connect 11 0 10 0;
#P hidden connect 10 0 5 0;
#P hidden connect 6 1 5 0;
#P hidden connect 5 0 4 0;
#P hidden fasten 8 0 7 0 306 388 439 388 439 131 281 131;
#P hidden connect 7 0 5 5;
#P hidden fasten 9 0 2 0 340 384 435 384 435 158 355 158;
#P hidden connect 2 0 5 7;
#P pop;

