{
	"patcher" : 	{
		"fileversion" : 1,
		"rect" : [ 162.0, 403.0, 656.0, 362.0 ],
		"bglocked" : 0,
		"defrect" : [ 162.0, 403.0, 656.0, 362.0 ],
		"openrect" : [ 0.0, 0.0, 0.0, 0.0 ],
		"openinpresentation" : 0,
		"default_fontsize" : 12.0,
		"default_fontface" : 0,
		"default_fontname" : "Arial",
		"gridonopen" : 0,
		"gridsize" : [ 4.0, 4.0 ],
		"gridsnaponopen" : 0,
		"toolbarvisible" : 1,
		"boxanimatetime" : 200,
		"imprint" : 0,
		"enablehscroll" : 1,
		"enablevscroll" : 1,
		"devicewidth" : 0.0,
		"boxes" : [ 			{
				"box" : 				{
					"maxclass" : "comment",
					"text" : "decay params",
					"fontsize" : 9.0,
					"numoutlets" : 0,
					"patching_rect" : [ 252.0, 41.0, 70.0, 17.0 ],
					"id" : "obj-1",
					"frgb" : [ 0.0, 0.0, 0.0, 1.0 ],
					"fontname" : "Arial",
					"numinlets" : 1
				}

			}
, 			{
				"box" : 				{
					"maxclass" : "newobj",
					"text" : "in 5",
					"fontsize" : 9.0,
					"numoutlets" : 1,
					"outlettype" : [ "" ],
					"patching_rect" : [ 255.0, 57.0, 25.0, 17.0 ],
					"id" : "obj-2",
					"fontname" : "Arial",
					"numinlets" : 1,
					"saved_object_attributes" : 					{
						"attr_comment" : ""
					}

				}

			}
, 			{
				"box" : 				{
					"maxclass" : "newobj",
					"text" : "out~ 2",
					"fontsize" : 9.0,
					"numoutlets" : 0,
					"patching_rect" : [ 118.0, 196.0, 35.0, 17.0 ],
					"id" : "obj-3",
					"fontname" : "Arial",
					"numinlets" : 1,
					"saved_object_attributes" : 					{
						"attr_comment" : ""
					}

				}

			}
, 			{
				"box" : 				{
					"maxclass" : "newobj",
					"text" : "out 1",
					"fontsize" : 9.0,
					"numoutlets" : 0,
					"patching_rect" : [ 326.0, 136.0, 31.0, 17.0 ],
					"id" : "obj-4",
					"fontname" : "Arial",
					"numinlets" : 1,
					"saved_object_attributes" : 					{
						"attr_comment" : ""
					}

				}

			}
, 			{
				"box" : 				{
					"maxclass" : "newobj",
					"text" : "nothing",
					"fontsize" : 9.0,
					"numoutlets" : 8,
					"outlettype" : [ "", "", "", "", "", "", "", "" ],
					"patching_rect" : [ 91.0, 120.0, 40.0, 17.0 ],
					"id" : "obj-5",
					"fontname" : "Arial",
					"numinlets" : 8
				}

			}
, 			{
				"box" : 				{
					"maxclass" : "newobj",
					"text" : "delay",
					"fontsize" : 9.0,
					"numoutlets" : 1,
					"outlettype" : [ "bang" ],
					"patching_rect" : [ 241.0, 169.0, 32.0, 17.0 ],
					"id" : "obj-6",
					"fontname" : "Arial",
					"numinlets" : 2
				}

			}
, 			{
				"box" : 				{
					"maxclass" : "newobj",
					"text" : "loadbang",
					"linecount" : 2,
					"fontsize" : 9.0,
					"numoutlets" : 1,
					"outlettype" : [ "bang" ],
					"patching_rect" : [ 241.0, 149.0, 45.0, 27.0 ],
					"id" : "obj-7",
					"fontname" : "Arial",
					"numinlets" : 1
				}

			}
, 			{
				"box" : 				{
					"maxclass" : "newobj",
					"text" : "if $i2 then $f1 else out2 bang",
					"linecount" : 2,
					"fontsize" : 9.0,
					"numoutlets" : 2,
					"outlettype" : [ "", "" ],
					"patching_rect" : [ 17.0, 81.0, 75.0, 27.0 ],
					"id" : "obj-8",
					"fontname" : "Arial",
					"numinlets" : 2
				}

			}
, 			{
				"box" : 				{
					"maxclass" : "comment",
					"text" : "instrument",
					"fontsize" : 9.0,
					"numoutlets" : 0,
					"patching_rect" : [ 190.0, 41.0, 55.0, 17.0 ],
					"id" : "obj-9",
					"frgb" : [ 0.0, 0.0, 0.0, 1.0 ],
					"fontname" : "Arial",
					"numinlets" : 1
				}

			}
, 			{
				"box" : 				{
					"maxclass" : "comment",
					"text" : "envelope",
					"fontsize" : 9.0,
					"numoutlets" : 0,
					"patching_rect" : [ 137.0, 41.0, 45.0, 17.0 ],
					"id" : "obj-10",
					"frgb" : [ 0.0, 0.0, 0.0, 1.0 ],
					"fontname" : "Arial",
					"numinlets" : 1
				}

			}
, 			{
				"box" : 				{
					"maxclass" : "comment",
					"text" : "stop",
					"fontsize" : 9.0,
					"numoutlets" : 0,
					"patching_rect" : [ 95.0, 41.0, 27.0, 17.0 ],
					"id" : "obj-11",
					"frgb" : [ 0.0, 0.0, 0.0, 1.0 ],
					"fontname" : "Arial",
					"numinlets" : 1
				}

			}
, 			{
				"box" : 				{
					"maxclass" : "newobj",
					"text" : "in 4",
					"fontsize" : 9.0,
					"numoutlets" : 1,
					"outlettype" : [ "" ],
					"patching_rect" : [ 193.0, 57.0, 25.0, 17.0 ],
					"id" : "obj-12",
					"fontname" : "Arial",
					"numinlets" : 1,
					"saved_object_attributes" : 					{
						"attr_comment" : ""
					}

				}

			}
, 			{
				"box" : 				{
					"maxclass" : "newobj",
					"text" : "out~ 1",
					"fontsize" : 9.0,
					"numoutlets" : 0,
					"patching_rect" : [ 49.0, 197.0, 35.0, 17.0 ],
					"id" : "obj-13",
					"fontname" : "Arial",
					"numinlets" : 1,
					"saved_object_attributes" : 					{
						"attr_comment" : ""
					}

				}

			}
, 			{
				"box" : 				{
					"maxclass" : "newobj",
					"text" : "t f b",
					"fontsize" : 9.0,
					"numoutlets" : 2,
					"outlettype" : [ "float", "bang" ],
					"patching_rect" : [ 49.0, 147.0, 27.0, 17.0 ],
					"id" : "obj-14",
					"fontname" : "Arial",
					"numinlets" : 1
				}

			}
, 			{
				"box" : 				{
					"maxclass" : "message",
					"text" : "0, mute 1",
					"fontsize" : 9.0,
					"numoutlets" : 1,
					"outlettype" : [ "" ],
					"patching_rect" : [ 178.0, 246.0, 52.0, 15.0 ],
					"id" : "obj-15",
					"fontname" : "Arial",
					"numinlets" : 2
				}

			}
, 			{
				"box" : 				{
					"maxclass" : "message",
					"text" : "mute 0, 1",
					"fontsize" : 9.0,
					"numoutlets" : 1,
					"outlettype" : [ "" ],
					"patching_rect" : [ 124.0, 246.0, 52.0, 15.0 ],
					"id" : "obj-16",
					"fontname" : "Arial",
					"numinlets" : 2
				}

			}
, 			{
				"box" : 				{
					"maxclass" : "newobj",
					"text" : "thispoly~",
					"fontsize" : 9.0,
					"numoutlets" : 2,
					"outlettype" : [ "int", "int" ],
					"patching_rect" : [ 143.0, 273.0, 50.0, 17.0 ],
					"id" : "obj-17",
					"fontname" : "Arial",
					"numinlets" : 1
				}

			}
, 			{
				"box" : 				{
					"maxclass" : "newobj",
					"text" : "in 3",
					"fontsize" : 9.0,
					"numoutlets" : 1,
					"outlettype" : [ "" ],
					"patching_rect" : [ 145.0, 57.0, 25.0, 17.0 ],
					"id" : "obj-18",
					"fontname" : "Arial",
					"numinlets" : 1,
					"saved_object_attributes" : 					{
						"attr_comment" : ""
					}

				}

			}
, 			{
				"box" : 				{
					"maxclass" : "newobj",
					"text" : "in 2",
					"fontsize" : 9.0,
					"numoutlets" : 1,
					"outlettype" : [ "" ],
					"patching_rect" : [ 97.0, 57.0, 25.0, 17.0 ],
					"id" : "obj-19",
					"fontname" : "Arial",
					"numinlets" : 1,
					"saved_object_attributes" : 					{
						"attr_comment" : ""
					}

				}

			}
, 			{
				"box" : 				{
					"maxclass" : "newobj",
					"text" : "in 1",
					"fontsize" : 9.0,
					"numoutlets" : 1,
					"outlettype" : [ "" ],
					"patching_rect" : [ 17.0, 57.0, 25.0, 17.0 ],
					"id" : "obj-20",
					"fontname" : "Arial",
					"numinlets" : 1,
					"saved_object_attributes" : 					{
						"attr_comment" : ""
					}

				}

			}
, 			{
				"box" : 				{
					"maxclass" : "comment",
					"text" : "sampler-voice-noloop.vox version 1., by Matt Wright",
					"linecount" : 3,
					"fontsize" : 9.0,
					"numoutlets" : 0,
					"patching_rect" : [ 326.0, 60.0, 110.0, 38.0 ],
					"id" : "obj-21",
					"frgb" : [ 0.0, 0.0, 0.0, 1.0 ],
					"fontname" : "Arial",
					"numinlets" : 1
				}

			}
, 			{
				"box" : 				{
					"maxclass" : "newobj",
					"text" : "p copyright",
					"fontsize" : 9.0,
					"numoutlets" : 0,
					"patching_rect" : [ 330.0, 98.0, 59.0, 17.0 ],
					"id" : "obj-22",
					"fontname" : "Arial",
					"numinlets" : 0,
					"patcher" : 					{
						"fileversion" : 1,
						"rect" : [ 50.0, 40.0, 365.0, 372.0 ],
						"bglocked" : 0,
						"defrect" : [ 50.0, 40.0, 365.0, 372.0 ],
						"openrect" : [ 0.0, 0.0, 0.0, 0.0 ],
						"openinpresentation" : 0,
						"default_fontsize" : 12.0,
						"default_fontface" : 0,
						"default_fontname" : "Arial",
						"gridonopen" : 0,
						"gridsize" : [ 4.0, 4.0 ],
						"gridsnaponopen" : 0,
						"toolbarvisible" : 1,
						"boxanimatetime" : 200,
						"imprint" : 0,
						"enablehscroll" : 1,
						"enablevscroll" : 1,
						"devicewidth" : 0.0,
						"boxes" : [ 							{
								"box" : 								{
									"maxclass" : "comment",
									"text" : "IN NO EVENT SHALL REGENTS BE LIABLE TO ANY PARTY FOR DIRECT, INDIRECT, SPECIAL, INCIDENTAL, OR CONSEQUENTIAL DAMAGES, INCLUDING LOST PROFITS, ARISING OUT OF THE USE OF THIS SOFTWARE AND ITS DOCUMENTATION, EVEN IF REGENTS HAS BEEN ADVISED OF THE POSSIBILITY OF SUCH DAMAGE.",
									"linecount" : 5,
									"fontsize" : 9.0,
									"numoutlets" : 0,
									"patching_rect" : [ 39.0, 180.0, 307.0, 58.0 ],
									"id" : "obj-1",
									"frgb" : [ 0.0, 0.0, 0.0, 1.0 ],
									"fontname" : "Arial",
									"numinlets" : 1
								}

							}
, 							{
								"box" : 								{
									"maxclass" : "comment",
									"text" : "REGENTS SPECIFICALLY DISCLAIMS ANY WARRANTIES, INCLUDING, BUT NOT LIMITED TO, THE IMPLIED WARRANTIES OF MERCHANTABILITY AND FITNESS FOR A PARTICULAR PURPOSE. THE SOFTWARE AND ACCOMPANYING DOCUMENTATION, IF ANY, PROVIDED HEREUNDER IS PROVIDED \"AS IS.\" REGENTS HAS NO OBLIGATION TO PROVIDE MAINTENANCE, SUPPORT, UPDATES, ENHANCEMENTS, OR MODIFICATIONS.",
									"linecount" : 7,
									"fontsize" : 9.0,
									"numoutlets" : 0,
									"patching_rect" : [ 39.0, 244.0, 307.0, 79.0 ],
									"id" : "obj-2",
									"frgb" : [ 0.0, 0.0, 0.0, 1.0 ],
									"fontname" : "Arial",
									"numinlets" : 1
								}

							}
, 							{
								"box" : 								{
									"maxclass" : "comment",
									"text" : "Written by Matt Wright, The Center for New Music and Audio Technologies, University of California, Berkeley.",
									"linecount" : 2,
									"fontsize" : 9.0,
									"numoutlets" : 0,
									"patching_rect" : [ 6.0, 151.0, 340.0, 27.0 ],
									"id" : "obj-3",
									"frgb" : [ 0.0, 0.0, 0.0, 1.0 ],
									"fontname" : "Arial",
									"numinlets" : 1
								}

							}
, 							{
								"box" : 								{
									"maxclass" : "comment",
									"text" : "Copyright (c) 1998. The Regents of the University of California (Regents). All Rights Reserved.",
									"linecount" : 2,
									"fontsize" : 9.0,
									"numoutlets" : 0,
									"patching_rect" : [ 5.0, 26.0, 341.0, 27.0 ],
									"id" : "obj-4",
									"frgb" : [ 0.0, 0.0, 0.0, 1.0 ],
									"fontname" : "Arial",
									"numinlets" : 1
								}

							}
, 							{
								"box" : 								{
									"maxclass" : "comment",
									"text" : "Permission to use, copy, modify, and distribute this software and its documentation for educational, research, and not-for-profit purposes, without fee and without a signed licensing agreement, is hereby granted, provided that the above copyright notice, this paragraph and the following two paragraphs appear in all copies, modifications, and distributions. Contact The Office of Technology Licensing, UC Berkeley, 2150 Shattuck Avenue, Suite 510, Berkeley, CA 94720-1620, (510) 643-7201, for commercial licensing opportunities.",
									"linecount" : 7,
									"fontsize" : 9.0,
									"numoutlets" : 0,
									"patching_rect" : [ 6.0, 53.0, 340.0, 79.0 ],
									"id" : "obj-5",
									"frgb" : [ 0.0, 0.0, 0.0, 1.0 ],
									"fontname" : "Arial",
									"numinlets" : 1
								}

							}
 ],
						"lines" : [  ]
					}
,
					"saved_object_attributes" : 					{
						"fontface" : 0,
						"fontsize" : 12.0,
						"default_fontface" : 0,
						"default_fontname" : "Arial",
						"fontname" : "Arial",
						"globalpatchername" : "",
						"default_fontsize" : 12.0
					}

				}

			}
, 			{
				"box" : 				{
					"maxclass" : "newobj",
					"text" : "mono-s-multisamp-player-nl-d",
					"fontsize" : 9.0,
					"numoutlets" : 3,
					"outlettype" : [ "signal", "signal", "bang" ],
					"patching_rect" : [ 49.0, 172.0, 149.0, 17.0 ],
					"id" : "obj-23",
					"fontname" : "Arial",
					"numinlets" : 5
				}

			}
, 			{
				"box" : 				{
					"maxclass" : "comment",
					"text" : "pitch + \"velocity\"",
					"linecount" : 2,
					"fontsize" : 9.0,
					"numoutlets" : 0,
					"patching_rect" : [ 7.0, 29.0, 52.0, 27.0 ],
					"id" : "obj-24",
					"frgb" : [ 0.0, 0.0, 0.0, 1.0 ],
					"fontname" : "Arial",
					"numinlets" : 1
				}

			}
, 			{
				"box" : 				{
					"maxclass" : "panel",
					"bgcolor" : [ 1.0, 1.0, 1.0, 1.0 ],
					"numoutlets" : 0,
					"bordercolor" : [ 0.0, 0.0, 1.0, 1.0 ],
					"patching_rect" : [ 313.0, 54.0, 135.0, 73.0 ],
					"id" : "obj-25",
					"rounded" : 40,
					"border" : 4,
					"numinlets" : 1
				}

			}
 ],
		"lines" : [ 			{
				"patchline" : 				{
					"source" : [ "obj-7", 0 ],
					"destination" : [ "obj-6", 0 ],
					"hidden" : 0,
					"midpoints" : [  ]
				}

			}
, 			{
				"patchline" : 				{
					"source" : [ "obj-2", 0 ],
					"destination" : [ "obj-23", 4 ],
					"hidden" : 0,
					"midpoints" : [  ]
				}

			}
, 			{
				"patchline" : 				{
					"source" : [ "obj-6", 0 ],
					"destination" : [ "obj-15", 0 ],
					"hidden" : 0,
					"midpoints" : [  ]
				}

			}
, 			{
				"patchline" : 				{
					"source" : [ "obj-23", 2 ],
					"destination" : [ "obj-15", 0 ],
					"hidden" : 0,
					"midpoints" : [  ]
				}

			}
, 			{
				"patchline" : 				{
					"source" : [ "obj-12", 0 ],
					"destination" : [ "obj-23", 3 ],
					"hidden" : 0,
					"midpoints" : [  ]
				}

			}
, 			{
				"patchline" : 				{
					"source" : [ "obj-15", 0 ],
					"destination" : [ "obj-17", 0 ],
					"hidden" : 0,
					"midpoints" : [  ]
				}

			}
, 			{
				"patchline" : 				{
					"source" : [ "obj-16", 0 ],
					"destination" : [ "obj-17", 0 ],
					"hidden" : 0,
					"midpoints" : [  ]
				}

			}
, 			{
				"patchline" : 				{
					"source" : [ "obj-14", 1 ],
					"destination" : [ "obj-16", 0 ],
					"hidden" : 0,
					"midpoints" : [  ]
				}

			}
, 			{
				"patchline" : 				{
					"source" : [ "obj-23", 1 ],
					"destination" : [ "obj-3", 0 ],
					"hidden" : 0,
					"midpoints" : [  ]
				}

			}
, 			{
				"patchline" : 				{
					"source" : [ "obj-18", 0 ],
					"destination" : [ "obj-23", 2 ],
					"hidden" : 0,
					"midpoints" : [  ]
				}

			}
, 			{
				"patchline" : 				{
					"source" : [ "obj-8", 1 ],
					"destination" : [ "obj-5", 0 ],
					"hidden" : 0,
					"midpoints" : [  ]
				}

			}
, 			{
				"patchline" : 				{
					"source" : [ "obj-19", 0 ],
					"destination" : [ "obj-5", 0 ],
					"hidden" : 0,
					"midpoints" : [  ]
				}

			}
, 			{
				"patchline" : 				{
					"source" : [ "obj-5", 0 ],
					"destination" : [ "obj-23", 1 ],
					"hidden" : 0,
					"midpoints" : [  ]
				}

			}
, 			{
				"patchline" : 				{
					"source" : [ "obj-23", 0 ],
					"destination" : [ "obj-13", 0 ],
					"hidden" : 0,
					"midpoints" : [  ]
				}

			}
, 			{
				"patchline" : 				{
					"source" : [ "obj-14", 0 ],
					"destination" : [ "obj-23", 0 ],
					"hidden" : 0,
					"midpoints" : [  ]
				}

			}
, 			{
				"patchline" : 				{
					"source" : [ "obj-8", 0 ],
					"destination" : [ "obj-14", 0 ],
					"hidden" : 0,
					"midpoints" : [  ]
				}

			}
, 			{
				"patchline" : 				{
					"source" : [ "obj-20", 0 ],
					"destination" : [ "obj-8", 0 ],
					"hidden" : 0,
					"midpoints" : [  ]
				}

			}
 ]
	}

}
