max v2;
#N vpatcher 15 55 615 455;
#P window setfont Sans Serif 9.;
#P window linecount 1;
#P hidden message 71 55 23 9109513 120;
#P hidden newex 71 31 45 9109513 loadbang;
#P window linecount 2;
#P comment 45 96 23 9109513 On/ Off;
#P user hslider 71 100 18 128 128 1 0 0;
#P flonum 105 81 35 9 0 0 0 139 0 0 0 221 221 221 222 222 222 0 0 0;
#P toggle 28 100 18 0;
#P window linecount 1;
#N vpatcher 338 224 630 555;
#P window setfont Sans Serif 9.;
#P window linecount 1;
#P newex 95 220 47 9109513 s counter;
#P outlet 114 147 15 0;
#P inlet 57 46 15 0;
#P inlet 76 46 15 0;
#P button 76 198 15 0;
#P newex 76 169 82 9109513 tempo 140 1 32;
#P flonum 76 116 35 9 0 0 0 139 0 0 0 221 221 221 222 222 222 0 0 0;
#P flonum 76 68 35 9 0 0 0 139 0 0 0 221 221 221 222 222 222 0 0 0;
#P newex 76 90 93 9109513 scale 0 127 40. 200.;
#P number 95 198 65 9 0 0 0 139 0 0 0 221 221 221 222 222 222 0 0 0;
#P comment 13 46 43 9109513 On input;
#P comment 93 46 100 9109513 Tempo slider input;
#P comment 130 147 56 9109513 bpm output;
#P window linecount 2;
#P comment 145 222 100 9109513 32 Step Counter Output;
#P connect 10 0 6 0;
#P connect 6 0 5 0;
#P connect 5 0 7 0;
#P connect 4 0 13 0;
#P fasten 7 0 12 0 81 139 119 139;
#P pop 1;
#P hidden newobj 28 130 70 9109513 p tempocontrol;
#P comment 71 81 34 9109513 Tempo;
#P hidden connect 2 0 1 0;
#P hidden connect 6 0 7 0;
#P hidden connect 7 0 4 0;
#P hidden fasten 4 0 1 1 76 124 93 124;
#P hidden fasten 1 0 3 0 33 152 83 152 83 77 110 77;
#P pop;

