{
	"patcher" : 	{
		"fileversion" : 1,
		"rect" : [ 267.0, 60.0, 981.0, 768.0 ],
		"bglocked" : 0,
		"defrect" : [ 267.0, 60.0, 981.0, 768.0 ],
		"openrect" : [ 0.0, 0.0, 0.0, 0.0 ],
		"openinpresentation" : 0,
		"default_fontsize" : 10.0,
		"default_fontface" : 0,
		"default_fontname" : "Arial",
		"gridonopen" : 0,
		"gridsize" : [ 4.0, 4.0 ],
		"gridsnaponopen" : 0,
		"toolbarvisible" : 1,
		"boxanimatetime" : 200,
		"imprint" : 0,
		"enablehscroll" : 1,
		"enablevscroll" : 1,
		"devicewidth" : 0.0,
		"boxes" : [ 			{
				"box" : 				{
					"maxclass" : "newobj",
					"text" : "pv templist",
					"patching_rect" : [ 12.0, 468.0, 58.0, 18.0 ],
					"id" : "obj-10",
					"fontname" : "Arial",
					"numoutlets" : 1,
					"outlettype" : [ "" ],
					"fontsize" : 10.0,
					"numinlets" : 1
				}

			}
, 			{
				"box" : 				{
					"maxclass" : "newobj",
					"text" : "pv baselist",
					"patching_rect" : [ 512.0, 236.0, 58.0, 18.0 ],
					"id" : "obj-21",
					"fontname" : "Arial",
					"numoutlets" : 1,
					"outlettype" : [ "" ],
					"fontsize" : 10.0,
					"numinlets" : 1
				}

			}
, 			{
				"box" : 				{
					"maxclass" : "newobj",
					"text" : "t b f",
					"patching_rect" : [ 512.0, 212.0, 79.5, 18.0 ],
					"id" : "obj-22",
					"fontname" : "Arial",
					"numoutlets" : 2,
					"outlettype" : [ "bang", "float" ],
					"fontsize" : 10.0,
					"numinlets" : 1
				}

			}
, 			{
				"box" : 				{
					"maxclass" : "newobj",
					"text" : "vexpr $f1+$f2 @scalarmode 1",
					"linecount" : 2,
					"patching_rect" : [ 512.0, 260.0, 81.0, 29.0 ],
					"id" : "obj-23",
					"fontname" : "Arial",
					"numoutlets" : 1,
					"outlettype" : [ "" ],
					"fontsize" : 10.0,
					"numinlets" : 2
				}

			}
, 			{
				"box" : 				{
					"maxclass" : "newobj",
					"text" : "t l b",
					"patching_rect" : [ 412.0, 196.0, 32.5, 18.0 ],
					"id" : "obj-20",
					"fontname" : "Arial",
					"numoutlets" : 2,
					"outlettype" : [ "", "bang" ],
					"fontsize" : 10.0,
					"numinlets" : 1
				}

			}
, 			{
				"box" : 				{
					"maxclass" : "newobj",
					"text" : "route list rebuild_base bang",
					"patching_rect" : [ 724.0, 264.0, 133.0, 18.0 ],
					"id" : "obj-19",
					"fontname" : "Arial",
					"numoutlets" : 4,
					"outlettype" : [ "", "", "", "" ],
					"fontsize" : 10.0,
					"numinlets" : 1
				}

			}
, 			{
				"box" : 				{
					"maxclass" : "newobj",
					"text" : "t l b",
					"patching_rect" : [ 312.0, 196.0, 32.5, 18.0 ],
					"id" : "obj-18",
					"fontname" : "Arial",
					"numoutlets" : 2,
					"outlettype" : [ "", "bang" ],
					"fontsize" : 10.0,
					"numinlets" : 1
				}

			}
, 			{
				"box" : 				{
					"maxclass" : "newobj",
					"text" : "t l l",
					"patching_rect" : [ 212.0, 384.0, 32.5, 18.0 ],
					"id" : "obj-12",
					"fontname" : "Arial",
					"numoutlets" : 2,
					"outlettype" : [ "", "" ],
					"fontsize" : 10.0,
					"numinlets" : 1
				}

			}
, 			{
				"box" : 				{
					"maxclass" : "newobj",
					"text" : "pv baselist",
					"patching_rect" : [ 420.0, 516.0, 58.0, 18.0 ],
					"id" : "obj-9",
					"fontname" : "Arial",
					"numoutlets" : 1,
					"outlettype" : [ "" ],
					"fontsize" : 10.0,
					"numinlets" : 1
				}

			}
, 			{
				"box" : 				{
					"maxclass" : "newobj",
					"text" : "p multitems",
					"patching_rect" : [ 312.0, 256.0, 118.0, 18.0 ],
					"id" : "obj-7",
					"fontname" : "Arial",
					"numoutlets" : 1,
					"outlettype" : [ "" ],
					"fontsize" : 10.0,
					"numinlets" : 2,
					"patcher" : 					{
						"fileversion" : 1,
						"rect" : [ 251.0, 340.0, 322.0, 498.0 ],
						"bglocked" : 0,
						"defrect" : [ 251.0, 340.0, 322.0, 498.0 ],
						"openrect" : [ 0.0, 0.0, 0.0, 0.0 ],
						"openinpresentation" : 0,
						"default_fontsize" : 10.0,
						"default_fontface" : 0,
						"default_fontname" : "Arial",
						"gridonopen" : 0,
						"gridsize" : [ 4.0, 4.0 ],
						"gridsnaponopen" : 0,
						"toolbarvisible" : 1,
						"boxanimatetime" : 200,
						"imprint" : 0,
						"enablehscroll" : 1,
						"enablevscroll" : 1,
						"devicewidth" : 0.0,
						"boxes" : [ 							{
								"box" : 								{
									"maxclass" : "newobj",
									"text" : "listfunnel 1",
									"patching_rect" : [ 156.0, 92.0, 58.0, 18.0 ],
									"id" : "obj-9",
									"fontname" : "Arial",
									"numoutlets" : 1,
									"outlettype" : [ "list" ],
									"fontsize" : 10.0,
									"numinlets" : 1
								}

							}
, 							{
								"box" : 								{
									"maxclass" : "newobj",
									"text" : "t b l",
									"patching_rect" : [ 116.0, 60.0, 34.5, 18.0 ],
									"id" : "obj-5",
									"fontname" : "Arial",
									"numoutlets" : 2,
									"outlettype" : [ "bang", "" ],
									"fontsize" : 10.0,
									"numinlets" : 1
								}

							}
, 							{
								"box" : 								{
									"maxclass" : "inlet",
									"patching_rect" : [ 120.0, 12.0, 25.0, 25.0 ],
									"id" : "obj-2",
									"numoutlets" : 1,
									"outlettype" : [ "" ],
									"numinlets" : 0,
									"comment" : ""
								}

							}
, 							{
								"box" : 								{
									"maxclass" : "newobj",
									"text" : "pv templist",
									"patching_rect" : [ 32.0, 416.0, 58.0, 18.0 ],
									"id" : "obj-10",
									"fontname" : "Arial",
									"numoutlets" : 1,
									"outlettype" : [ "" ],
									"fontsize" : 10.0,
									"numinlets" : 1
								}

							}
, 							{
								"box" : 								{
									"maxclass" : "newobj",
									"text" : "pv templist",
									"patching_rect" : [ 48.0, 322.000031, 58.0, 18.0 ],
									"id" : "obj-1",
									"fontname" : "Arial",
									"numoutlets" : 1,
									"outlettype" : [ "" ],
									"fontsize" : 10.0,
									"numinlets" : 1
								}

							}
, 							{
								"box" : 								{
									"maxclass" : "newobj",
									"text" : "t b l",
									"patching_rect" : [ 32.0, 64.0, 34.5, 18.0 ],
									"id" : "obj-8",
									"fontname" : "Arial",
									"numoutlets" : 2,
									"outlettype" : [ "bang", "" ],
									"fontsize" : 10.0,
									"numinlets" : 1
								}

							}
, 							{
								"box" : 								{
									"maxclass" : "newobj",
									"text" : "pack 0. 0",
									"patching_rect" : [ 48.0, 256.0, 143.0, 18.0 ],
									"id" : "obj-7",
									"fontname" : "Arial",
									"numoutlets" : 1,
									"outlettype" : [ "" ],
									"fontsize" : 10.0,
									"numinlets" : 2
								}

							}
, 							{
								"box" : 								{
									"maxclass" : "newobj",
									"text" : "t b l",
									"patching_rect" : [ 48.0, 300.0, 32.0, 20.0 ],
									"id" : "obj-6",
									"fontname" : "Arial",
									"numoutlets" : 2,
									"outlettype" : [ "bang", "" ],
									"fontsize" : 11.595187,
									"numinlets" : 1
								}

							}
, 							{
								"box" : 								{
									"maxclass" : "newobj",
									"text" : "zl rev",
									"patching_rect" : [ 48.0, 278.0, 34.0, 18.0 ],
									"id" : "obj-4",
									"fontname" : "Arial",
									"numoutlets" : 2,
									"outlettype" : [ "", "" ],
									"fontsize" : 10.0,
									"numinlets" : 2
								}

							}
, 							{
								"box" : 								{
									"maxclass" : "newobj",
									"text" : "zl nth",
									"patching_rect" : [ 48.0, 344.000031, 34.0, 18.0 ],
									"id" : "obj-3",
									"fontname" : "Arial",
									"numoutlets" : 2,
									"outlettype" : [ "", "" ],
									"fontsize" : 10.0,
									"numinlets" : 2
								}

							}
, 							{
								"box" : 								{
									"maxclass" : "newobj",
									"text" : "t b i i",
									"patching_rect" : [ 86.0, 168.000031, 105.0, 18.0 ],
									"id" : "obj-21",
									"fontname" : "Arial",
									"numoutlets" : 3,
									"outlettype" : [ "bang", "int", "int" ],
									"fontsize" : 10.0,
									"numinlets" : 1
								}

							}
, 							{
								"box" : 								{
									"maxclass" : "newobj",
									"text" : "pv baselist",
									"patching_rect" : [ 86.0, 190.000015, 58.0, 18.0 ],
									"id" : "obj-20",
									"fontname" : "Arial",
									"numoutlets" : 1,
									"outlettype" : [ "" ],
									"fontsize" : 10.0,
									"numinlets" : 1
								}

							}
, 							{
								"box" : 								{
									"maxclass" : "newobj",
									"text" : "zl nth",
									"patching_rect" : [ 86.0, 212.000015, 62.0, 18.0 ],
									"id" : "obj-19",
									"fontname" : "Arial",
									"numoutlets" : 2,
									"outlettype" : [ "", "" ],
									"fontsize" : 10.0,
									"numinlets" : 2
								}

							}
, 							{
								"box" : 								{
									"maxclass" : "newobj",
									"text" : "* 1.",
									"patching_rect" : [ 48.0, 236.0, 56.0, 18.0 ],
									"id" : "obj-61",
									"fontname" : "Arial",
									"numoutlets" : 1,
									"outlettype" : [ "float" ],
									"fontsize" : 10.0,
									"numinlets" : 2
								}

							}
, 							{
								"box" : 								{
									"maxclass" : "newobj",
									"text" : "zl rev",
									"patching_rect" : [ 48.0, 124.000023, 34.0, 18.0 ],
									"id" : "obj-60",
									"fontname" : "Arial",
									"numoutlets" : 2,
									"outlettype" : [ "", "" ],
									"fontsize" : 10.0,
									"numinlets" : 2
								}

							}
, 							{
								"box" : 								{
									"maxclass" : "newobj",
									"text" : "unpack f i",
									"patching_rect" : [ 48.0, 146.000015, 57.0, 18.0 ],
									"id" : "obj-59",
									"fontname" : "Arial",
									"numoutlets" : 2,
									"outlettype" : [ "float", "int" ],
									"fontsize" : 10.0,
									"numinlets" : 1
								}

							}
, 							{
								"box" : 								{
									"maxclass" : "newobj",
									"text" : "zl iter 2",
									"patching_rect" : [ 48.0, 101.636383, 43.0, 18.0 ],
									"id" : "obj-31",
									"fontname" : "Arial",
									"numoutlets" : 2,
									"outlettype" : [ "", "" ],
									"fontsize" : 10.0,
									"numinlets" : 2
								}

							}
, 							{
								"box" : 								{
									"maxclass" : "inlet",
									"patching_rect" : [ 32.0, 12.0, 25.0, 25.0 ],
									"id" : "obj-26",
									"numoutlets" : 1,
									"outlettype" : [ "" ],
									"numinlets" : 0,
									"comment" : ""
								}

							}
, 							{
								"box" : 								{
									"maxclass" : "outlet",
									"patching_rect" : [ 32.0, 444.0, 25.0, 25.0 ],
									"id" : "obj-27",
									"numoutlets" : 0,
									"numinlets" : 1,
									"comment" : ""
								}

							}
 ],
						"lines" : [ 							{
								"patchline" : 								{
									"source" : [ "obj-9", 0 ],
									"destination" : [ "obj-60", 0 ],
									"hidden" : 0,
									"midpoints" : [  ]
								}

							}
, 							{
								"patchline" : 								{
									"source" : [ "obj-21", 0 ],
									"destination" : [ "obj-20", 0 ],
									"hidden" : 0,
									"midpoints" : [  ]
								}

							}
, 							{
								"patchline" : 								{
									"source" : [ "obj-20", 0 ],
									"destination" : [ "obj-19", 0 ],
									"hidden" : 0,
									"midpoints" : [  ]
								}

							}
, 							{
								"patchline" : 								{
									"source" : [ "obj-8", 1 ],
									"destination" : [ "obj-31", 0 ],
									"hidden" : 0,
									"midpoints" : [  ]
								}

							}
, 							{
								"patchline" : 								{
									"source" : [ "obj-6", 1 ],
									"destination" : [ "obj-3", 1 ],
									"hidden" : 0,
									"midpoints" : [  ]
								}

							}
, 							{
								"patchline" : 								{
									"source" : [ "obj-31", 0 ],
									"destination" : [ "obj-60", 0 ],
									"hidden" : 0,
									"midpoints" : [  ]
								}

							}
, 							{
								"patchline" : 								{
									"source" : [ "obj-60", 0 ],
									"destination" : [ "obj-59", 0 ],
									"hidden" : 0,
									"midpoints" : [  ]
								}

							}
, 							{
								"patchline" : 								{
									"source" : [ "obj-59", 1 ],
									"destination" : [ "obj-21", 0 ],
									"hidden" : 0,
									"midpoints" : [  ]
								}

							}
, 							{
								"patchline" : 								{
									"source" : [ "obj-21", 1 ],
									"destination" : [ "obj-19", 1 ],
									"hidden" : 0,
									"midpoints" : [  ]
								}

							}
, 							{
								"patchline" : 								{
									"source" : [ "obj-4", 0 ],
									"destination" : [ "obj-6", 0 ],
									"hidden" : 0,
									"midpoints" : [  ]
								}

							}
, 							{
								"patchline" : 								{
									"source" : [ "obj-21", 2 ],
									"destination" : [ "obj-7", 1 ],
									"hidden" : 0,
									"midpoints" : [  ]
								}

							}
, 							{
								"patchline" : 								{
									"source" : [ "obj-7", 0 ],
									"destination" : [ "obj-4", 0 ],
									"hidden" : 0,
									"midpoints" : [  ]
								}

							}
, 							{
								"patchline" : 								{
									"source" : [ "obj-26", 0 ],
									"destination" : [ "obj-8", 0 ],
									"hidden" : 0,
									"midpoints" : [  ]
								}

							}
, 							{
								"patchline" : 								{
									"source" : [ "obj-6", 0 ],
									"destination" : [ "obj-1", 0 ],
									"hidden" : 0,
									"midpoints" : [  ]
								}

							}
, 							{
								"patchline" : 								{
									"source" : [ "obj-1", 0 ],
									"destination" : [ "obj-3", 0 ],
									"hidden" : 0,
									"midpoints" : [  ]
								}

							}
, 							{
								"patchline" : 								{
									"source" : [ "obj-3", 1 ],
									"destination" : [ "obj-10", 0 ],
									"hidden" : 0,
									"midpoints" : [  ]
								}

							}
, 							{
								"patchline" : 								{
									"source" : [ "obj-8", 0 ],
									"destination" : [ "obj-10", 0 ],
									"hidden" : 0,
									"midpoints" : [  ]
								}

							}
, 							{
								"patchline" : 								{
									"source" : [ "obj-10", 0 ],
									"destination" : [ "obj-27", 0 ],
									"hidden" : 0,
									"midpoints" : [  ]
								}

							}
, 							{
								"patchline" : 								{
									"source" : [ "obj-2", 0 ],
									"destination" : [ "obj-5", 0 ],
									"hidden" : 0,
									"midpoints" : [  ]
								}

							}
, 							{
								"patchline" : 								{
									"source" : [ "obj-5", 1 ],
									"destination" : [ "obj-9", 0 ],
									"hidden" : 0,
									"midpoints" : [  ]
								}

							}
, 							{
								"patchline" : 								{
									"source" : [ "obj-5", 0 ],
									"destination" : [ "obj-10", 0 ],
									"hidden" : 0,
									"midpoints" : [  ]
								}

							}
, 							{
								"patchline" : 								{
									"source" : [ "obj-61", 0 ],
									"destination" : [ "obj-7", 0 ],
									"hidden" : 0,
									"midpoints" : [  ]
								}

							}
, 							{
								"patchline" : 								{
									"source" : [ "obj-59", 0 ],
									"destination" : [ "obj-61", 0 ],
									"hidden" : 0,
									"midpoints" : [  ]
								}

							}
, 							{
								"patchline" : 								{
									"source" : [ "obj-19", 0 ],
									"destination" : [ "obj-61", 1 ],
									"hidden" : 0,
									"midpoints" : [  ]
								}

							}
 ]
					}
,
					"saved_object_attributes" : 					{
						"fontname" : "Arial",
						"default_fontsize" : 10.0,
						"globalpatchername" : "",
						"fontface" : 0,
						"fontsize" : 10.0,
						"default_fontface" : 0,
						"default_fontname" : "Arial"
					}

				}

			}
, 			{
				"box" : 				{
					"maxclass" : "newobj",
					"text" : "t l b",
					"patching_rect" : [ 112.0, 192.0, 32.5, 18.0 ],
					"id" : "obj-8",
					"fontname" : "Arial",
					"numoutlets" : 2,
					"outlettype" : [ "", "bang" ],
					"fontsize" : 10.0,
					"numinlets" : 1
				}

			}
, 			{
				"box" : 				{
					"maxclass" : "newobj",
					"text" : "pv templist",
					"patching_rect" : [ 420.0, 492.0, 58.0, 18.0 ],
					"id" : "obj-5",
					"fontname" : "Arial",
					"numoutlets" : 1,
					"outlettype" : [ "" ],
					"fontsize" : 10.0,
					"numinlets" : 1
				}

			}
, 			{
				"box" : 				{
					"maxclass" : "newobj",
					"text" : "p copyfromfunction",
					"patching_rect" : [ 616.0, 256.0, 95.0, 18.0 ],
					"id" : "obj-13",
					"fontname" : "Arial",
					"numoutlets" : 1,
					"outlettype" : [ "" ],
					"fontsize" : 10.0,
					"numinlets" : 1,
					"patcher" : 					{
						"fileversion" : 1,
						"rect" : [ 0.0, 44.0, 780.0, 752.0 ],
						"bglocked" : 0,
						"defrect" : [ 0.0, 44.0, 780.0, 752.0 ],
						"openrect" : [ 0.0, 0.0, 0.0, 0.0 ],
						"openinpresentation" : 0,
						"default_fontsize" : 10.0,
						"default_fontface" : 0,
						"default_fontname" : "Arial",
						"gridonopen" : 0,
						"gridsize" : [ 4.0, 4.0 ],
						"gridsnaponopen" : 0,
						"toolbarvisible" : 1,
						"boxanimatetime" : 200,
						"imprint" : 0,
						"enablehscroll" : 1,
						"enablevscroll" : 1,
						"devicewidth" : 0.0,
						"boxes" : [ 							{
								"box" : 								{
									"maxclass" : "outlet",
									"patching_rect" : [ 50.0, 550.0, 25.0, 25.0 ],
									"id" : "obj-18",
									"numoutlets" : 0,
									"numinlets" : 1,
									"comment" : ""
								}

							}
, 							{
								"box" : 								{
									"maxclass" : "newobj",
									"text" : "zl group",
									"patching_rect" : [ 50.0, 520.0, 46.0, 18.0 ],
									"id" : "obj-17",
									"fontname" : "Arial",
									"numoutlets" : 2,
									"outlettype" : [ "", "" ],
									"fontsize" : 10.0,
									"numinlets" : 2
								}

							}
, 							{
								"box" : 								{
									"maxclass" : "newobj",
									"text" : "* 1.",
									"patching_rect" : [ 50.0, 484.0, 32.5, 18.0 ],
									"id" : "obj-16",
									"fontname" : "Arial",
									"numoutlets" : 1,
									"outlettype" : [ "float" ],
									"fontsize" : 10.0,
									"numinlets" : 2
								}

							}
, 							{
								"box" : 								{
									"maxclass" : "newobj",
									"text" : "t l l",
									"patching_rect" : [ 50.0, 236.0, 122.0, 18.0 ],
									"id" : "obj-14",
									"fontname" : "Arial",
									"numoutlets" : 2,
									"outlettype" : [ "", "" ],
									"fontsize" : 10.0,
									"numinlets" : 1
								}

							}
, 							{
								"box" : 								{
									"maxclass" : "message",
									"text" : "setdomain 1.",
									"patching_rect" : [ 108.0, 172.0, 68.0, 16.0 ],
									"id" : "obj-13",
									"fontname" : "Arial",
									"numoutlets" : 1,
									"outlettype" : [ "" ],
									"fontsize" : 10.0,
									"numinlets" : 2
								}

							}
, 							{
								"box" : 								{
									"maxclass" : "newobj",
									"text" : "unpack 0 0.",
									"patching_rect" : [ 50.0, 284.0, 62.0, 18.0 ],
									"id" : "obj-6",
									"fontname" : "Arial",
									"numoutlets" : 2,
									"outlettype" : [ "int", "float" ],
									"fontsize" : 10.0,
									"numinlets" : 1
								}

							}
, 							{
								"box" : 								{
									"maxclass" : "newobj",
									"text" : "listfunnel 0",
									"patching_rect" : [ 50.0, 260.0, 58.0, 18.0 ],
									"id" : "obj-3",
									"fontname" : "Arial",
									"numoutlets" : 1,
									"outlettype" : [ "list" ],
									"fontsize" : 10.0,
									"numinlets" : 1
								}

							}
, 							{
								"box" : 								{
									"maxclass" : "newobj",
									"text" : "/ 1.",
									"patching_rect" : [ 50.0, 348.0, 127.0, 18.0 ],
									"id" : "obj-2",
									"fontname" : "Arial",
									"numoutlets" : 1,
									"outlettype" : [ "float" ],
									"fontsize" : 10.0,
									"numinlets" : 2
								}

							}
, 							{
								"box" : 								{
									"maxclass" : "newobj",
									"text" : "zl len",
									"patching_rect" : [ 328.0, 304.0, 34.0, 18.0 ],
									"id" : "obj-1",
									"fontname" : "Arial",
									"numoutlets" : 2,
									"outlettype" : [ "", "" ],
									"fontsize" : 10.0,
									"numinlets" : 2
								}

							}
, 							{
								"box" : 								{
									"maxclass" : "newobj",
									"text" : "pv baselist",
									"patching_rect" : [ 50.0, 212.0, 58.0, 18.0 ],
									"id" : "obj-12",
									"fontname" : "Arial",
									"numoutlets" : 1,
									"outlettype" : [ "" ],
									"fontsize" : 10.0,
									"numinlets" : 1
								}

							}
, 							{
								"box" : 								{
									"maxclass" : "function",
									"patching_rect" : [ 50.0, 388.0, 163.0, 75.0 ],
									"id" : "obj-10",
									"numoutlets" : 4,
									"outlettype" : [ "float", "", "", "bang" ],
									"numinlets" : 1
								}

							}
, 							{
								"box" : 								{
									"maxclass" : "newobj",
									"text" : "t b b dump s clear",
									"patching_rect" : [ 50.0, 128.0, 201.0, 18.0 ],
									"id" : "obj-9",
									"fontname" : "Arial",
									"numoutlets" : 5,
									"outlettype" : [ "bang", "bang", "dump", "", "clear" ],
									"fontsize" : 10.0,
									"numinlets" : 1
								}

							}
, 							{
								"box" : 								{
									"maxclass" : "newobj",
									"text" : "prepend refer",
									"patching_rect" : [ 50.0, 100.0, 71.0, 18.0 ],
									"id" : "obj-7",
									"fontname" : "Arial",
									"numoutlets" : 1,
									"outlettype" : [ "" ],
									"fontsize" : 10.0,
									"numinlets" : 1
								}

							}
, 							{
								"box" : 								{
									"maxclass" : "newobj",
									"text" : "coll",
									"patching_rect" : [ 256.0, 184.0, 59.5, 18.0 ],
									"id" : "obj-5",
									"fontname" : "Arial",
									"numoutlets" : 4,
									"outlettype" : [ "", "", "", "" ],
									"fontsize" : 10.0,
									"numinlets" : 1,
									"saved_object_attributes" : 									{
										"embed" : 0
									}

								}

							}
, 							{
								"box" : 								{
									"maxclass" : "inlet",
									"patching_rect" : [ 50.0, 40.0, 25.0, 25.0 ],
									"id" : "obj-8",
									"numoutlets" : 1,
									"outlettype" : [ "" ],
									"numinlets" : 0,
									"comment" : ""
								}

							}
 ],
						"lines" : [ 							{
								"patchline" : 								{
									"source" : [ "obj-17", 0 ],
									"destination" : [ "obj-18", 0 ],
									"hidden" : 0,
									"midpoints" : [  ]
								}

							}
, 							{
								"patchline" : 								{
									"source" : [ "obj-16", 0 ],
									"destination" : [ "obj-17", 0 ],
									"hidden" : 0,
									"midpoints" : [  ]
								}

							}
, 							{
								"patchline" : 								{
									"source" : [ "obj-1", 0 ],
									"destination" : [ "obj-17", 1 ],
									"hidden" : 0,
									"midpoints" : [  ]
								}

							}
, 							{
								"patchline" : 								{
									"source" : [ "obj-6", 1 ],
									"destination" : [ "obj-16", 1 ],
									"hidden" : 0,
									"midpoints" : [  ]
								}

							}
, 							{
								"patchline" : 								{
									"source" : [ "obj-6", 0 ],
									"destination" : [ "obj-2", 0 ],
									"hidden" : 0,
									"midpoints" : [  ]
								}

							}
, 							{
								"patchline" : 								{
									"source" : [ "obj-3", 0 ],
									"destination" : [ "obj-6", 0 ],
									"hidden" : 0,
									"midpoints" : [  ]
								}

							}
, 							{
								"patchline" : 								{
									"source" : [ "obj-10", 0 ],
									"destination" : [ "obj-16", 0 ],
									"hidden" : 0,
									"midpoints" : [  ]
								}

							}
, 							{
								"patchline" : 								{
									"source" : [ "obj-1", 0 ],
									"destination" : [ "obj-2", 1 ],
									"hidden" : 0,
									"midpoints" : [  ]
								}

							}
, 							{
								"patchline" : 								{
									"source" : [ "obj-2", 0 ],
									"destination" : [ "obj-10", 0 ],
									"hidden" : 0,
									"midpoints" : [  ]
								}

							}
, 							{
								"patchline" : 								{
									"source" : [ "obj-14", 1 ],
									"destination" : [ "obj-1", 0 ],
									"hidden" : 0,
									"midpoints" : [  ]
								}

							}
, 							{
								"patchline" : 								{
									"source" : [ "obj-14", 0 ],
									"destination" : [ "obj-3", 0 ],
									"hidden" : 0,
									"midpoints" : [  ]
								}

							}
, 							{
								"patchline" : 								{
									"source" : [ "obj-12", 0 ],
									"destination" : [ "obj-14", 0 ],
									"hidden" : 0,
									"midpoints" : [  ]
								}

							}
, 							{
								"patchline" : 								{
									"source" : [ "obj-13", 0 ],
									"destination" : [ "obj-10", 0 ],
									"hidden" : 0,
									"midpoints" : [  ]
								}

							}
, 							{
								"patchline" : 								{
									"source" : [ "obj-9", 1 ],
									"destination" : [ "obj-13", 0 ],
									"hidden" : 0,
									"midpoints" : [  ]
								}

							}
, 							{
								"patchline" : 								{
									"source" : [ "obj-9", 2 ],
									"destination" : [ "obj-5", 0 ],
									"hidden" : 0,
									"midpoints" : [  ]
								}

							}
, 							{
								"patchline" : 								{
									"source" : [ "obj-9", 3 ],
									"destination" : [ "obj-5", 0 ],
									"hidden" : 0,
									"midpoints" : [  ]
								}

							}
, 							{
								"patchline" : 								{
									"source" : [ "obj-9", 4 ],
									"destination" : [ "obj-10", 0 ],
									"hidden" : 0,
									"midpoints" : [  ]
								}

							}
, 							{
								"patchline" : 								{
									"source" : [ "obj-9", 0 ],
									"destination" : [ "obj-12", 0 ],
									"hidden" : 0,
									"midpoints" : [  ]
								}

							}
, 							{
								"patchline" : 								{
									"source" : [ "obj-7", 0 ],
									"destination" : [ "obj-9", 0 ],
									"hidden" : 0,
									"midpoints" : [  ]
								}

							}
, 							{
								"patchline" : 								{
									"source" : [ "obj-8", 0 ],
									"destination" : [ "obj-7", 0 ],
									"hidden" : 0,
									"midpoints" : [  ]
								}

							}
, 							{
								"patchline" : 								{
									"source" : [ "obj-5", 0 ],
									"destination" : [ "obj-10", 0 ],
									"hidden" : 0,
									"midpoints" : [  ]
								}

							}
 ]
					}
,
					"saved_object_attributes" : 					{
						"fontname" : "Arial",
						"default_fontsize" : 10.0,
						"globalpatchername" : "",
						"fontface" : 0,
						"fontsize" : 10.0,
						"default_fontface" : 0,
						"default_fontname" : "Arial"
					}

				}

			}
, 			{
				"box" : 				{
					"maxclass" : "newobj",
					"text" : "p additems",
					"patching_rect" : [ 12.0, 288.0, 59.0, 18.0 ],
					"id" : "obj-28",
					"fontname" : "Arial",
					"numoutlets" : 1,
					"outlettype" : [ "bang" ],
					"fontsize" : 10.0,
					"numinlets" : 2,
					"patcher" : 					{
						"fileversion" : 1,
						"rect" : [ 251.0, 340.0, 322.0, 498.0 ],
						"bglocked" : 0,
						"defrect" : [ 251.0, 340.0, 322.0, 498.0 ],
						"openrect" : [ 0.0, 0.0, 0.0, 0.0 ],
						"openinpresentation" : 0,
						"default_fontsize" : 10.0,
						"default_fontface" : 0,
						"default_fontname" : "Arial",
						"gridonopen" : 0,
						"gridsize" : [ 4.0, 4.0 ],
						"gridsnaponopen" : 0,
						"toolbarvisible" : 1,
						"boxanimatetime" : 200,
						"imprint" : 0,
						"enablehscroll" : 1,
						"enablevscroll" : 1,
						"devicewidth" : 0.0,
						"boxes" : [ 							{
								"box" : 								{
									"maxclass" : "newobj",
									"text" : "listfunnel 1",
									"patching_rect" : [ 156.0, 92.0, 58.0, 18.0 ],
									"id" : "obj-9",
									"fontname" : "Arial",
									"numoutlets" : 1,
									"outlettype" : [ "list" ],
									"fontsize" : 10.0,
									"numinlets" : 1
								}

							}
, 							{
								"box" : 								{
									"maxclass" : "newobj",
									"text" : "t b l",
									"patching_rect" : [ 116.0, 60.0, 34.5, 18.0 ],
									"id" : "obj-5",
									"fontname" : "Arial",
									"numoutlets" : 2,
									"outlettype" : [ "bang", "" ],
									"fontsize" : 10.0,
									"numinlets" : 1
								}

							}
, 							{
								"box" : 								{
									"maxclass" : "inlet",
									"patching_rect" : [ 120.0, 12.0, 25.0, 25.0 ],
									"id" : "obj-2",
									"numoutlets" : 1,
									"outlettype" : [ "" ],
									"numinlets" : 0,
									"comment" : ""
								}

							}
, 							{
								"box" : 								{
									"maxclass" : "newobj",
									"text" : "pv templist",
									"patching_rect" : [ 48.0, 322.000031, 58.0, 18.0 ],
									"id" : "obj-1",
									"fontname" : "Arial",
									"numoutlets" : 1,
									"outlettype" : [ "" ],
									"fontsize" : 10.0,
									"numinlets" : 1
								}

							}
, 							{
								"box" : 								{
									"maxclass" : "newobj",
									"text" : "t b l",
									"patching_rect" : [ 32.0, 64.0, 34.5, 18.0 ],
									"id" : "obj-8",
									"fontname" : "Arial",
									"numoutlets" : 2,
									"outlettype" : [ "bang", "" ],
									"fontsize" : 10.0,
									"numinlets" : 1
								}

							}
, 							{
								"box" : 								{
									"maxclass" : "newobj",
									"text" : "pack 0. 0",
									"patching_rect" : [ 48.0, 256.0, 143.0, 18.0 ],
									"id" : "obj-7",
									"fontname" : "Arial",
									"numoutlets" : 1,
									"outlettype" : [ "" ],
									"fontsize" : 10.0,
									"numinlets" : 2
								}

							}
, 							{
								"box" : 								{
									"maxclass" : "newobj",
									"text" : "t b l",
									"patching_rect" : [ 48.0, 300.0, 32.0, 20.0 ],
									"id" : "obj-6",
									"fontname" : "Arial",
									"numoutlets" : 2,
									"outlettype" : [ "bang", "" ],
									"fontsize" : 11.595187,
									"numinlets" : 1
								}

							}
, 							{
								"box" : 								{
									"maxclass" : "newobj",
									"text" : "zl rev",
									"patching_rect" : [ 48.0, 278.0, 34.0, 18.0 ],
									"id" : "obj-4",
									"fontname" : "Arial",
									"numoutlets" : 2,
									"outlettype" : [ "", "" ],
									"fontsize" : 10.0,
									"numinlets" : 2
								}

							}
, 							{
								"box" : 								{
									"maxclass" : "newobj",
									"text" : "zl nth",
									"patching_rect" : [ 48.0, 344.000031, 34.0, 18.0 ],
									"id" : "obj-3",
									"fontname" : "Arial",
									"numoutlets" : 2,
									"outlettype" : [ "", "" ],
									"fontsize" : 10.0,
									"numinlets" : 2
								}

							}
, 							{
								"box" : 								{
									"maxclass" : "newobj",
									"text" : "t b i i",
									"patching_rect" : [ 86.0, 168.000031, 105.0, 18.0 ],
									"id" : "obj-21",
									"fontname" : "Arial",
									"numoutlets" : 3,
									"outlettype" : [ "bang", "int", "int" ],
									"fontsize" : 10.0,
									"numinlets" : 1
								}

							}
, 							{
								"box" : 								{
									"maxclass" : "newobj",
									"text" : "pv baselist",
									"patching_rect" : [ 86.0, 190.000015, 58.0, 18.0 ],
									"id" : "obj-20",
									"fontname" : "Arial",
									"numoutlets" : 1,
									"outlettype" : [ "" ],
									"fontsize" : 10.0,
									"numinlets" : 1
								}

							}
, 							{
								"box" : 								{
									"maxclass" : "newobj",
									"text" : "zl nth",
									"patching_rect" : [ 86.0, 212.000015, 62.0, 18.0 ],
									"id" : "obj-19",
									"fontname" : "Arial",
									"numoutlets" : 2,
									"outlettype" : [ "", "" ],
									"fontsize" : 10.0,
									"numinlets" : 2
								}

							}
, 							{
								"box" : 								{
									"maxclass" : "newobj",
									"text" : "+ 0.",
									"patching_rect" : [ 48.0, 234.000015, 56.0, 18.0 ],
									"id" : "obj-61",
									"fontname" : "Arial",
									"numoutlets" : 1,
									"outlettype" : [ "float" ],
									"fontsize" : 10.0,
									"numinlets" : 2
								}

							}
, 							{
								"box" : 								{
									"maxclass" : "newobj",
									"text" : "zl rev",
									"patching_rect" : [ 48.0, 124.000023, 34.0, 18.0 ],
									"id" : "obj-60",
									"fontname" : "Arial",
									"numoutlets" : 2,
									"outlettype" : [ "", "" ],
									"fontsize" : 10.0,
									"numinlets" : 2
								}

							}
, 							{
								"box" : 								{
									"maxclass" : "newobj",
									"text" : "unpack f i",
									"patching_rect" : [ 48.0, 146.000015, 57.0, 18.0 ],
									"id" : "obj-59",
									"fontname" : "Arial",
									"numoutlets" : 2,
									"outlettype" : [ "float", "int" ],
									"fontsize" : 10.0,
									"numinlets" : 1
								}

							}
, 							{
								"box" : 								{
									"maxclass" : "newobj",
									"text" : "zl iter 2",
									"patching_rect" : [ 48.0, 101.636383, 43.0, 18.0 ],
									"id" : "obj-31",
									"fontname" : "Arial",
									"numoutlets" : 2,
									"outlettype" : [ "", "" ],
									"fontsize" : 10.0,
									"numinlets" : 2
								}

							}
, 							{
								"box" : 								{
									"maxclass" : "inlet",
									"patching_rect" : [ 32.0, 12.0, 25.0, 25.0 ],
									"id" : "obj-26",
									"numoutlets" : 1,
									"outlettype" : [ "" ],
									"numinlets" : 0,
									"comment" : ""
								}

							}
, 							{
								"box" : 								{
									"maxclass" : "outlet",
									"patching_rect" : [ 32.0, 444.0, 25.0, 25.0 ],
									"id" : "obj-27",
									"numoutlets" : 0,
									"numinlets" : 1,
									"comment" : ""
								}

							}
 ],
						"lines" : [ 							{
								"patchline" : 								{
									"source" : [ "obj-5", 1 ],
									"destination" : [ "obj-9", 0 ],
									"hidden" : 0,
									"midpoints" : [  ]
								}

							}
, 							{
								"patchline" : 								{
									"source" : [ "obj-2", 0 ],
									"destination" : [ "obj-5", 0 ],
									"hidden" : 0,
									"midpoints" : [  ]
								}

							}
, 							{
								"patchline" : 								{
									"source" : [ "obj-1", 0 ],
									"destination" : [ "obj-3", 0 ],
									"hidden" : 0,
									"midpoints" : [  ]
								}

							}
, 							{
								"patchline" : 								{
									"source" : [ "obj-6", 0 ],
									"destination" : [ "obj-1", 0 ],
									"hidden" : 0,
									"midpoints" : [  ]
								}

							}
, 							{
								"patchline" : 								{
									"source" : [ "obj-26", 0 ],
									"destination" : [ "obj-8", 0 ],
									"hidden" : 0,
									"midpoints" : [  ]
								}

							}
, 							{
								"patchline" : 								{
									"source" : [ "obj-7", 0 ],
									"destination" : [ "obj-4", 0 ],
									"hidden" : 0,
									"midpoints" : [  ]
								}

							}
, 							{
								"patchline" : 								{
									"source" : [ "obj-61", 0 ],
									"destination" : [ "obj-7", 0 ],
									"hidden" : 0,
									"midpoints" : [  ]
								}

							}
, 							{
								"patchline" : 								{
									"source" : [ "obj-21", 2 ],
									"destination" : [ "obj-7", 1 ],
									"hidden" : 0,
									"midpoints" : [  ]
								}

							}
, 							{
								"patchline" : 								{
									"source" : [ "obj-4", 0 ],
									"destination" : [ "obj-6", 0 ],
									"hidden" : 0,
									"midpoints" : [  ]
								}

							}
, 							{
								"patchline" : 								{
									"source" : [ "obj-21", 1 ],
									"destination" : [ "obj-19", 1 ],
									"hidden" : 0,
									"midpoints" : [  ]
								}

							}
, 							{
								"patchline" : 								{
									"source" : [ "obj-59", 1 ],
									"destination" : [ "obj-21", 0 ],
									"hidden" : 0,
									"midpoints" : [  ]
								}

							}
, 							{
								"patchline" : 								{
									"source" : [ "obj-60", 0 ],
									"destination" : [ "obj-59", 0 ],
									"hidden" : 0,
									"midpoints" : [  ]
								}

							}
, 							{
								"patchline" : 								{
									"source" : [ "obj-59", 0 ],
									"destination" : [ "obj-61", 0 ],
									"hidden" : 0,
									"midpoints" : [  ]
								}

							}
, 							{
								"patchline" : 								{
									"source" : [ "obj-19", 0 ],
									"destination" : [ "obj-61", 1 ],
									"hidden" : 0,
									"midpoints" : [  ]
								}

							}
, 							{
								"patchline" : 								{
									"source" : [ "obj-31", 0 ],
									"destination" : [ "obj-60", 0 ],
									"hidden" : 0,
									"midpoints" : [  ]
								}

							}
, 							{
								"patchline" : 								{
									"source" : [ "obj-6", 1 ],
									"destination" : [ "obj-3", 1 ],
									"hidden" : 0,
									"midpoints" : [  ]
								}

							}
, 							{
								"patchline" : 								{
									"source" : [ "obj-8", 1 ],
									"destination" : [ "obj-31", 0 ],
									"hidden" : 0,
									"midpoints" : [  ]
								}

							}
, 							{
								"patchline" : 								{
									"source" : [ "obj-20", 0 ],
									"destination" : [ "obj-19", 0 ],
									"hidden" : 0,
									"midpoints" : [  ]
								}

							}
, 							{
								"patchline" : 								{
									"source" : [ "obj-21", 0 ],
									"destination" : [ "obj-20", 0 ],
									"hidden" : 0,
									"midpoints" : [  ]
								}

							}
, 							{
								"patchline" : 								{
									"source" : [ "obj-9", 0 ],
									"destination" : [ "obj-60", 0 ],
									"hidden" : 0,
									"midpoints" : [  ]
								}

							}
, 							{
								"patchline" : 								{
									"source" : [ "obj-5", 0 ],
									"destination" : [ "obj-27", 0 ],
									"hidden" : 0,
									"midpoints" : [  ]
								}

							}
, 							{
								"patchline" : 								{
									"source" : [ "obj-3", 1 ],
									"destination" : [ "obj-27", 0 ],
									"hidden" : 0,
									"midpoints" : [  ]
								}

							}
, 							{
								"patchline" : 								{
									"source" : [ "obj-8", 0 ],
									"destination" : [ "obj-27", 0 ],
									"hidden" : 0,
									"midpoints" : [  ]
								}

							}
 ]
					}
,
					"saved_object_attributes" : 					{
						"fontname" : "Arial",
						"default_fontsize" : 10.0,
						"globalpatchername" : "",
						"fontface" : 0,
						"fontsize" : 10.0,
						"default_fontface" : 0,
						"default_fontname" : "Arial"
					}

				}

			}
, 			{
				"box" : 				{
					"maxclass" : "newobj",
					"text" : "pv baselist",
					"patching_rect" : [ 324.0, 396.0, 58.0, 18.0 ],
					"id" : "obj-24",
					"fontname" : "Arial",
					"numoutlets" : 1,
					"outlettype" : [ "" ],
					"fontsize" : 10.0,
					"numinlets" : 1
				}

			}
, 			{
				"box" : 				{
					"maxclass" : "newobj",
					"text" : "patcherargs",
					"patching_rect" : [ 872.0, 272.0, 63.0, 18.0 ],
					"id" : "obj-15",
					"fontname" : "Arial",
					"numoutlets" : 2,
					"outlettype" : [ "", "" ],
					"fontsize" : 10.0,
					"numinlets" : 1
				}

			}
, 			{
				"box" : 				{
					"maxclass" : "newobj",
					"text" : "pv baselist",
					"patching_rect" : [ 212.0, 224.0, 58.0, 18.0 ],
					"id" : "obj-14",
					"fontname" : "Arial",
					"numoutlets" : 1,
					"outlettype" : [ "" ],
					"fontsize" : 10.0,
					"numinlets" : 1
				}

			}
, 			{
				"box" : 				{
					"maxclass" : "newobj",
					"text" : "t l l",
					"patching_rect" : [ 724.0, 300.0, 32.5, 18.0 ],
					"id" : "obj-4",
					"fontname" : "Arial",
					"numoutlets" : 2,
					"outlettype" : [ "", "" ],
					"fontsize" : 10.0,
					"numinlets" : 1
				}

			}
, 			{
				"box" : 				{
					"maxclass" : "newobj",
					"text" : "t b f",
					"patching_rect" : [ 212.0, 204.0, 79.5, 18.0 ],
					"id" : "obj-74",
					"fontname" : "Arial",
					"numoutlets" : 2,
					"outlettype" : [ "bang", "float" ],
					"fontsize" : 10.0,
					"numinlets" : 1
				}

			}
, 			{
				"box" : 				{
					"maxclass" : "newobj",
					"text" : "vexpr $f1+$f2 @scalarmode 1",
					"linecount" : 2,
					"patching_rect" : [ 212.0, 248.0, 81.0, 29.0 ],
					"id" : "obj-72",
					"fontname" : "Arial",
					"numoutlets" : 1,
					"outlettype" : [ "" ],
					"fontsize" : 10.0,
					"numinlets" : 2
				}

			}
, 			{
				"box" : 				{
					"maxclass" : "newobj",
					"text" : "t l b",
					"patching_rect" : [ 12.0, 188.0, 32.5, 18.0 ],
					"id" : "obj-6",
					"fontname" : "Arial",
					"numoutlets" : 2,
					"outlettype" : [ "", "bang" ],
					"fontsize" : 10.0,
					"numinlets" : 1
				}

			}
, 			{
				"box" : 				{
					"maxclass" : "newobj",
					"text" : "route add_select add_all add_every scale_select scale_all scale_every scale_function",
					"patching_rect" : [ 12.0, 144.0, 716.0, 18.0 ],
					"id" : "obj-44",
					"fontname" : "Arial",
					"numoutlets" : 8,
					"outlettype" : [ "", "", "", "", "", "", "", "" ],
					"fontsize" : 10.0,
					"numinlets" : 1
				}

			}
, 			{
				"box" : 				{
					"maxclass" : "inlet",
					"patching_rect" : [ 12.0, 84.0, 25.0, 25.0 ],
					"id" : "obj-2",
					"numoutlets" : 1,
					"outlettype" : [ "" ],
					"numinlets" : 0,
					"comment" : ""
				}

			}
, 			{
				"box" : 				{
					"maxclass" : "outlet",
					"patching_rect" : [ 172.0, 580.0, 25.0, 25.0 ],
					"id" : "obj-1",
					"numoutlets" : 0,
					"numinlets" : 1,
					"comment" : ""
				}

			}
, 			{
				"box" : 				{
					"maxclass" : "inlet",
					"patching_rect" : [ 824.0, 76.0, 25.0, 25.0 ],
					"id" : "obj-76",
					"numoutlets" : 1,
					"outlettype" : [ "" ],
					"numinlets" : 0,
					"comment" : ""
				}

			}
 ],
		"lines" : [ 			{
				"patchline" : 				{
					"source" : [ "obj-13", 0 ],
					"destination" : [ "obj-12", 0 ],
					"hidden" : 0,
					"midpoints" : [  ]
				}

			}
, 			{
				"patchline" : 				{
					"source" : [ "obj-10", 0 ],
					"destination" : [ "obj-1", 0 ],
					"hidden" : 0,
					"midpoints" : [  ]
				}

			}
, 			{
				"patchline" : 				{
					"source" : [ "obj-7", 0 ],
					"destination" : [ "obj-10", 0 ],
					"hidden" : 0,
					"midpoints" : [  ]
				}

			}
, 			{
				"patchline" : 				{
					"source" : [ "obj-12", 0 ],
					"destination" : [ "obj-10", 0 ],
					"hidden" : 0,
					"midpoints" : [  ]
				}

			}
, 			{
				"patchline" : 				{
					"source" : [ "obj-28", 0 ],
					"destination" : [ "obj-10", 0 ],
					"hidden" : 0,
					"midpoints" : [  ]
				}

			}
, 			{
				"patchline" : 				{
					"source" : [ "obj-72", 0 ],
					"destination" : [ "obj-12", 0 ],
					"hidden" : 0,
					"midpoints" : [  ]
				}

			}
, 			{
				"patchline" : 				{
					"source" : [ "obj-6", 1 ],
					"destination" : [ "obj-24", 0 ],
					"hidden" : 0,
					"midpoints" : [  ]
				}

			}
, 			{
				"patchline" : 				{
					"source" : [ "obj-74", 0 ],
					"destination" : [ "obj-14", 0 ],
					"hidden" : 0,
					"midpoints" : [  ]
				}

			}
, 			{
				"patchline" : 				{
					"source" : [ "obj-14", 0 ],
					"destination" : [ "obj-72", 0 ],
					"hidden" : 0,
					"midpoints" : [  ]
				}

			}
, 			{
				"patchline" : 				{
					"source" : [ "obj-6", 0 ],
					"destination" : [ "obj-28", 0 ],
					"hidden" : 0,
					"midpoints" : [  ]
				}

			}
, 			{
				"patchline" : 				{
					"source" : [ "obj-15", 0 ],
					"destination" : [ "obj-4", 0 ],
					"hidden" : 0,
					"midpoints" : [  ]
				}

			}
, 			{
				"patchline" : 				{
					"source" : [ "obj-4", 1 ],
					"destination" : [ "obj-1", 0 ],
					"hidden" : 0,
					"midpoints" : [  ]
				}

			}
, 			{
				"patchline" : 				{
					"source" : [ "obj-74", 1 ],
					"destination" : [ "obj-72", 1 ],
					"hidden" : 0,
					"midpoints" : [  ]
				}

			}
, 			{
				"patchline" : 				{
					"source" : [ "obj-8", 1 ],
					"destination" : [ "obj-24", 0 ],
					"hidden" : 0,
					"midpoints" : [  ]
				}

			}
, 			{
				"patchline" : 				{
					"source" : [ "obj-8", 0 ],
					"destination" : [ "obj-28", 1 ],
					"hidden" : 0,
					"midpoints" : [  ]
				}

			}
, 			{
				"patchline" : 				{
					"source" : [ "obj-24", 0 ],
					"destination" : [ "obj-5", 0 ],
					"hidden" : 0,
					"midpoints" : [  ]
				}

			}
, 			{
				"patchline" : 				{
					"source" : [ "obj-5", 0 ],
					"destination" : [ "obj-9", 0 ],
					"hidden" : 0,
					"midpoints" : [  ]
				}

			}
, 			{
				"patchline" : 				{
					"source" : [ "obj-12", 1 ],
					"destination" : [ "obj-1", 0 ],
					"hidden" : 0,
					"midpoints" : [  ]
				}

			}
, 			{
				"patchline" : 				{
					"source" : [ "obj-19", 0 ],
					"destination" : [ "obj-4", 0 ],
					"hidden" : 0,
					"midpoints" : [  ]
				}

			}
, 			{
				"patchline" : 				{
					"source" : [ "obj-44", 3 ],
					"destination" : [ "obj-18", 0 ],
					"hidden" : 0,
					"midpoints" : [  ]
				}

			}
, 			{
				"patchline" : 				{
					"source" : [ "obj-44", 0 ],
					"destination" : [ "obj-6", 0 ],
					"hidden" : 0,
					"midpoints" : [  ]
				}

			}
, 			{
				"patchline" : 				{
					"source" : [ "obj-44", 2 ],
					"destination" : [ "obj-74", 0 ],
					"hidden" : 0,
					"midpoints" : [  ]
				}

			}
, 			{
				"patchline" : 				{
					"source" : [ "obj-2", 0 ],
					"destination" : [ "obj-44", 0 ],
					"hidden" : 0,
					"midpoints" : [  ]
				}

			}
, 			{
				"patchline" : 				{
					"source" : [ "obj-44", 1 ],
					"destination" : [ "obj-8", 0 ],
					"hidden" : 0,
					"midpoints" : [  ]
				}

			}
, 			{
				"patchline" : 				{
					"source" : [ "obj-44", 4 ],
					"destination" : [ "obj-20", 0 ],
					"hidden" : 0,
					"midpoints" : [  ]
				}

			}
, 			{
				"patchline" : 				{
					"source" : [ "obj-18", 1 ],
					"destination" : [ "obj-24", 0 ],
					"hidden" : 0,
					"midpoints" : [  ]
				}

			}
, 			{
				"patchline" : 				{
					"source" : [ "obj-20", 1 ],
					"destination" : [ "obj-24", 0 ],
					"hidden" : 0,
					"midpoints" : [  ]
				}

			}
, 			{
				"patchline" : 				{
					"source" : [ "obj-18", 0 ],
					"destination" : [ "obj-7", 0 ],
					"hidden" : 0,
					"midpoints" : [  ]
				}

			}
, 			{
				"patchline" : 				{
					"source" : [ "obj-20", 0 ],
					"destination" : [ "obj-7", 1 ],
					"hidden" : 0,
					"midpoints" : [  ]
				}

			}
, 			{
				"patchline" : 				{
					"source" : [ "obj-22", 1 ],
					"destination" : [ "obj-23", 1 ],
					"hidden" : 0,
					"midpoints" : [  ]
				}

			}
, 			{
				"patchline" : 				{
					"source" : [ "obj-21", 0 ],
					"destination" : [ "obj-23", 0 ],
					"hidden" : 0,
					"midpoints" : [  ]
				}

			}
, 			{
				"patchline" : 				{
					"source" : [ "obj-22", 0 ],
					"destination" : [ "obj-21", 0 ],
					"hidden" : 0,
					"midpoints" : [  ]
				}

			}
, 			{
				"patchline" : 				{
					"source" : [ "obj-44", 5 ],
					"destination" : [ "obj-22", 0 ],
					"hidden" : 0,
					"midpoints" : [  ]
				}

			}
, 			{
				"patchline" : 				{
					"source" : [ "obj-23", 0 ],
					"destination" : [ "obj-12", 0 ],
					"hidden" : 0,
					"midpoints" : [  ]
				}

			}
, 			{
				"patchline" : 				{
					"source" : [ "obj-44", 6 ],
					"destination" : [ "obj-13", 0 ],
					"hidden" : 0,
					"midpoints" : [  ]
				}

			}
, 			{
				"patchline" : 				{
					"source" : [ "obj-44", 7 ],
					"destination" : [ "obj-19", 0 ],
					"hidden" : 0,
					"midpoints" : [  ]
				}

			}
, 			{
				"patchline" : 				{
					"source" : [ "obj-19", 1 ],
					"destination" : [ "obj-5", 0 ],
					"hidden" : 0,
					"midpoints" : [  ]
				}

			}
, 			{
				"patchline" : 				{
					"source" : [ "obj-4", 0 ],
					"destination" : [ "obj-24", 0 ],
					"hidden" : 0,
					"midpoints" : [  ]
				}

			}
, 			{
				"patchline" : 				{
					"source" : [ "obj-76", 0 ],
					"destination" : [ "obj-24", 0 ],
					"hidden" : 0,
					"midpoints" : [  ]
				}

			}
, 			{
				"patchline" : 				{
					"source" : [ "obj-76", 0 ],
					"destination" : [ "obj-5", 0 ],
					"hidden" : 0,
					"midpoints" : [  ]
				}

			}
, 			{
				"patchline" : 				{
					"source" : [ "obj-19", 2 ],
					"destination" : [ "obj-10", 0 ],
					"hidden" : 0,
					"midpoints" : [  ]
				}

			}
 ]
	}

}
