{
	"patcher" : 	{
		"fileversion" : 1,
		"rect" : [ 430.0, 74.0, 736.0, 414.0 ],
		"bglocked" : 0,
		"defrect" : [ 430.0, 74.0, 736.0, 414.0 ],
		"openrect" : [ 0.0, 0.0, 0.0, 0.0 ],
		"openinpresentation" : 0,
		"default_fontsize" : 10.0,
		"default_fontface" : 0,
		"default_fontname" : "Arial",
		"gridonopen" : 0,
		"gridsize" : [ 4.0, 4.0 ],
		"gridsnaponopen" : 0,
		"toolbarvisible" : 1,
		"boxanimatetime" : 200,
		"imprint" : 0,
		"enablehscroll" : 1,
		"enablevscroll" : 1,
		"devicewidth" : 0.0,
		"boxes" : [ 			{
				"box" : 				{
					"maxclass" : "newobj",
					"text" : "p process_bank_file",
					"numinlets" : 1,
					"numoutlets" : 1,
					"fontname" : "Arial",
					"outlettype" : [ "bang" ],
					"patching_rect" : [ 24.0, 48.0, 100.0, 18.0 ],
					"fontsize" : 10.0,
					"id" : "obj-32",
					"patcher" : 					{
						"fileversion" : 1,
						"rect" : [ 186.0, 255.0, 519.0, 468.0 ],
						"bglocked" : 0,
						"defrect" : [ 186.0, 255.0, 519.0, 468.0 ],
						"openrect" : [ 0.0, 0.0, 0.0, 0.0 ],
						"openinpresentation" : 0,
						"default_fontsize" : 10.0,
						"default_fontface" : 0,
						"default_fontname" : "Arial",
						"gridonopen" : 0,
						"gridsize" : [ 4.0, 4.0 ],
						"gridsnaponopen" : 0,
						"toolbarvisible" : 1,
						"boxanimatetime" : 200,
						"imprint" : 0,
						"enablehscroll" : 1,
						"enablevscroll" : 1,
						"devicewidth" : 0.0,
						"boxes" : [ 							{
								"box" : 								{
									"maxclass" : "newobj",
									"text" : "route symbol",
									"numinlets" : 1,
									"numoutlets" : 2,
									"fontname" : "Arial",
									"outlettype" : [ "", "" ],
									"patching_rect" : [ 164.0, 232.0, 68.0, 18.0 ],
									"fontsize" : 10.0,
									"id" : "obj-51"
								}

							}
, 							{
								"box" : 								{
									"maxclass" : "newobj",
									"text" : "t b dump 3 dump 2 dump 1",
									"numinlets" : 1,
									"numoutlets" : 7,
									"fontname" : "Arial",
									"outlettype" : [ "bang", "dump", "int", "dump", "int", "dump", "int" ],
									"patching_rect" : [ 44.0, 148.0, 130.0, 18.0 ],
									"fontsize" : 10.0,
									"id" : "obj-47"
								}

							}
, 							{
								"box" : 								{
									"maxclass" : "newobj",
									"text" : "zl iter 2",
									"numinlets" : 2,
									"numoutlets" : 2,
									"fontname" : "Arial",
									"outlettype" : [ "", "" ],
									"patching_rect" : [ 140.0, 296.0, 43.0, 18.0 ],
									"fontsize" : 10.0,
									"id" : "obj-46"
								}

							}
, 							{
								"box" : 								{
									"maxclass" : "newobj",
									"text" : "zl iter 2",
									"numinlets" : 2,
									"numoutlets" : 2,
									"fontname" : "Arial",
									"outlettype" : [ "", "" ],
									"patching_rect" : [ 108.0, 360.0, 43.0, 18.0 ],
									"fontsize" : 10.0,
									"id" : "obj-1"
								}

							}
, 							{
								"box" : 								{
									"maxclass" : "newobj",
									"text" : "t s clear",
									"numinlets" : 1,
									"numoutlets" : 2,
									"fontname" : "Arial",
									"outlettype" : [ "", "clear" ],
									"patching_rect" : [ 204.0, 148.0, 121.0, 18.0 ],
									"fontsize" : 10.0,
									"id" : "obj-44"
								}

							}
, 							{
								"box" : 								{
									"maxclass" : "newobj",
									"text" : "p organize_tags",
									"numinlets" : 1,
									"numoutlets" : 0,
									"fontname" : "Arial",
									"patching_rect" : [ 306.0, 304.0, 82.0, 18.0 ],
									"fontsize" : 10.0,
									"id" : "obj-42",
									"patcher" : 									{
										"fileversion" : 1,
										"rect" : [ 750.0, 153.0, 703.0, 441.0 ],
										"bglocked" : 0,
										"defrect" : [ 750.0, 153.0, 703.0, 441.0 ],
										"openrect" : [ 0.0, 0.0, 0.0, 0.0 ],
										"openinpresentation" : 0,
										"default_fontsize" : 10.0,
										"default_fontface" : 0,
										"default_fontname" : "Arial",
										"gridonopen" : 0,
										"gridsize" : [ 4.0, 4.0 ],
										"gridsnaponopen" : 0,
										"toolbarvisible" : 1,
										"boxanimatetime" : 200,
										"imprint" : 0,
										"enablehscroll" : 1,
										"enablevscroll" : 1,
										"devicewidth" : 0.0,
										"boxes" : [ 											{
												"box" : 												{
													"maxclass" : "comment",
													"text" : "test data",
													"numinlets" : 1,
													"numoutlets" : 0,
													"fontname" : "Arial",
													"frgb" : [ 0.0, 0.0, 0.0, 1.0 ],
													"patching_rect" : [ 252.0, 20.0, 49.0, 18.0 ],
													"fontsize" : 10.0,
													"id" : "obj-4"
												}

											}
, 											{
												"box" : 												{
													"maxclass" : "newobj",
													"text" : "zl join",
													"numinlets" : 2,
													"numoutlets" : 2,
													"fontname" : "Arial",
													"outlettype" : [ "", "" ],
													"patching_rect" : [ 120.0, 280.0, 36.0, 18.0 ],
													"fontsize" : 10.0,
													"id" : "obj-22"
												}

											}
, 											{
												"box" : 												{
													"maxclass" : "newobj",
													"text" : "zl slice 3",
													"numinlets" : 2,
													"numoutlets" : 2,
													"fontname" : "Arial",
													"outlettype" : [ "", "" ],
													"patching_rect" : [ 144.0, 256.0, 49.0, 18.0 ],
													"fontsize" : 10.0,
													"id" : "obj-21"
												}

											}
, 											{
												"box" : 												{
													"maxclass" : "newobj",
													"text" : "zl nth 1",
													"numinlets" : 2,
													"numoutlets" : 2,
													"fontname" : "Arial",
													"outlettype" : [ "", "" ],
													"patching_rect" : [ 120.0, 228.0, 43.0, 18.0 ],
													"fontsize" : 10.0,
													"id" : "obj-20"
												}

											}
, 											{
												"box" : 												{
													"maxclass" : "message",
													"text" : "name 05so6_strk_wr_02.aif len_ms 3362.42627 numchan 1 filetype int24 sonic_characteristics dark",
													"numinlets" : 2,
													"numoutlets" : 1,
													"fontname" : "Arial",
													"outlettype" : [ "" ],
													"patching_rect" : [ 212.0, 40.0, 453.0, 16.0 ],
													"fontsize" : 10.0,
													"id" : "obj-15"
												}

											}
, 											{
												"box" : 												{
													"maxclass" : "newobj",
													"text" : "zl filter name len_ms numchan filetype",
													"numinlets" : 2,
													"numoutlets" : 2,
													"fontname" : "Arial",
													"outlettype" : [ "", "" ],
													"patching_rect" : [ 120.0, 108.0, 181.0, 18.0 ],
													"fontsize" : 10.0,
													"id" : "obj-6"
												}

											}
, 											{
												"box" : 												{
													"maxclass" : "message",
													"text" : "clear",
													"numinlets" : 2,
													"numoutlets" : 1,
													"fontname" : "Arial",
													"outlettype" : [ "" ],
													"patching_rect" : [ 52.0, 320.0, 32.5, 16.0 ],
													"fontsize" : 10.0,
													"id" : "obj-12"
												}

											}
, 											{
												"box" : 												{
													"maxclass" : "newobj",
													"text" : "coll tags_available 1",
													"numinlets" : 1,
													"numoutlets" : 4,
													"fontname" : "Arial",
													"outlettype" : [ "", "", "", "" ],
													"patching_rect" : [ 120.0, 364.0, 101.0, 18.0 ],
													"fontsize" : 10.0,
													"id" : "obj-9",
													"saved_object_attributes" : 													{
														"embed" : 0
													}

												}

											}
, 											{
												"box" : 												{
													"maxclass" : "newobj",
													"text" : "prepend store",
													"numinlets" : 1,
													"numoutlets" : 1,
													"fontname" : "Arial",
													"outlettype" : [ "" ],
													"patching_rect" : [ 120.0, 320.0, 72.0, 18.0 ],
													"fontsize" : 10.0,
													"id" : "obj-8"
												}

											}
, 											{
												"box" : 												{
													"maxclass" : "newobj",
													"text" : "coll tag_mappings",
													"numinlets" : 1,
													"numoutlets" : 4,
													"fontname" : "Arial",
													"outlettype" : [ "", "", "", "" ],
													"patching_rect" : [ 304.0, 200.0, 91.0, 18.0 ],
													"fontsize" : 10.0,
													"id" : "obj-3",
													"saved_object_attributes" : 													{
														"embed" : 0
													}

												}

											}
, 											{
												"box" : 												{
													"maxclass" : "newobj",
													"text" : "route bang clear",
													"numinlets" : 1,
													"numoutlets" : 3,
													"fontname" : "Arial",
													"outlettype" : [ "", "", "" ],
													"patching_rect" : [ 20.0, 76.0, 83.0, 18.0 ],
													"fontsize" : 10.0,
													"id" : "obj-1"
												}

											}
, 											{
												"box" : 												{
													"maxclass" : "inlet",
													"numinlets" : 0,
													"numoutlets" : 1,
													"outlettype" : [ "" ],
													"patching_rect" : [ 20.0, 16.0, 25.0, 25.0 ],
													"id" : "obj-37",
													"comment" : ""
												}

											}
 ],
										"lines" : [ 											{
												"patchline" : 												{
													"source" : [ "obj-12", 0 ],
													"destination" : [ "obj-9", 0 ],
													"hidden" : 0,
													"midpoints" : [  ]
												}

											}
, 											{
												"patchline" : 												{
													"source" : [ "obj-8", 0 ],
													"destination" : [ "obj-9", 0 ],
													"hidden" : 0,
													"midpoints" : [  ]
												}

											}
, 											{
												"patchline" : 												{
													"source" : [ "obj-15", 0 ],
													"destination" : [ "obj-6", 0 ],
													"hidden" : 0,
													"midpoints" : [  ]
												}

											}
, 											{
												"patchline" : 												{
													"source" : [ "obj-6", 0 ],
													"destination" : [ "obj-20", 0 ],
													"hidden" : 0,
													"midpoints" : [  ]
												}

											}
, 											{
												"patchline" : 												{
													"source" : [ "obj-20", 1 ],
													"destination" : [ "obj-21", 0 ],
													"hidden" : 0,
													"midpoints" : [  ]
												}

											}
, 											{
												"patchline" : 												{
													"source" : [ "obj-21", 1 ],
													"destination" : [ "obj-22", 1 ],
													"hidden" : 0,
													"midpoints" : [  ]
												}

											}
, 											{
												"patchline" : 												{
													"source" : [ "obj-20", 0 ],
													"destination" : [ "obj-22", 0 ],
													"hidden" : 0,
													"midpoints" : [  ]
												}

											}
, 											{
												"patchline" : 												{
													"source" : [ "obj-22", 0 ],
													"destination" : [ "obj-8", 0 ],
													"hidden" : 0,
													"midpoints" : [  ]
												}

											}
, 											{
												"patchline" : 												{
													"source" : [ "obj-37", 0 ],
													"destination" : [ "obj-1", 0 ],
													"hidden" : 0,
													"midpoints" : [  ]
												}

											}
, 											{
												"patchline" : 												{
													"source" : [ "obj-1", 2 ],
													"destination" : [ "obj-6", 0 ],
													"hidden" : 0,
													"midpoints" : [  ]
												}

											}
, 											{
												"patchline" : 												{
													"source" : [ "obj-1", 1 ],
													"destination" : [ "obj-12", 0 ],
													"hidden" : 0,
													"midpoints" : [  ]
												}

											}
 ]
									}
,
									"saved_object_attributes" : 									{
										"default_fontname" : "Arial",
										"fontname" : "Arial",
										"default_fontsize" : 10.0,
										"fontface" : 0,
										"fontsize" : 10.0,
										"default_fontface" : 0,
										"globalpatchername" : ""
									}

								}

							}
, 							{
								"box" : 								{
									"maxclass" : "newobj",
									"text" : "p find_num_tags",
									"numinlets" : 1,
									"numoutlets" : 0,
									"fontname" : "Arial",
									"patching_rect" : [ 140.0, 324.0, 84.0, 18.0 ],
									"fontsize" : 10.0,
									"id" : "obj-38",
									"patcher" : 									{
										"fileversion" : 1,
										"rect" : [ 845.0, 256.0, 640.0, 480.0 ],
										"bglocked" : 0,
										"defrect" : [ 845.0, 256.0, 640.0, 480.0 ],
										"openrect" : [ 0.0, 0.0, 0.0, 0.0 ],
										"openinpresentation" : 0,
										"default_fontsize" : 10.0,
										"default_fontface" : 0,
										"default_fontname" : "Arial",
										"gridonopen" : 0,
										"gridsize" : [ 4.0, 4.0 ],
										"gridsnaponopen" : 0,
										"toolbarvisible" : 1,
										"boxanimatetime" : 200,
										"imprint" : 0,
										"enablehscroll" : 1,
										"enablevscroll" : 1,
										"devicewidth" : 0.0,
										"boxes" : [ 											{
												"box" : 												{
													"maxclass" : "message",
													"text" : "\" \"",
													"numinlets" : 2,
													"numoutlets" : 1,
													"fontname" : "Arial",
													"outlettype" : [ "" ],
													"patching_rect" : [ 44.0, 248.0, 32.5, 16.0 ],
													"fontsize" : 10.0,
													"id" : "obj-7"
												}

											}
, 											{
												"box" : 												{
													"maxclass" : "message",
													"text" : "\" \"",
													"numinlets" : 2,
													"numoutlets" : 1,
													"fontname" : "Arial",
													"outlettype" : [ "" ],
													"patching_rect" : [ 96.0, 340.0, 32.5, 16.0 ],
													"fontsize" : 10.0,
													"id" : "obj-6"
												}

											}
, 											{
												"box" : 												{
													"maxclass" : "newobj",
													"text" : "print",
													"numinlets" : 1,
													"numoutlets" : 0,
													"fontname" : "Arial",
													"patching_rect" : [ 96.0, 364.0, 30.0, 18.0 ],
													"fontsize" : 10.0,
													"id" : "obj-4"
												}

											}
, 											{
												"box" : 												{
													"maxclass" : "newobj",
													"text" : "b 4",
													"numinlets" : 1,
													"numoutlets" : 4,
													"fontname" : "Arial",
													"outlettype" : [ "bang", "bang", "bang", "bang" ],
													"patching_rect" : [ 56.0, 156.0, 59.5, 18.0 ],
													"fontsize" : 10.0,
													"id" : "obj-3"
												}

											}
, 											{
												"box" : 												{
													"maxclass" : "newobj",
													"text" : "print tag_stats-------------------------",
													"numinlets" : 1,
													"numoutlets" : 0,
													"fontname" : "Arial",
													"patching_rect" : [ 44.0, 276.0, 157.0, 18.0 ],
													"fontsize" : 10.0,
													"id" : "obj-2"
												}

											}
, 											{
												"box" : 												{
													"maxclass" : "newobj",
													"text" : "route bang clear",
													"numinlets" : 1,
													"numoutlets" : 3,
													"fontname" : "Arial",
													"outlettype" : [ "", "", "" ],
													"patching_rect" : [ 48.0, 64.0, 83.0, 18.0 ],
													"fontsize" : 10.0,
													"id" : "obj-1"
												}

											}
, 											{
												"box" : 												{
													"maxclass" : "newobj",
													"text" : "print number_of_tag_values",
													"numinlets" : 1,
													"numoutlets" : 0,
													"fontname" : "Arial",
													"patching_rect" : [ 380.0, 312.0, 134.0, 18.0 ],
													"fontsize" : 10.0,
													"id" : "obj-36"
												}

											}
, 											{
												"box" : 												{
													"maxclass" : "newobj",
													"text" : "zl 4096 thin",
													"numinlets" : 2,
													"numoutlets" : 2,
													"fontname" : "Arial",
													"outlettype" : [ "", "" ],
													"patching_rect" : [ 292.0, 226.0, 62.0, 18.0 ],
													"fontsize" : 10.0,
													"id" : "obj-33"
												}

											}
, 											{
												"box" : 												{
													"maxclass" : "newobj",
													"text" : "zl 4096 len",
													"numinlets" : 2,
													"numoutlets" : 2,
													"fontname" : "Arial",
													"outlettype" : [ "", "" ],
													"patching_rect" : [ 292.0, 248.0, 59.0, 18.0 ],
													"fontsize" : 10.0,
													"id" : "obj-34"
												}

											}
, 											{
												"box" : 												{
													"maxclass" : "newobj",
													"text" : "zl 4096 group",
													"numinlets" : 2,
													"numoutlets" : 2,
													"fontname" : "Arial",
													"outlettype" : [ "", "" ],
													"patching_rect" : [ 292.0, 204.0, 71.0, 18.0 ],
													"fontsize" : 10.0,
													"id" : "obj-35"
												}

											}
, 											{
												"box" : 												{
													"maxclass" : "newobj",
													"text" : "zl 4096 thin",
													"numinlets" : 2,
													"numoutlets" : 2,
													"fontname" : "Arial",
													"outlettype" : [ "", "" ],
													"patching_rect" : [ 380.0, 222.0, 62.0, 18.0 ],
													"fontsize" : 10.0,
													"id" : "obj-32"
												}

											}
, 											{
												"box" : 												{
													"maxclass" : "newobj",
													"text" : "zl 4096 len",
													"numinlets" : 2,
													"numoutlets" : 2,
													"fontname" : "Arial",
													"outlettype" : [ "", "" ],
													"patching_rect" : [ 380.0, 244.0, 59.0, 18.0 ],
													"fontsize" : 10.0,
													"id" : "obj-31"
												}

											}
, 											{
												"box" : 												{
													"maxclass" : "comment",
													"text" : "tag type",
													"numinlets" : 1,
													"numoutlets" : 0,
													"fontname" : "Arial",
													"frgb" : [ 0.0, 0.0, 0.0, 1.0 ],
													"patching_rect" : [ 304.0, 180.0, 46.0, 18.0 ],
													"fontsize" : 10.0,
													"id" : "obj-28"
												}

											}
, 											{
												"box" : 												{
													"maxclass" : "comment",
													"text" : "tag value",
													"numinlets" : 1,
													"numoutlets" : 0,
													"fontname" : "Arial",
													"frgb" : [ 0.0, 0.0, 0.0, 1.0 ],
													"patching_rect" : [ 388.0, 180.0, 51.0, 18.0 ],
													"fontsize" : 10.0,
													"id" : "obj-27"
												}

											}
, 											{
												"box" : 												{
													"maxclass" : "newobj",
													"text" : "zl 4096 group",
													"numinlets" : 2,
													"numoutlets" : 2,
													"fontname" : "Arial",
													"outlettype" : [ "", "" ],
													"patching_rect" : [ 380.0, 200.0, 71.0, 18.0 ],
													"fontsize" : 10.0,
													"id" : "obj-24"
												}

											}
, 											{
												"box" : 												{
													"maxclass" : "newobj",
													"text" : "unpack s s",
													"numinlets" : 1,
													"numoutlets" : 2,
													"fontname" : "Arial",
													"outlettype" : [ "", "" ],
													"patching_rect" : [ 292.0, 144.0, 58.0, 18.0 ],
													"fontsize" : 10.0,
													"id" : "obj-22"
												}

											}
, 											{
												"box" : 												{
													"maxclass" : "newobj",
													"text" : "route name len_ms numchan filetype",
													"numinlets" : 1,
													"numoutlets" : 5,
													"fontname" : "Arial",
													"outlettype" : [ "", "", "", "", "" ],
													"patching_rect" : [ 128.0, 100.0, 174.0, 18.0 ],
													"fontsize" : 10.0,
													"id" : "obj-18"
												}

											}
, 											{
												"box" : 												{
													"maxclass" : "newobj",
													"text" : "print number_of_tag_types",
													"numinlets" : 1,
													"numoutlets" : 0,
													"fontname" : "Arial",
													"patching_rect" : [ 292.0, 368.0, 129.0, 18.0 ],
													"fontsize" : 10.0,
													"id" : "obj-15"
												}

											}
, 											{
												"box" : 												{
													"maxclass" : "inlet",
													"numinlets" : 0,
													"numoutlets" : 1,
													"outlettype" : [ "" ],
													"patching_rect" : [ 48.0, 28.0, 25.0, 25.0 ],
													"id" : "obj-37",
													"comment" : ""
												}

											}
 ],
										"lines" : [ 											{
												"patchline" : 												{
													"source" : [ "obj-1", 2 ],
													"destination" : [ "obj-18", 0 ],
													"hidden" : 0,
													"midpoints" : [  ]
												}

											}
, 											{
												"patchline" : 												{
													"source" : [ "obj-37", 0 ],
													"destination" : [ "obj-1", 0 ],
													"hidden" : 0,
													"midpoints" : [  ]
												}

											}
, 											{
												"patchline" : 												{
													"source" : [ "obj-1", 0 ],
													"destination" : [ "obj-3", 0 ],
													"hidden" : 0,
													"midpoints" : [  ]
												}

											}
, 											{
												"patchline" : 												{
													"source" : [ "obj-7", 0 ],
													"destination" : [ "obj-2", 0 ],
													"hidden" : 0,
													"midpoints" : [  ]
												}

											}
, 											{
												"patchline" : 												{
													"source" : [ "obj-3", 2 ],
													"destination" : [ "obj-7", 0 ],
													"hidden" : 0,
													"midpoints" : [  ]
												}

											}
, 											{
												"patchline" : 												{
													"source" : [ "obj-3", 3 ],
													"destination" : [ "obj-6", 0 ],
													"hidden" : 0,
													"midpoints" : [  ]
												}

											}
, 											{
												"patchline" : 												{
													"source" : [ "obj-3", 0 ],
													"destination" : [ "obj-35", 0 ],
													"hidden" : 0,
													"midpoints" : [  ]
												}

											}
, 											{
												"patchline" : 												{
													"source" : [ "obj-3", 1 ],
													"destination" : [ "obj-24", 0 ],
													"hidden" : 0,
													"midpoints" : [  ]
												}

											}
, 											{
												"patchline" : 												{
													"source" : [ "obj-6", 0 ],
													"destination" : [ "obj-4", 0 ],
													"hidden" : 0,
													"midpoints" : [  ]
												}

											}
, 											{
												"patchline" : 												{
													"source" : [ "obj-18", 4 ],
													"destination" : [ "obj-22", 0 ],
													"hidden" : 0,
													"midpoints" : [  ]
												}

											}
, 											{
												"patchline" : 												{
													"source" : [ "obj-22", 1 ],
													"destination" : [ "obj-24", 0 ],
													"hidden" : 0,
													"midpoints" : [  ]
												}

											}
, 											{
												"patchline" : 												{
													"source" : [ "obj-24", 0 ],
													"destination" : [ "obj-32", 0 ],
													"hidden" : 0,
													"midpoints" : [  ]
												}

											}
, 											{
												"patchline" : 												{
													"source" : [ "obj-32", 0 ],
													"destination" : [ "obj-31", 0 ],
													"hidden" : 0,
													"midpoints" : [  ]
												}

											}
, 											{
												"patchline" : 												{
													"source" : [ "obj-33", 0 ],
													"destination" : [ "obj-34", 0 ],
													"hidden" : 0,
													"midpoints" : [  ]
												}

											}
, 											{
												"patchline" : 												{
													"source" : [ "obj-35", 0 ],
													"destination" : [ "obj-33", 0 ],
													"hidden" : 0,
													"midpoints" : [  ]
												}

											}
, 											{
												"patchline" : 												{
													"source" : [ "obj-22", 0 ],
													"destination" : [ "obj-35", 0 ],
													"hidden" : 0,
													"midpoints" : [  ]
												}

											}
, 											{
												"patchline" : 												{
													"source" : [ "obj-34", 0 ],
													"destination" : [ "obj-15", 0 ],
													"hidden" : 0,
													"midpoints" : [  ]
												}

											}
, 											{
												"patchline" : 												{
													"source" : [ "obj-31", 0 ],
													"destination" : [ "obj-36", 0 ],
													"hidden" : 0,
													"midpoints" : [  ]
												}

											}
 ]
									}
,
									"saved_object_attributes" : 									{
										"default_fontname" : "Arial",
										"fontname" : "Arial",
										"default_fontsize" : 10.0,
										"fontface" : 0,
										"fontsize" : 10.0,
										"default_fontface" : 0,
										"globalpatchername" : ""
									}

								}

							}
, 							{
								"box" : 								{
									"maxclass" : "button",
									"numinlets" : 1,
									"numoutlets" : 1,
									"outlettype" : [ "bang" ],
									"patching_rect" : [ 44.0, 120.0, 20.0, 20.0 ],
									"id" : "obj-21"
								}

							}
, 							{
								"box" : 								{
									"maxclass" : "newobj",
									"text" : "gate 3",
									"numinlets" : 2,
									"numoutlets" : 3,
									"fontname" : "Arial",
									"outlettype" : [ "", "", "" ],
									"patching_rect" : [ 108.0, 268.0, 83.0, 18.0 ],
									"fontsize" : 10.0,
									"id" : "obj-16"
								}

							}
, 							{
								"box" : 								{
									"maxclass" : "newobj",
									"text" : "print file-----------------------------------",
									"numinlets" : 1,
									"numoutlets" : 0,
									"fontname" : "Arial",
									"patching_rect" : [ 340.0, 260.0, 162.0, 18.0 ],
									"fontsize" : 10.0,
									"id" : "obj-14"
								}

							}
, 							{
								"box" : 								{
									"maxclass" : "newobj",
									"text" : "route symbol",
									"numinlets" : 1,
									"numoutlets" : 2,
									"fontname" : "Arial",
									"outlettype" : [ "", "" ],
									"patching_rect" : [ 340.0, 220.0, 68.0, 18.0 ],
									"fontsize" : 10.0,
									"id" : "obj-6"
								}

							}
, 							{
								"box" : 								{
									"maxclass" : "newobj",
									"text" : "coll testopener",
									"numinlets" : 1,
									"numoutlets" : 4,
									"fontname" : "Arial",
									"outlettype" : [ "", "", "", "" ],
									"patching_rect" : [ 164.0, 188.0, 85.0, 18.0 ],
									"fontsize" : 10.0,
									"id" : "obj-2",
									"saved_object_attributes" : 									{
										"embed" : 0
									}

								}

							}
, 							{
								"box" : 								{
									"maxclass" : "inlet",
									"numinlets" : 0,
									"numoutlets" : 1,
									"outlettype" : [ "" ],
									"patching_rect" : [ 204.0, 32.0, 25.0, 25.0 ],
									"id" : "obj-29",
									"comment" : ""
								}

							}
, 							{
								"box" : 								{
									"maxclass" : "outlet",
									"numinlets" : 1,
									"numoutlets" : 0,
									"patching_rect" : [ 44.0, 408.0, 25.0, 25.0 ],
									"id" : "obj-31",
									"comment" : ""
								}

							}
 ],
						"lines" : [ 							{
								"patchline" : 								{
									"source" : [ "obj-47", 0 ],
									"destination" : [ "obj-31", 0 ],
									"hidden" : 0,
									"midpoints" : [  ]
								}

							}
, 							{
								"patchline" : 								{
									"source" : [ "obj-2", 1 ],
									"destination" : [ "obj-6", 0 ],
									"hidden" : 0,
									"midpoints" : [  ]
								}

							}
, 							{
								"patchline" : 								{
									"source" : [ "obj-6", 0 ],
									"destination" : [ "obj-14", 0 ],
									"hidden" : 0,
									"midpoints" : [  ]
								}

							}
, 							{
								"patchline" : 								{
									"source" : [ "obj-6", 1 ],
									"destination" : [ "obj-14", 0 ],
									"hidden" : 0,
									"midpoints" : [  ]
								}

							}
, 							{
								"patchline" : 								{
									"source" : [ "obj-2", 2 ],
									"destination" : [ "obj-21", 0 ],
									"hidden" : 0,
									"midpoints" : [ 217.5, 215.0, 35.5, 215.0, 35.5, 110.0, 53.5, 110.0 ]
								}

							}
, 							{
								"patchline" : 								{
									"source" : [ "obj-16", 2 ],
									"destination" : [ "obj-42", 0 ],
									"hidden" : 0,
									"midpoints" : [  ]
								}

							}
, 							{
								"patchline" : 								{
									"source" : [ "obj-44", 1 ],
									"destination" : [ "obj-42", 0 ],
									"hidden" : 0,
									"midpoints" : [  ]
								}

							}
, 							{
								"patchline" : 								{
									"source" : [ "obj-44", 0 ],
									"destination" : [ "obj-2", 0 ],
									"hidden" : 0,
									"midpoints" : [  ]
								}

							}
, 							{
								"patchline" : 								{
									"source" : [ "obj-46", 0 ],
									"destination" : [ "obj-38", 0 ],
									"hidden" : 0,
									"midpoints" : [  ]
								}

							}
, 							{
								"patchline" : 								{
									"source" : [ "obj-47", 0 ],
									"destination" : [ "obj-38", 0 ],
									"hidden" : 0,
									"midpoints" : [  ]
								}

							}
, 							{
								"patchline" : 								{
									"source" : [ "obj-47", 1 ],
									"destination" : [ "obj-2", 0 ],
									"hidden" : 0,
									"midpoints" : [  ]
								}

							}
, 							{
								"patchline" : 								{
									"source" : [ "obj-47", 2 ],
									"destination" : [ "obj-16", 0 ],
									"hidden" : 0,
									"midpoints" : [  ]
								}

							}
, 							{
								"patchline" : 								{
									"source" : [ "obj-47", 3 ],
									"destination" : [ "obj-2", 0 ],
									"hidden" : 0,
									"midpoints" : [  ]
								}

							}
, 							{
								"patchline" : 								{
									"source" : [ "obj-47", 4 ],
									"destination" : [ "obj-16", 0 ],
									"hidden" : 0,
									"midpoints" : [  ]
								}

							}
, 							{
								"patchline" : 								{
									"source" : [ "obj-47", 5 ],
									"destination" : [ "obj-2", 0 ],
									"hidden" : 0,
									"midpoints" : [  ]
								}

							}
, 							{
								"patchline" : 								{
									"source" : [ "obj-47", 6 ],
									"destination" : [ "obj-16", 0 ],
									"hidden" : 0,
									"midpoints" : [  ]
								}

							}
, 							{
								"patchline" : 								{
									"source" : [ "obj-21", 0 ],
									"destination" : [ "obj-47", 0 ],
									"hidden" : 0,
									"midpoints" : [  ]
								}

							}
, 							{
								"patchline" : 								{
									"source" : [ "obj-51", 0 ],
									"destination" : [ "obj-16", 1 ],
									"hidden" : 0,
									"midpoints" : [  ]
								}

							}
, 							{
								"patchline" : 								{
									"source" : [ "obj-51", 1 ],
									"destination" : [ "obj-16", 1 ],
									"hidden" : 0,
									"midpoints" : [  ]
								}

							}
, 							{
								"patchline" : 								{
									"source" : [ "obj-2", 0 ],
									"destination" : [ "obj-51", 0 ],
									"hidden" : 0,
									"midpoints" : [  ]
								}

							}
, 							{
								"patchline" : 								{
									"source" : [ "obj-16", 0 ],
									"destination" : [ "obj-1", 0 ],
									"hidden" : 0,
									"midpoints" : [  ]
								}

							}
, 							{
								"patchline" : 								{
									"source" : [ "obj-16", 1 ],
									"destination" : [ "obj-46", 0 ],
									"hidden" : 0,
									"midpoints" : [  ]
								}

							}
, 							{
								"patchline" : 								{
									"source" : [ "obj-29", 0 ],
									"destination" : [ "obj-44", 0 ],
									"hidden" : 0,
									"midpoints" : [  ]
								}

							}
, 							{
								"patchline" : 								{
									"source" : [ "obj-1", 0 ],
									"destination" : [ "obj-31", 0 ],
									"hidden" : 0,
									"midpoints" : [  ]
								}

							}
 ]
					}
,
					"saved_object_attributes" : 					{
						"default_fontname" : "Arial",
						"fontname" : "Arial",
						"default_fontsize" : 10.0,
						"fontface" : 0,
						"fontsize" : 10.0,
						"default_fontface" : 0,
						"globalpatchername" : ""
					}

				}

			}
, 			{
				"box" : 				{
					"maxclass" : "message",
					"text" : "refer tags_available",
					"numinlets" : 2,
					"numoutlets" : 1,
					"fontname" : "Arial",
					"presentation_rect" : [ 466.0, 262.0, 0.0, 0.0 ],
					"outlettype" : [ "" ],
					"patching_rect" : [ 336.0, 152.0, 98.0, 16.0 ],
					"fontsize" : 10.0,
					"id" : "obj-23"
				}

			}
, 			{
				"box" : 				{
					"maxclass" : "jit.cellblock",
					"numinlets" : 2,
					"numoutlets" : 4,
					"fontname" : "Arial",
					"cols" : 3,
					"outlettype" : [ "list", "", "", "" ],
					"rows" : 2,
					"patching_rect" : [ 336.0, 168.0, 388.0, 178.0 ],
					"fontsize" : 10.0,
					"id" : "obj-3",
					"coldef" : [ [ 0, 119, 1, 0.0, 0.0, 0.0, 1.0, 1, 0.0, 0.0, 0.0, 1.0, -1, -1, -1 ], [ 1, 116, 1, 0.0, 0.0, 0.0, 1.0, 1, 0.0, 0.0, 0.0, 1.0, -1, -1, -1 ], [ 2, 108, 1, 0.0, 0.0, 0.0, 1.0, 1, 0.0, 0.0, 0.0, 1.0, -1, -1, -1 ] ]
				}

			}
, 			{
				"box" : 				{
					"maxclass" : "comment",
					"text" : "a bank",
					"numinlets" : 1,
					"numoutlets" : 0,
					"fontname" : "Arial",
					"frgb" : [ 1.0, 0.894118, 0.894118, 1.0 ],
					"patching_rect" : [ 62.0, 19.0, 41.0, 18.0 ],
					"fontsize" : 10.0,
					"id" : "obj-41",
					"textcolor" : [ 1.0, 0.894118, 0.894118, 1.0 ]
				}

			}
, 			{
				"box" : 				{
					"maxclass" : "newobj",
					"text" : "print filetype",
					"numinlets" : 1,
					"numoutlets" : 0,
					"fontname" : "Arial",
					"patching_rect" : [ 135.0, 221.0, 64.0, 18.0 ],
					"fontsize" : 10.0,
					"id" : "obj-13"
				}

			}
, 			{
				"box" : 				{
					"maxclass" : "newobj",
					"text" : "print number_of_channels",
					"numinlets" : 1,
					"numoutlets" : 0,
					"fontname" : "Arial",
					"patching_rect" : [ 98.0, 242.0, 126.0, 18.0 ],
					"fontsize" : 10.0,
					"id" : "obj-12"
				}

			}
, 			{
				"box" : 				{
					"maxclass" : "newobj",
					"text" : "print length",
					"numinlets" : 1,
					"numoutlets" : 0,
					"fontname" : "Arial",
					"patching_rect" : [ 61.0, 263.0, 60.0, 18.0 ],
					"fontsize" : 10.0,
					"id" : "obj-11"
				}

			}
, 			{
				"box" : 				{
					"maxclass" : "newobj",
					"text" : "print tags",
					"numinlets" : 1,
					"numoutlets" : 0,
					"fontname" : "Arial",
					"patching_rect" : [ 384.0, 88.0, 52.0, 18.0 ],
					"fontsize" : 10.0,
					"id" : "obj-10"
				}

			}
, 			{
				"box" : 				{
					"maxclass" : "newobj",
					"text" : "route name len_ms numchan filetype bang",
					"numinlets" : 1,
					"numoutlets" : 6,
					"fontname" : "Arial",
					"outlettype" : [ "", "", "", "", "", "" ],
					"patching_rect" : [ 24.0, 76.0, 205.0, 18.0 ],
					"fontsize" : 10.0,
					"id" : "obj-9"
				}

			}
, 			{
				"box" : 				{
					"maxclass" : "newobj",
					"text" : "print name",
					"numinlets" : 1,
					"numoutlets" : 0,
					"fontname" : "Arial",
					"patching_rect" : [ 24.0, 284.0, 58.0, 18.0 ],
					"fontsize" : 10.0,
					"id" : "obj-7"
				}

			}
, 			{
				"box" : 				{
					"maxclass" : "message",
					"text" : "read",
					"numinlets" : 2,
					"numoutlets" : 1,
					"fontname" : "Arial",
					"outlettype" : [ "" ],
					"patching_rect" : [ 24.0, 20.0, 84.0, 16.0 ],
					"fontsize" : 10.0,
					"id" : "obj-4"
				}

			}
 ],
		"lines" : [ 			{
				"patchline" : 				{
					"source" : [ "obj-9", 4 ],
					"destination" : [ "obj-23", 0 ],
					"hidden" : 0,
					"midpoints" : [  ]
				}

			}
, 			{
				"patchline" : 				{
					"source" : [ "obj-9", 5 ],
					"destination" : [ "obj-10", 0 ],
					"hidden" : 0,
					"midpoints" : [  ]
				}

			}
, 			{
				"patchline" : 				{
					"source" : [ "obj-9", 3 ],
					"destination" : [ "obj-13", 0 ],
					"hidden" : 0,
					"midpoints" : [  ]
				}

			}
, 			{
				"patchline" : 				{
					"source" : [ "obj-9", 2 ],
					"destination" : [ "obj-12", 0 ],
					"hidden" : 0,
					"midpoints" : [  ]
				}

			}
, 			{
				"patchline" : 				{
					"source" : [ "obj-9", 1 ],
					"destination" : [ "obj-11", 0 ],
					"hidden" : 0,
					"midpoints" : [  ]
				}

			}
, 			{
				"patchline" : 				{
					"source" : [ "obj-9", 0 ],
					"destination" : [ "obj-7", 0 ],
					"hidden" : 0,
					"midpoints" : [  ]
				}

			}
, 			{
				"patchline" : 				{
					"source" : [ "obj-32", 0 ],
					"destination" : [ "obj-9", 0 ],
					"hidden" : 0,
					"midpoints" : [  ]
				}

			}
, 			{
				"patchline" : 				{
					"source" : [ "obj-4", 0 ],
					"destination" : [ "obj-32", 0 ],
					"hidden" : 0,
					"midpoints" : [  ]
				}

			}
, 			{
				"patchline" : 				{
					"source" : [ "obj-23", 0 ],
					"destination" : [ "obj-3", 0 ],
					"hidden" : 0,
					"midpoints" : [  ]
				}

			}
 ]
	}

}
