{
	"patcher" : 	{
		"fileversion" : 1,
		"rect" : [ 59.0, 44.0, 1160.0, 882.0 ],
		"bgcolor" : [ 0.941176, 0.941176, 0.941176, 1.0 ],
		"bglocked" : 0,
		"defrect" : [ 59.0, 44.0, 1160.0, 882.0 ],
		"openrect" : [ 0.0, 0.0, 0.0, 0.0 ],
		"openinpresentation" : 0,
		"default_fontsize" : 12.0,
		"default_fontface" : 0,
		"default_fontname" : "Arial",
		"gridonopen" : 0,
		"gridsize" : [ 15.0, 15.0 ],
		"gridsnaponopen" : 0,
		"toolbarvisible" : 1,
		"boxanimatetime" : 200,
		"imprint" : 0,
		"enablehscroll" : 1,
		"enablevscroll" : 1,
		"boxes" : [ 			{
				"box" : 				{
					"maxclass" : "newobj",
					"text" : "send pitchsets",
					"patching_rect" : [ 303.0, 714.0, 114.0, 23.0 ],
					"fontsize" : 14.0,
					"numinlets" : 1,
					"numoutlets" : 0,
					"color" : [ 0.156863, 0.8, 0.54902, 1.0 ],
					"id" : "obj-1",
					"fontname" : "Arial"
				}

			}
, 			{
				"box" : 				{
					"maxclass" : "newobj",
					"text" : "zl slice 24",
					"patching_rect" : [ 87.0, 260.0, 57.0, 17.0 ],
					"fontsize" : 9.0,
					"numinlets" : 2,
					"numoutlets" : 2,
					"outlettype" : [ "", "" ],
					"id" : "obj-2",
					"fontname" : "Arial"
				}

			}
, 			{
				"box" : 				{
					"maxclass" : "newobj",
					"text" : "bgcolor 240 240 240",
					"patching_rect" : [ 51.0, 97.0, 106.0, 17.0 ],
					"hidden" : 1,
					"fontsize" : 9.0,
					"numinlets" : 4,
					"numoutlets" : 0,
					"id" : "obj-3",
					"fontname" : "Arial"
				}

			}
, 			{
				"box" : 				{
					"maxclass" : "comment",
					"text" : "the current table:",
					"patching_rect" : [ 352.0, 757.0, 90.0, 17.0 ],
					"fontsize" : 9.0,
					"numinlets" : 1,
					"numoutlets" : 0,
					"id" : "obj-4",
					"fontname" : "Arial"
				}

			}
, 			{
				"box" : 				{
					"maxclass" : "message",
					"text" : "0 0 0 0 0 0 0 0 0 0 0 0 0 0 0 0 0 0 0 0 0 0 0 0 0 0 40 0 0 0 0 0 82 0 0 0 0 0 0 0 0 0 90 0 0 0 0 0 24 0 0 0 0 0 0 0 0 0 0 0 0 0 0 0 0 0 0 0 0 0 0 0 0 0 0 0 0 0 0 0 0 0 0 0 0 0 0 0 0 0 0 0 0 0 0 0 0 0 0 0 0 0 0 0 0 0 0 0",
					"linecount" : 2,
					"patching_rect" : [ 442.0, 748.0, 774.0, 25.0 ],
					"fontsize" : 9.0,
					"numinlets" : 2,
					"numoutlets" : 1,
					"outlettype" : [ "" ],
					"id" : "obj-5",
					"fontname" : "Arial"
				}

			}
, 			{
				"box" : 				{
					"maxclass" : "newobj",
					"text" : "prepend set",
					"patching_rect" : [ 442.0, 723.0, 62.0, 17.0 ],
					"fontsize" : 9.0,
					"numinlets" : 1,
					"numoutlets" : 1,
					"outlettype" : [ "" ],
					"id" : "obj-6",
					"fontname" : "Arial"
				}

			}
, 			{
				"box" : 				{
					"maxclass" : "comment",
					"text" : "coll saves at position 0, and increments existing indecies.",
					"linecount" : 3,
					"patching_rect" : [ 476.0, 656.0, 100.0, 38.0 ],
					"fontsize" : 9.0,
					"numinlets" : 1,
					"numoutlets" : 0,
					"id" : "obj-7",
					"fontname" : "Arial"
				}

			}
, 			{
				"box" : 				{
					"maxclass" : "newobj",
					"text" : "listfunnel",
					"patching_rect" : [ 480.0, 626.0, 52.0, 17.0 ],
					"fontsize" : 9.0,
					"numinlets" : 1,
					"numoutlets" : 1,
					"outlettype" : [ "list" ],
					"id" : "obj-8",
					"fontname" : "Arial"
				}

			}
, 			{
				"box" : 				{
					"maxclass" : "number",
					"patching_rect" : [ 441.0, 561.0, 35.0, 17.0 ],
					"bgcolor" : [ 0.866667, 0.866667, 0.866667, 1.0 ],
					"fontsize" : 9.0,
					"numinlets" : 1,
					"triscale" : 0.9,
					"numoutlets" : 2,
					"htextcolor" : [ 0.870588, 0.870588, 0.870588, 1.0 ],
					"outlettype" : [ "int", "bang" ],
					"id" : "obj-9",
					"fontname" : "Arial"
				}

			}
, 			{
				"box" : 				{
					"maxclass" : "button",
					"patching_rect" : [ 480.0, 519.0, 15.0, 15.0 ],
					"numinlets" : 1,
					"numoutlets" : 1,
					"outlettype" : [ "bang" ],
					"id" : "obj-10"
				}

			}
, 			{
				"box" : 				{
					"maxclass" : "newobj",
					"text" : "zl reg",
					"patching_rect" : [ 480.0, 541.0, 36.0, 17.0 ],
					"fontsize" : 9.0,
					"numinlets" : 2,
					"numoutlets" : 2,
					"outlettype" : [ "", "" ],
					"id" : "obj-11",
					"fontname" : "Arial"
				}

			}
, 			{
				"box" : 				{
					"maxclass" : "newobj",
					"text" : "prepend insert 0",
					"patching_rect" : [ 480.0, 572.0, 84.0, 17.0 ],
					"fontsize" : 9.0,
					"numinlets" : 1,
					"numoutlets" : 1,
					"outlettype" : [ "" ],
					"id" : "obj-12",
					"fontname" : "Arial"
				}

			}
, 			{
				"box" : 				{
					"maxclass" : "newobj",
					"text" : "coll",
					"patching_rect" : [ 480.0, 597.0, 53.0, 17.0 ],
					"fontsize" : 9.0,
					"numinlets" : 1,
					"numoutlets" : 4,
					"outlettype" : [ "", "", "", "" ],
					"id" : "obj-13",
					"fontname" : "Arial",
					"saved_object_attributes" : 					{
						"embed" : 0
					}

				}

			}
, 			{
				"box" : 				{
					"maxclass" : "message",
					"text" : "write",
					"patching_rect" : [ 811.0, 167.0, 35.0, 15.0 ],
					"fontsize" : 9.0,
					"numinlets" : 2,
					"numoutlets" : 1,
					"outlettype" : [ "" ],
					"id" : "obj-14",
					"fontname" : "Arial"
				}

			}
, 			{
				"box" : 				{
					"maxclass" : "multislider",
					"candicane4" : [ 0.439216, 0.619608, 0.070588, 1.0 ],
					"patching_rect" : [ 853.0, 44.0, 157.0, 29.0 ],
					"peakcolor" : [ 0.498039, 0.498039, 0.498039, 1.0 ],
					"candicane3" : [ 0.290196, 0.411765, 0.713726, 1.0 ],
					"candicane8" : [ 0.027451, 0.447059, 0.501961, 1.0 ],
					"candicane2" : [ 0.145098, 0.203922, 0.356863, 1.0 ],
					"numinlets" : 1,
					"orientation" : 0,
					"candicane7" : [ 0.878431, 0.243137, 0.145098, 1.0 ],
					"setminmax" : [ 1.0, 2.0 ],
					"numoutlets" : 2,
					"contdata" : 1,
					"candicane6" : [ 0.733333, 0.035294, 0.788235, 1.0 ],
					"outlettype" : [ "", "" ],
					"candicane5" : [ 0.584314, 0.827451, 0.431373, 1.0 ],
					"id" : "obj-15"
				}

			}
, 			{
				"box" : 				{
					"maxclass" : "bpatcher",
					"offset" : [ -22.0, -60.0 ],
					"patching_rect" : [ 853.0, 127.0, 207.0, 52.0 ],
					"name" : "pattrstorage-ui.maxpat",
					"numinlets" : 5,
					"numoutlets" : 1,
					"outlettype" : [ "" ],
					"id" : "obj-16",
					"lockeddragscroll" : 1,
					"args" : [  ]
				}

			}
, 			{
				"box" : 				{
					"maxclass" : "button",
					"patching_rect" : [ 847.0, 268.0, 15.0, 15.0 ],
					"hidden" : 1,
					"numinlets" : 1,
					"numoutlets" : 1,
					"outlettype" : [ "bang" ],
					"id" : "obj-17"
				}

			}
, 			{
				"box" : 				{
					"maxclass" : "button",
					"patching_rect" : [ 847.0, 390.0, 15.0, 15.0 ],
					"hidden" : 1,
					"numinlets" : 1,
					"numoutlets" : 1,
					"outlettype" : [ "bang" ],
					"id" : "obj-18"
				}

			}
, 			{
				"box" : 				{
					"maxclass" : "newobj",
					"text" : "p increment",
					"patching_rect" : [ 352.0, 461.0, 63.0, 17.0 ],
					"fontsize" : 9.0,
					"numinlets" : 2,
					"numoutlets" : 1,
					"outlettype" : [ "" ],
					"id" : "obj-19",
					"fontname" : "Arial",
					"patcher" : 					{
						"fileversion" : 1,
						"rect" : [ 835.0, 155.0, 600.0, 426.0 ],
						"bglocked" : 0,
						"defrect" : [ 835.0, 155.0, 600.0, 426.0 ],
						"openrect" : [ 0.0, 0.0, 0.0, 0.0 ],
						"openinpresentation" : 0,
						"default_fontsize" : 12.0,
						"default_fontface" : 0,
						"default_fontname" : "Arial",
						"gridonopen" : 0,
						"gridsize" : [ 15.0, 15.0 ],
						"gridsnaponopen" : 0,
						"toolbarvisible" : 1,
						"boxanimatetime" : 200,
						"imprint" : 0,
						"enablehscroll" : 1,
						"enablevscroll" : 1,
						"boxes" : [ 							{
								"box" : 								{
									"maxclass" : "newobj",
									"text" : "- 23",
									"patching_rect" : [ 43.0, 81.0, 30.0, 17.0 ],
									"fontsize" : 9.0,
									"numinlets" : 2,
									"numoutlets" : 1,
									"outlettype" : [ "int" ],
									"id" : "obj-1",
									"fontname" : "Arial"
								}

							}
, 							{
								"box" : 								{
									"maxclass" : "message",
									"text" : "select 1 66",
									"patching_rect" : [ 102.0, 179.0, 67.0, 15.0 ],
									"fontsize" : 9.0,
									"numinlets" : 2,
									"numoutlets" : 1,
									"outlettype" : [ "" ],
									"id" : "obj-2",
									"fontname" : "Arial"
								}

							}
, 							{
								"box" : 								{
									"maxclass" : "newobj",
									"text" : "+ 5",
									"patching_rect" : [ 183.0, 111.0, 27.0, 17.0 ],
									"fontsize" : 9.0,
									"numinlets" : 2,
									"numoutlets" : 1,
									"outlettype" : [ "int" ],
									"id" : "obj-3",
									"fontname" : "Arial"
								}

							}
, 							{
								"box" : 								{
									"maxclass" : "newobj",
									"text" : "t b b i",
									"patching_rect" : [ 171.0, 67.0, 40.0, 17.0 ],
									"fontsize" : 9.0,
									"numinlets" : 1,
									"numoutlets" : 3,
									"outlettype" : [ "bang", "bang", "int" ],
									"id" : "obj-4",
									"fontname" : "Arial"
								}

							}
, 							{
								"box" : 								{
									"maxclass" : "newobj",
									"text" : "sprintf set select %d %d",
									"patching_rect" : [ 104.0, 149.0, 122.0, 17.0 ],
									"fontsize" : 9.0,
									"numinlets" : 2,
									"numoutlets" : 1,
									"outlettype" : [ "" ],
									"id" : "obj-5",
									"fontname" : "Arial"
								}

							}
, 							{
								"box" : 								{
									"maxclass" : "message",
									"text" : "fetch $1",
									"patching_rect" : [ 38.0, 130.0, 48.0, 15.0 ],
									"fontsize" : 9.0,
									"numinlets" : 2,
									"numoutlets" : 1,
									"outlettype" : [ "" ],
									"id" : "obj-6",
									"fontname" : "Arial"
								}

							}
, 							{
								"box" : 								{
									"maxclass" : "outlet",
									"patching_rect" : [ 46.0, 201.0, 15.0, 15.0 ],
									"numinlets" : 1,
									"numoutlets" : 0,
									"id" : "obj-7",
									"comment" : ""
								}

							}
, 							{
								"box" : 								{
									"maxclass" : "inlet",
									"patching_rect" : [ 175.0, 31.0, 15.0, 15.0 ],
									"numinlets" : 0,
									"numoutlets" : 1,
									"outlettype" : [ "" ],
									"id" : "obj-8",
									"comment" : ""
								}

							}
, 							{
								"box" : 								{
									"maxclass" : "inlet",
									"patching_rect" : [ 42.0, 34.0, 15.0, 15.0 ],
									"numinlets" : 0,
									"numoutlets" : 1,
									"outlettype" : [ "int" ],
									"id" : "obj-9",
									"comment" : ""
								}

							}
 ],
						"lines" : [ 							{
								"patchline" : 								{
									"source" : [ "obj-3", 0 ],
									"destination" : [ "obj-5", 1 ],
									"hidden" : 0,
									"midpoints" : [  ]
								}

							}
, 							{
								"patchline" : 								{
									"source" : [ "obj-4", 2 ],
									"destination" : [ "obj-3", 0 ],
									"hidden" : 0,
									"midpoints" : [  ]
								}

							}
, 							{
								"patchline" : 								{
									"source" : [ "obj-8", 0 ],
									"destination" : [ "obj-4", 0 ],
									"hidden" : 0,
									"midpoints" : [  ]
								}

							}
, 							{
								"patchline" : 								{
									"source" : [ "obj-1", 0 ],
									"destination" : [ "obj-5", 0 ],
									"hidden" : 0,
									"midpoints" : [  ]
								}

							}
, 							{
								"patchline" : 								{
									"source" : [ "obj-4", 1 ],
									"destination" : [ "obj-5", 0 ],
									"hidden" : 0,
									"midpoints" : [  ]
								}

							}
, 							{
								"patchline" : 								{
									"source" : [ "obj-4", 0 ],
									"destination" : [ "obj-2", 0 ],
									"hidden" : 0,
									"midpoints" : [  ]
								}

							}
, 							{
								"patchline" : 								{
									"source" : [ "obj-5", 0 ],
									"destination" : [ "obj-2", 0 ],
									"hidden" : 0,
									"midpoints" : [  ]
								}

							}
, 							{
								"patchline" : 								{
									"source" : [ "obj-2", 0 ],
									"destination" : [ "obj-7", 0 ],
									"hidden" : 0,
									"midpoints" : [  ]
								}

							}
, 							{
								"patchline" : 								{
									"source" : [ "obj-6", 0 ],
									"destination" : [ "obj-7", 0 ],
									"hidden" : 0,
									"midpoints" : [  ]
								}

							}
, 							{
								"patchline" : 								{
									"source" : [ "obj-9", 0 ],
									"destination" : [ "obj-1", 0 ],
									"hidden" : 0,
									"midpoints" : [  ]
								}

							}
, 							{
								"patchline" : 								{
									"source" : [ "obj-1", 0 ],
									"destination" : [ "obj-6", 0 ],
									"hidden" : 0,
									"midpoints" : [  ]
								}

							}
 ]
					}
,
					"saved_object_attributes" : 					{
						"default_fontname" : "Arial",
						"globalpatchername" : "",
						"default_fontsize" : 12.0,
						"fontface" : 0,
						"fontsize" : 12.0,
						"default_fontface" : 0,
						"fontname" : "Arial"
					}

				}

			}
, 			{
				"box" : 				{
					"maxclass" : "comment",
					"text" : "Write",
					"patching_rect" : [ 1042.0, 82.0, 31.0, 17.0 ],
					"fontsize" : 9.0,
					"numinlets" : 1,
					"numoutlets" : 0,
					"id" : "obj-20",
					"fontname" : "Arial"
				}

			}
, 			{
				"box" : 				{
					"maxclass" : "comment",
					"text" : "Read",
					"patching_rect" : [ 995.0, 82.0, 31.0, 17.0 ],
					"fontsize" : 9.0,
					"numinlets" : 1,
					"numoutlets" : 0,
					"id" : "obj-21",
					"fontname" : "Arial"
				}

			}
, 			{
				"box" : 				{
					"maxclass" : "button",
					"patching_rect" : [ 1049.0, 99.0, 15.0, 15.0 ],
					"numinlets" : 1,
					"numoutlets" : 1,
					"outlettype" : [ "bang" ],
					"id" : "obj-22"
				}

			}
, 			{
				"box" : 				{
					"maxclass" : "button",
					"patching_rect" : [ 1000.0, 99.0, 15.0, 15.0 ],
					"numinlets" : 1,
					"numoutlets" : 1,
					"outlettype" : [ "bang" ],
					"id" : "obj-23"
				}

			}
, 			{
				"box" : 				{
					"maxclass" : "newobj",
					"varname" : "pitchprob",
					"text" : "pattrstorage pitchprob",
					"patching_rect" : [ 853.0, 201.0, 112.0, 17.0 ],
					"fontsize" : 9.0,
					"numinlets" : 1,
					"numoutlets" : 1,
					"outlettype" : [ "" ],
					"id" : "obj-24",
					"fontname" : "Arial",
					"saved_object_attributes" : 					{
						"storage_rect" : [ 20, 74, 793, 390 ],
						"client_rect" : [ 10, 59, 650, 299 ]
					}

				}

			}
, 			{
				"box" : 				{
					"maxclass" : "newobj",
					"varname" : "u755001018",
					"text" : "autopattr",
					"patching_rect" : [ 873.0, 179.0, 53.0, 17.0 ],
					"fontsize" : 9.0,
					"numinlets" : 1,
					"numoutlets" : 4,
					"outlettype" : [ "", "", "", "" ],
					"id" : "obj-25",
					"fontname" : "Arial",
					"restore" : 					{
						"pitchprob-slider" : [ 0, 0, 40, 0, 0, 0, 0, 0, 82, 0, 0, 0, 0, 0, 0, 0, 0, 0, 90, 0, 0, 0, 0, 0, 24, 0, 0, 0, 0, 0, 0, 0, 0, 0, 0, 0, 0, 0, 0, 0, 0, 0, 0, 0, 0, 0, 0, 0, 0, 0, 0, 0, 0, 0, 0, 0, 0, 0, 0, 0, 0, 0, 0, 0, 0, 0, 0, 0, 0, 0, 0, 0, 0, 0, 0, 0, 0, 0, 0, 0, 0, 0, 0, 0 ]
					}

				}

			}
, 			{
				"box" : 				{
					"maxclass" : "comment",
					"text" : "probability",
					"patching_rect" : [ 869.0, 317.0, 100.0, 27.0 ],
					"fontsize" : 18.0,
					"numinlets" : 1,
					"numoutlets" : 0,
					"id" : "obj-26",
					"fontname" : "Arial"
				}

			}
, 			{
				"box" : 				{
					"maxclass" : "newobj",
					"text" : "p list-offset",
					"patching_rect" : [ 251.0, 464.0, 65.0, 17.0 ],
					"fontsize" : 9.0,
					"numinlets" : 1,
					"numoutlets" : 2,
					"outlettype" : [ "list", "" ],
					"id" : "obj-27",
					"fontname" : "Arial",
					"patcher" : 					{
						"fileversion" : 1,
						"rect" : [ 687.0, 44.0, 587.0, 273.0 ],
						"bglocked" : 0,
						"defrect" : [ 687.0, 44.0, 587.0, 273.0 ],
						"openrect" : [ 0.0, 0.0, 0.0, 0.0 ],
						"openinpresentation" : 0,
						"default_fontsize" : 12.0,
						"default_fontface" : 0,
						"default_fontname" : "Arial",
						"gridonopen" : 0,
						"gridsize" : [ 15.0, 15.0 ],
						"gridsnaponopen" : 0,
						"toolbarvisible" : 1,
						"boxanimatetime" : 200,
						"imprint" : 0,
						"enablehscroll" : 1,
						"enablevscroll" : 1,
						"boxes" : [ 							{
								"box" : 								{
									"maxclass" : "outlet",
									"patching_rect" : [ 162.0, 203.0, 15.0, 15.0 ],
									"numinlets" : 1,
									"numoutlets" : 0,
									"id" : "obj-1",
									"comment" : ""
								}

							}
, 							{
								"box" : 								{
									"maxclass" : "newobj",
									"text" : "listfunnel",
									"patching_rect" : [ 70.0, 175.0, 52.0, 17.0 ],
									"fontsize" : 9.0,
									"numinlets" : 1,
									"numoutlets" : 1,
									"outlettype" : [ "list" ],
									"id" : "obj-2",
									"fontname" : "Arial"
								}

							}
, 							{
								"box" : 								{
									"maxclass" : "outlet",
									"patching_rect" : [ 70.0, 203.0, 15.0, 15.0 ],
									"numinlets" : 1,
									"numoutlets" : 0,
									"id" : "obj-3",
									"comment" : ""
								}

							}
, 							{
								"box" : 								{
									"maxclass" : "newobj",
									"text" : "t b l",
									"patching_rect" : [ 70.0, 67.0, 27.0, 17.0 ],
									"fontsize" : 9.0,
									"numinlets" : 1,
									"numoutlets" : 2,
									"outlettype" : [ "bang", "" ],
									"id" : "obj-4",
									"fontname" : "Arial"
								}

							}
, 							{
								"box" : 								{
									"maxclass" : "newobj",
									"text" : "zl join",
									"patching_rect" : [ 70.0, 146.0, 38.0, 17.0 ],
									"fontsize" : 9.0,
									"numinlets" : 2,
									"numoutlets" : 2,
									"outlettype" : [ "", "" ],
									"id" : "obj-5",
									"fontname" : "Arial"
								}

							}
, 							{
								"box" : 								{
									"maxclass" : "inlet",
									"patching_rect" : [ 70.0, 44.0, 15.0, 15.0 ],
									"numinlets" : 0,
									"numoutlets" : 1,
									"outlettype" : [ "" ],
									"id" : "obj-6",
									"comment" : ""
								}

							}
, 							{
								"box" : 								{
									"maxclass" : "message",
									"text" : "0 0 0 0 0 0 0 0 0 0 0 0 0 0 0 0 0 0 0 0 0 0 0 0",
									"patching_rect" : [ 70.0, 90.0, 223.0, 15.0 ],
									"fontsize" : 9.0,
									"numinlets" : 2,
									"numoutlets" : 1,
									"outlettype" : [ "" ],
									"id" : "obj-7",
									"fontname" : "Arial"
								}

							}
, 							{
								"box" : 								{
									"maxclass" : "comment",
									"text" : "This patch puts two octaves of zeros before the multislider's list. This is because the table represents all possible MIDI notes (0-128) but the keyboard and MIDI slider only represent 7 octaves (24-107).",
									"linecount" : 3,
									"patching_rect" : [ 192.0, 127.0, 320.0, 38.0 ],
									"fontsize" : 9.0,
									"numinlets" : 1,
									"numoutlets" : 0,
									"id" : "obj-8",
									"fontname" : "Arial"
								}

							}
 ],
						"lines" : [ 							{
								"patchline" : 								{
									"source" : [ "obj-5", 0 ],
									"destination" : [ "obj-1", 0 ],
									"hidden" : 0,
									"midpoints" : [ 79.5, 167.0, 171.0, 167.0 ]
								}

							}
, 							{
								"patchline" : 								{
									"source" : [ "obj-4", 1 ],
									"destination" : [ "obj-5", 1 ],
									"hidden" : 0,
									"midpoints" : [  ]
								}

							}
, 							{
								"patchline" : 								{
									"source" : [ "obj-2", 0 ],
									"destination" : [ "obj-3", 0 ],
									"hidden" : 0,
									"midpoints" : [  ]
								}

							}
, 							{
								"patchline" : 								{
									"source" : [ "obj-5", 0 ],
									"destination" : [ "obj-2", 0 ],
									"hidden" : 0,
									"midpoints" : [  ]
								}

							}
, 							{
								"patchline" : 								{
									"source" : [ "obj-7", 0 ],
									"destination" : [ "obj-5", 0 ],
									"hidden" : 0,
									"midpoints" : [  ]
								}

							}
, 							{
								"patchline" : 								{
									"source" : [ "obj-4", 0 ],
									"destination" : [ "obj-7", 0 ],
									"hidden" : 0,
									"midpoints" : [  ]
								}

							}
, 							{
								"patchline" : 								{
									"source" : [ "obj-6", 0 ],
									"destination" : [ "obj-4", 0 ],
									"hidden" : 0,
									"midpoints" : [  ]
								}

							}
 ]
					}
,
					"saved_object_attributes" : 					{
						"default_fontname" : "Arial",
						"globalpatchername" : "",
						"default_fontsize" : 12.0,
						"fontface" : 0,
						"fontsize" : 12.0,
						"default_fontface" : 0,
						"fontname" : "Arial"
					}

				}

			}
, 			{
				"box" : 				{
					"maxclass" : "multislider",
					"varname" : "pitchprob-slider",
					"candicane4" : [ 0.439216, 0.619608, 0.070588, 1.0 ],
					"settype" : 0,
					"candycane" : 12,
					"patching_rect" : [ 251.0, 283.0, 589.0, 107.0 ],
					"peakcolor" : [ 0.498039, 0.498039, 0.498039, 1.0 ],
					"candicane3" : [ 0.290196, 0.411765, 0.713726, 1.0 ],
					"candicane8" : [ 0.027451, 0.447059, 0.501961, 1.0 ],
					"candicane2" : [ 0.145098, 0.203922, 0.356863, 1.0 ],
					"numinlets" : 1,
					"spacing" : 1,
					"candicane7" : [ 0.878431, 0.243137, 0.145098, 1.0 ],
					"setminmax" : [ 0.0, 127.0 ],
					"numoutlets" : 2,
					"candicane6" : [ 0.733333, 0.035294, 0.788235, 1.0 ],
					"ghostbar" : 30,
					"outlettype" : [ "", "" ],
					"candicane5" : [ 0.584314, 0.827451, 0.431373, 1.0 ],
					"id" : "obj-28",
					"size" : 84
				}

			}
, 			{
				"box" : 				{
					"maxclass" : "bpatcher",
					"offset" : [ -18.0, -68.0 ],
					"patching_rect" : [ 50.0, 21.0, 511.0, 76.0 ],
					"name" : "banner.maxpat",
					"numinlets" : 0,
					"numoutlets" : 0,
					"id" : "obj-29",
					"lockeddragscroll" : 1,
					"args" : [ "Probability-pitch-sets", "select mdid notes based on probability table" ]
				}

			}
, 			{
				"box" : 				{
					"maxclass" : "bpatcher",
					"patching_rect" : [ 785.0, 506.0, 296.0, 95.0 ],
					"name" : "badge.maxpat",
					"numinlets" : 0,
					"numoutlets" : 0,
					"id" : "obj-30",
					"args" : [ "probability-pitch-sets", "0.4b", "CNMAT", "probability-pitch-sets", 6666 ]
				}

			}
, 			{
				"box" : 				{
					"maxclass" : "gain~",
					"patching_rect" : [ 56.0, 660.0, 26.0, 81.0 ],
					"bgcolor" : [ 1.0, 0.890196, 0.090196, 1.0 ],
					"numinlets" : 2,
					"orientation" : 2,
					"numoutlets" : 2,
					"stripecolor" : [ 0.66667, 0.66667, 0.66667, 1.0 ],
					"outlettype" : [ "signal", "int" ],
					"id" : "obj-31"
				}

			}
, 			{
				"box" : 				{
					"maxclass" : "message",
					"text" : "stop",
					"patching_rect" : [ 180.0, 734.0, 27.0, 15.0 ],
					"fontsize" : 9.0,
					"numinlets" : 2,
					"numoutlets" : 1,
					"outlettype" : [ "" ],
					"id" : "obj-32",
					"fontname" : "Arial"
				}

			}
, 			{
				"box" : 				{
					"maxclass" : "message",
					"text" : "startwindow",
					"patching_rect" : [ 109.0, 735.0, 65.0, 15.0 ],
					"fontsize" : 9.0,
					"numinlets" : 2,
					"numoutlets" : 1,
					"outlettype" : [ "" ],
					"id" : "obj-33",
					"fontname" : "Arial"
				}

			}
, 			{
				"box" : 				{
					"maxclass" : "comment",
					"text" : "• start audio",
					"patching_rect" : [ 118.0, 720.0, 69.0, 17.0 ],
					"fontsize" : 9.0,
					"textcolor" : [ 1.0, 1.0, 1.0, 1.0 ],
					"frgb" : [ 1.0, 1.0, 1.0, 1.0 ],
					"numinlets" : 1,
					"numoutlets" : 0,
					"id" : "obj-34",
					"fontname" : "Arial"
				}

			}
, 			{
				"box" : 				{
					"maxclass" : "newobj",
					"text" : "dac~",
					"patching_rect" : [ 55.0, 772.0, 41.0, 17.0 ],
					"fontsize" : 9.0,
					"numinlets" : 2,
					"numoutlets" : 0,
					"id" : "obj-35",
					"fontname" : "Arial"
				}

			}
, 			{
				"box" : 				{
					"maxclass" : "panel",
					"patching_rect" : [ 96.0, 714.0, 123.0, 43.0 ],
					"bgcolor" : [ 0.588235, 0.588235, 0.705882, 1.0 ],
					"rounded" : 0,
					"numinlets" : 1,
					"shadow" : -1,
					"numoutlets" : 0,
					"bordercolor" : [ 0.4, 0.4, 0.8, 1.0 ],
					"id" : "obj-36"
				}

			}
, 			{
				"box" : 				{
					"maxclass" : "message",
					"text" : ";\rmetro-on-off 1",
					"linecount" : 2,
					"patching_rect" : [ 606.0, 546.0, 139.0, 46.0 ],
					"fontsize" : 18.0,
					"numinlets" : 2,
					"numoutlets" : 1,
					"outlettype" : [ "" ],
					"id" : "obj-37",
					"fontname" : "Arial"
				}

			}
, 			{
				"box" : 				{
					"maxclass" : "message",
					"text" : ";\rmetro-on-off 0",
					"linecount" : 2,
					"patching_rect" : [ 610.0, 478.0, 139.0, 46.0 ],
					"fontsize" : 18.0,
					"numinlets" : 2,
					"numoutlets" : 1,
					"outlettype" : [ "" ],
					"id" : "obj-38",
					"fontname" : "Arial"
				}

			}
, 			{
				"box" : 				{
					"maxclass" : "newobj",
					"text" : "r metro-speed",
					"patching_rect" : [ 338.0, 538.0, 75.0, 17.0 ],
					"fontsize" : 9.0,
					"numinlets" : 0,
					"numoutlets" : 1,
					"outlettype" : [ "" ],
					"color" : [ 0.156863, 0.8, 0.54902, 1.0 ],
					"id" : "obj-39",
					"fontname" : "Arial"
				}

			}
, 			{
				"box" : 				{
					"maxclass" : "newobj",
					"text" : "r metro-on-off",
					"patching_rect" : [ 303.0, 518.0, 78.0, 17.0 ],
					"fontsize" : 9.0,
					"numinlets" : 0,
					"numoutlets" : 1,
					"outlettype" : [ "" ],
					"color" : [ 0.156863, 0.8, 0.54902, 1.0 ],
					"id" : "obj-40",
					"fontname" : "Arial"
				}

			}
, 			{
				"box" : 				{
					"maxclass" : "message",
					"text" : ";\rmax preempt 1;\rdsp takeover 1;\rdsp sigvs 2048;\rdsp iovs 2048;\rdsp sr 44100",
					"linecount" : 6,
					"patching_rect" : [ 817.0, 608.0, 83.0, 67.0 ],
					"fontsize" : 9.0,
					"numinlets" : 2,
					"numoutlets" : 1,
					"outlettype" : [ "" ],
					"id" : "obj-41",
					"fontname" : "Arial"
				}

			}
, 			{
				"box" : 				{
					"maxclass" : "message",
					"text" : ";\rmax preempt 0;\rdsp takeover 0;\rdsp sigvs 2048;\rdsp iovs 2048;\rdsp sr 44100",
					"linecount" : 6,
					"patching_rect" : [ 606.0, 608.0, 83.0, 67.0 ],
					"fontsize" : 9.0,
					"numinlets" : 2,
					"numoutlets" : 1,
					"outlettype" : [ "" ],
					"id" : "obj-42",
					"fontname" : "Arial"
				}

			}
, 			{
				"box" : 				{
					"maxclass" : "newobj",
					"text" : "loadbang",
					"patching_rect" : [ 967.0, 398.0, 48.0, 17.0 ],
					"fontsize" : 9.0,
					"numinlets" : 1,
					"numoutlets" : 1,
					"outlettype" : [ "bang" ],
					"id" : "obj-43",
					"fontname" : "Arial"
				}

			}
, 			{
				"box" : 				{
					"maxclass" : "message",
					"text" : ";\rmax preempt 1;\rdsp takeover 1;\rdsp sigvs 256;\rdsp iovs 256;\rdsp sr 44100",
					"linecount" : 6,
					"patching_rect" : [ 967.0, 428.0, 82.0, 67.0 ],
					"fontsize" : 9.0,
					"numinlets" : 2,
					"numoutlets" : 1,
					"outlettype" : [ "" ],
					"id" : "obj-44",
					"fontname" : "Arial"
				}

			}
, 			{
				"box" : 				{
					"maxclass" : "newobj",
					"text" : "route 0",
					"patching_rect" : [ 22.0, 539.0, 43.0, 17.0 ],
					"fontsize" : 9.0,
					"numinlets" : 1,
					"numoutlets" : 2,
					"outlettype" : [ "", "" ],
					"id" : "obj-45",
					"fontname" : "Arial"
				}

			}
, 			{
				"box" : 				{
					"maxclass" : "toggle",
					"patching_rect" : [ 303.0, 540.0, 15.0, 15.0 ],
					"numinlets" : 1,
					"numoutlets" : 1,
					"outlettype" : [ "int" ],
					"id" : "obj-46"
				}

			}
, 			{
				"box" : 				{
					"maxclass" : "button",
					"patching_rect" : [ 303.0, 590.0, 15.0, 15.0 ],
					"numinlets" : 1,
					"numoutlets" : 1,
					"outlettype" : [ "bang" ],
					"id" : "obj-47"
				}

			}
, 			{
				"box" : 				{
					"maxclass" : "newobj",
					"text" : "metro 200",
					"patching_rect" : [ 303.0, 568.0, 58.0, 17.0 ],
					"fontsize" : 9.0,
					"numinlets" : 2,
					"numoutlets" : 1,
					"outlettype" : [ "bang" ],
					"id" : "obj-48",
					"fontname" : "Arial"
				}

			}
, 			{
				"box" : 				{
					"maxclass" : "newobj",
					"text" : "table",
					"patching_rect" : [ 303.0, 680.0, 54.0, 27.0 ],
					"fontsize" : 18.0,
					"numinlets" : 2,
					"numoutlets" : 2,
					"outlettype" : [ "int", "bang" ],
					"id" : "obj-49",
					"fontname" : "Arial",
					"size" : 128,
					"table_data" : [ 0, 0, 0, 0, 0, 0, 0, 0, 0, 0, 0, 0, 0, 0, 0, 0, 0, 0, 0, 0, 0, 0, 0, 0, 0, 0, 0, 40, 0, 0, 0, 0, 0, 82, 0, 0, 0, 0, 0, 0, 0, 0, 0, 90, 0, 0, 0, 0, 0, 24, 0, 0, 0, 0, 0, 0, 0, 0, 0, 0, 0, 0, 0, 0, 0, 0, 0, 0, 0, 0, 0, 0, 0, 0, 0, 0, 0, 0, 0, 0, 0, 0, 0, 0, 0, 0, 0, 0, 0, 0, 0, 0, 0, 0, 0, 0, 0, 0, 0, 0, 0, 0, 0, 0, 0, 0, 0, 0, 0, 0, 0, 0, 0, 0, 0, 0, 0, 0, 0, 0, 0, 0, 0, 0, 0, 0, 0, 0, 0 ],
					"showeditor" : 0,
					"editor_rect" : [ 40.0, 55.0, 1195.0, 287.0 ],
					"saved_object_attributes" : 					{
						"notename" : 0,
						"range" : 128,
						"showeditor" : 0,
						"embed" : 1,
						"name" : "",
						"signed" : 0,
						"size" : 128
					}

				}

			}
, 			{
				"box" : 				{
					"maxclass" : "newobj",
					"text" : "p simplesynth",
					"patching_rect" : [ 55.0, 601.0, 70.0, 17.0 ],
					"fontsize" : 9.0,
					"numinlets" : 1,
					"numoutlets" : 1,
					"outlettype" : [ "signal" ],
					"id" : "obj-50",
					"fontname" : "Arial",
					"patcher" : 					{
						"fileversion" : 1,
						"rect" : [ 37.0, 44.0, 249.0, 336.0 ],
						"bglocked" : 0,
						"defrect" : [ 37.0, 44.0, 249.0, 336.0 ],
						"openrect" : [ 0.0, 0.0, 0.0, 0.0 ],
						"openinpresentation" : 0,
						"default_fontsize" : 12.0,
						"default_fontface" : 0,
						"default_fontname" : "Arial",
						"gridonopen" : 0,
						"gridsize" : [ 15.0, 15.0 ],
						"gridsnaponopen" : 0,
						"toolbarvisible" : 1,
						"boxanimatetime" : 200,
						"imprint" : 0,
						"enablehscroll" : 1,
						"enablevscroll" : 1,
						"boxes" : [ 							{
								"box" : 								{
									"maxclass" : "newobj",
									"text" : "t i b",
									"patching_rect" : [ 30.0, 78.0, 27.0, 17.0 ],
									"fontsize" : 9.0,
									"numinlets" : 1,
									"numoutlets" : 2,
									"outlettype" : [ "int", "bang" ],
									"id" : "obj-1",
									"fontname" : "Arial"
								}

							}
, 							{
								"box" : 								{
									"maxclass" : "message",
									"text" : "0, 0.8 50 0.8 50 0. 40",
									"patching_rect" : [ 108.0, 153.0, 113.0, 15.0 ],
									"fontsize" : 9.0,
									"numinlets" : 2,
									"numoutlets" : 1,
									"outlettype" : [ "" ],
									"id" : "obj-2",
									"fontname" : "Arial"
								}

							}
, 							{
								"box" : 								{
									"maxclass" : "newobj",
									"text" : "line~",
									"patching_rect" : [ 109.0, 179.0, 30.0, 17.0 ],
									"fontsize" : 9.0,
									"numinlets" : 2,
									"numoutlets" : 2,
									"outlettype" : [ "signal", "bang" ],
									"id" : "obj-3",
									"fontname" : "Arial"
								}

							}
, 							{
								"box" : 								{
									"maxclass" : "outlet",
									"patching_rect" : [ 30.0, 243.0, 15.0, 15.0 ],
									"numinlets" : 1,
									"numoutlets" : 0,
									"id" : "obj-4",
									"comment" : ""
								}

							}
, 							{
								"box" : 								{
									"maxclass" : "inlet",
									"patching_rect" : [ 30.0, 34.0, 15.0, 15.0 ],
									"numinlets" : 0,
									"numoutlets" : 1,
									"outlettype" : [ "int" ],
									"id" : "obj-5",
									"comment" : ""
								}

							}
, 							{
								"box" : 								{
									"maxclass" : "number",
									"patching_rect" : [ 30.0, 58.0, 35.0, 17.0 ],
									"bgcolor" : [ 0.866667, 0.866667, 0.866667, 1.0 ],
									"fontsize" : 9.0,
									"numinlets" : 1,
									"triscale" : 0.9,
									"numoutlets" : 2,
									"htextcolor" : [ 0.870588, 0.870588, 0.870588, 1.0 ],
									"outlettype" : [ "int", "bang" ],
									"id" : "obj-6",
									"fontname" : "Arial"
								}

							}
, 							{
								"box" : 								{
									"maxclass" : "newobj",
									"text" : "saw~",
									"patching_rect" : [ 30.0, 174.0, 34.0, 17.0 ],
									"fontsize" : 9.0,
									"numinlets" : 2,
									"numoutlets" : 1,
									"outlettype" : [ "signal" ],
									"id" : "obj-7",
									"fontname" : "Arial"
								}

							}
, 							{
								"box" : 								{
									"maxclass" : "newobj",
									"text" : "*~ 0.3",
									"patching_rect" : [ 30.0, 207.0, 39.0, 17.0 ],
									"fontsize" : 9.0,
									"numinlets" : 2,
									"numoutlets" : 1,
									"outlettype" : [ "signal" ],
									"id" : "obj-8",
									"fontname" : "Arial"
								}

							}
, 							{
								"box" : 								{
									"maxclass" : "newobj",
									"text" : "mtof",
									"patching_rect" : [ 30.0, 106.0, 29.0, 17.0 ],
									"fontsize" : 9.0,
									"numinlets" : 1,
									"numoutlets" : 1,
									"outlettype" : [ "" ],
									"id" : "obj-9",
									"fontname" : "Arial"
								}

							}
, 							{
								"box" : 								{
									"maxclass" : "flonum",
									"patching_rect" : [ 30.0, 129.0, 45.0, 17.0 ],
									"bgcolor" : [ 0.866667, 0.866667, 0.866667, 1.0 ],
									"fontsize" : 9.0,
									"numinlets" : 1,
									"triscale" : 0.9,
									"numoutlets" : 2,
									"htextcolor" : [ 0.870588, 0.870588, 0.870588, 1.0 ],
									"outlettype" : [ "float", "bang" ],
									"id" : "obj-10",
									"fontname" : "Arial"
								}

							}
 ],
						"lines" : [ 							{
								"patchline" : 								{
									"source" : [ "obj-2", 0 ],
									"destination" : [ "obj-3", 0 ],
									"hidden" : 0,
									"midpoints" : [  ]
								}

							}
, 							{
								"patchline" : 								{
									"source" : [ "obj-1", 1 ],
									"destination" : [ "obj-2", 0 ],
									"hidden" : 0,
									"midpoints" : [  ]
								}

							}
, 							{
								"patchline" : 								{
									"source" : [ "obj-3", 0 ],
									"destination" : [ "obj-8", 1 ],
									"hidden" : 0,
									"midpoints" : [  ]
								}

							}
, 							{
								"patchline" : 								{
									"source" : [ "obj-8", 0 ],
									"destination" : [ "obj-4", 0 ],
									"hidden" : 0,
									"midpoints" : [  ]
								}

							}
, 							{
								"patchline" : 								{
									"source" : [ "obj-7", 0 ],
									"destination" : [ "obj-8", 0 ],
									"hidden" : 0,
									"midpoints" : [  ]
								}

							}
, 							{
								"patchline" : 								{
									"source" : [ "obj-10", 0 ],
									"destination" : [ "obj-7", 0 ],
									"hidden" : 0,
									"midpoints" : [  ]
								}

							}
, 							{
								"patchline" : 								{
									"source" : [ "obj-9", 0 ],
									"destination" : [ "obj-10", 0 ],
									"hidden" : 0,
									"midpoints" : [  ]
								}

							}
, 							{
								"patchline" : 								{
									"source" : [ "obj-1", 0 ],
									"destination" : [ "obj-9", 0 ],
									"hidden" : 0,
									"midpoints" : [  ]
								}

							}
, 							{
								"patchline" : 								{
									"source" : [ "obj-6", 0 ],
									"destination" : [ "obj-1", 0 ],
									"hidden" : 0,
									"midpoints" : [  ]
								}

							}
, 							{
								"patchline" : 								{
									"source" : [ "obj-5", 0 ],
									"destination" : [ "obj-6", 0 ],
									"hidden" : 0,
									"midpoints" : [  ]
								}

							}
 ]
					}
,
					"saved_object_attributes" : 					{
						"default_fontname" : "Arial",
						"globalpatchername" : "",
						"default_fontsize" : 12.0,
						"fontface" : 0,
						"fontsize" : 12.0,
						"default_fontface" : 0,
						"fontname" : "Arial"
					}

				}

			}
, 			{
				"box" : 				{
					"maxclass" : "comment",
					"text" : "tables can be used to store midi note numbers in a sequence",
					"patching_rect" : [ 44.0, 139.0, 591.0, 27.0 ],
					"fontsize" : 18.0,
					"numinlets" : 1,
					"numoutlets" : 0,
					"id" : "obj-51",
					"fontname" : "Arial"
				}

			}
, 			{
				"box" : 				{
					"maxclass" : "message",
					"text" : "min",
					"patching_rect" : [ 291.0, 209.0, 40.0, 25.0 ],
					"fontsize" : 18.0,
					"numinlets" : 2,
					"numoutlets" : 1,
					"outlettype" : [ "" ],
					"id" : "obj-52",
					"fontname" : "Arial"
				}

			}
, 			{
				"box" : 				{
					"maxclass" : "number",
					"patching_rect" : [ 55.0, 569.0, 35.0, 17.0 ],
					"bgcolor" : [ 0.866667, 0.866667, 0.866667, 1.0 ],
					"fontsize" : 9.0,
					"numinlets" : 1,
					"triscale" : 0.9,
					"numoutlets" : 2,
					"htextcolor" : [ 0.870588, 0.870588, 0.870588, 1.0 ],
					"outlettype" : [ "int", "bang" ],
					"id" : "obj-53",
					"fontname" : "Arial"
				}

			}
, 			{
				"box" : 				{
					"maxclass" : "kslider",
					"offset" : 24,
					"range" : 84,
					"patching_rect" : [ 251.0, 390.0, 588.0, 54.0 ],
					"numinlets" : 2,
					"hkeycolor" : [ 0.501961, 0.501961, 0.501961, 1.0 ],
					"numoutlets" : 2,
					"presentation_rect" : [ 0.0, 0.0, 588.0, 54.0 ],
					"outlettype" : [ "int", "int" ],
					"id" : "obj-54"
				}

			}
, 			{
				"box" : 				{
					"maxclass" : "comment",
					"text" : "FIRST, hit clear and then play a few midi notes from the keyboard then take a look inside the table",
					"linecount" : 4,
					"patching_rect" : [ 46.0, 170.0, 169.0, 62.0 ],
					"fontsize" : 12.0,
					"numinlets" : 1,
					"numoutlets" : 0,
					"id" : "obj-55",
					"fontname" : "Arial"
				}

			}
, 			{
				"box" : 				{
					"maxclass" : "comment",
					"text" : "the message \"min\" clears the table",
					"linecount" : 2,
					"patching_rect" : [ 286.0, 183.0, 100.0, 27.0 ],
					"fontsize" : 9.0,
					"numinlets" : 1,
					"numoutlets" : 0,
					"id" : "obj-56",
					"fontname" : "Arial"
				}

			}
, 			{
				"box" : 				{
					"maxclass" : "comment",
					"text" : "notice how these DSP settings really upset the Max timing !!!",
					"linecount" : 4,
					"patching_rect" : [ 701.0, 608.0, 96.0, 48.0 ],
					"fontsize" : 9.0,
					"numinlets" : 1,
					"numoutlets" : 0,
					"id" : "obj-57",
					"fontname" : "Arial"
				}

			}
, 			{
				"box" : 				{
					"maxclass" : "comment",
					"text" : "|<--- pitch --->|",
					"patching_rect" : [ 441.0, 253.0, 261.0, 27.0 ],
					"fontsize" : 18.0,
					"numinlets" : 1,
					"numoutlets" : 0,
					"id" : "obj-58",
					"fontname" : "Arial"
				}

			}
, 			{
				"box" : 				{
					"maxclass" : "comment",
					"text" : "Save current table into coll",
					"linecount" : 2,
					"patching_rect" : [ 467.0, 490.0, 101.0, 27.0 ],
					"fontsize" : 9.0,
					"numinlets" : 1,
					"numoutlets" : 0,
					"id" : "obj-59",
					"fontname" : "Arial"
				}

			}
, 			{
				"box" : 				{
					"maxclass" : "comment",
					"text" : "pattr storage:",
					"patching_rect" : [ 706.0, 148.0, 100.0, 17.0 ],
					"fontsize" : 9.0,
					"numinlets" : 1,
					"numoutlets" : 0,
					"id" : "obj-60",
					"fontname" : "Arial"
				}

			}
 ],
		"lines" : [ 			{
				"patchline" : 				{
					"source" : [ "obj-22", 0 ],
					"destination" : [ "obj-16", 4 ],
					"hidden" : 0,
					"midpoints" : [  ]
				}

			}
, 			{
				"patchline" : 				{
					"source" : [ "obj-23", 0 ],
					"destination" : [ "obj-16", 3 ],
					"hidden" : 0,
					"midpoints" : [  ]
				}

			}
, 			{
				"patchline" : 				{
					"source" : [ "obj-43", 0 ],
					"destination" : [ "obj-44", 0 ],
					"hidden" : 0,
					"midpoints" : [  ]
				}

			}
, 			{
				"patchline" : 				{
					"source" : [ "obj-24", 0 ],
					"destination" : [ "obj-16", 1 ],
					"hidden" : 0,
					"midpoints" : [ 862.5, 228.0, 789.0, 228.0, 789.0, 83.0, 909.5, 83.0 ]
				}

			}
, 			{
				"patchline" : 				{
					"source" : [ "obj-16", 0 ],
					"destination" : [ "obj-24", 0 ],
					"hidden" : 0,
					"midpoints" : [  ]
				}

			}
, 			{
				"patchline" : 				{
					"source" : [ "obj-14", 0 ],
					"destination" : [ "obj-24", 0 ],
					"hidden" : 0,
					"midpoints" : [  ]
				}

			}
, 			{
				"patchline" : 				{
					"source" : [ "obj-15", 0 ],
					"destination" : [ "obj-16", 0 ],
					"hidden" : 0,
					"midpoints" : [  ]
				}

			}
, 			{
				"patchline" : 				{
					"source" : [ "obj-17", 0 ],
					"destination" : [ "obj-18", 0 ],
					"hidden" : 0,
					"midpoints" : [ 867.0, 283.0, 867.0, 389.0, 856.0, 389.0 ]
				}

			}
, 			{
				"patchline" : 				{
					"source" : [ "obj-27", 1 ],
					"destination" : [ "obj-11", 1 ],
					"hidden" : 0,
					"midpoints" : [  ]
				}

			}
, 			{
				"patchline" : 				{
					"source" : [ "obj-13", 0 ],
					"destination" : [ "obj-8", 0 ],
					"hidden" : 0,
					"midpoints" : [  ]
				}

			}
, 			{
				"patchline" : 				{
					"source" : [ "obj-12", 0 ],
					"destination" : [ "obj-13", 0 ],
					"hidden" : 0,
					"midpoints" : [  ]
				}

			}
, 			{
				"patchline" : 				{
					"source" : [ "obj-9", 0 ],
					"destination" : [ "obj-13", 0 ],
					"hidden" : 0,
					"midpoints" : [  ]
				}

			}
, 			{
				"patchline" : 				{
					"source" : [ "obj-11", 0 ],
					"destination" : [ "obj-12", 0 ],
					"hidden" : 0,
					"midpoints" : [  ]
				}

			}
, 			{
				"patchline" : 				{
					"source" : [ "obj-10", 0 ],
					"destination" : [ "obj-11", 0 ],
					"hidden" : 0,
					"midpoints" : [  ]
				}

			}
, 			{
				"patchline" : 				{
					"source" : [ "obj-6", 0 ],
					"destination" : [ "obj-5", 0 ],
					"hidden" : 0,
					"midpoints" : [  ]
				}

			}
, 			{
				"patchline" : 				{
					"source" : [ "obj-27", 1 ],
					"destination" : [ "obj-6", 0 ],
					"hidden" : 0,
					"midpoints" : [  ]
				}

			}
, 			{
				"patchline" : 				{
					"source" : [ "obj-28", 1 ],
					"destination" : [ "obj-19", 1 ],
					"hidden" : 0,
					"midpoints" : [ 864.0, 407.0, 853.0, 446.0 ]
				}

			}
, 			{
				"patchline" : 				{
					"source" : [ "obj-54", 0 ],
					"destination" : [ "obj-19", 0 ],
					"hidden" : 0,
					"midpoints" : [  ]
				}

			}
, 			{
				"patchline" : 				{
					"source" : [ "obj-39", 0 ],
					"destination" : [ "obj-48", 1 ],
					"hidden" : 0,
					"midpoints" : [  ]
				}

			}
, 			{
				"patchline" : 				{
					"source" : [ "obj-49", 0 ],
					"destination" : [ "obj-1", 0 ],
					"hidden" : 0,
					"midpoints" : [  ]
				}

			}
, 			{
				"patchline" : 				{
					"source" : [ "obj-47", 0 ],
					"destination" : [ "obj-49", 0 ],
					"hidden" : 0,
					"midpoints" : [  ]
				}

			}
, 			{
				"patchline" : 				{
					"source" : [ "obj-27", 0 ],
					"destination" : [ "obj-49", 0 ],
					"hidden" : 0,
					"midpoints" : [  ]
				}

			}
, 			{
				"patchline" : 				{
					"source" : [ "obj-8", 0 ],
					"destination" : [ "obj-49", 0 ],
					"hidden" : 0,
					"midpoints" : [  ]
				}

			}
, 			{
				"patchline" : 				{
					"source" : [ "obj-48", 0 ],
					"destination" : [ "obj-47", 0 ],
					"hidden" : 0,
					"midpoints" : [  ]
				}

			}
, 			{
				"patchline" : 				{
					"source" : [ "obj-46", 0 ],
					"destination" : [ "obj-48", 0 ],
					"hidden" : 0,
					"midpoints" : [  ]
				}

			}
, 			{
				"patchline" : 				{
					"source" : [ "obj-40", 0 ],
					"destination" : [ "obj-46", 0 ],
					"hidden" : 0,
					"midpoints" : [  ]
				}

			}
, 			{
				"patchline" : 				{
					"source" : [ "obj-28", 0 ],
					"destination" : [ "obj-27", 0 ],
					"hidden" : 0,
					"midpoints" : [ 235.0, 390.0, 235.0, 448.0 ]
				}

			}
, 			{
				"patchline" : 				{
					"source" : [ "obj-52", 0 ],
					"destination" : [ "obj-28", 0 ],
					"hidden" : 0,
					"midpoints" : [  ]
				}

			}
, 			{
				"patchline" : 				{
					"source" : [ "obj-19", 0 ],
					"destination" : [ "obj-28", 0 ],
					"hidden" : 0,
					"midpoints" : [ 361.5, 518.0, 155.0, 456.0, 235.0, 256.0 ]
				}

			}
, 			{
				"patchline" : 				{
					"source" : [ "obj-2", 1 ],
					"destination" : [ "obj-28", 0 ],
					"hidden" : 0,
					"midpoints" : [  ]
				}

			}
, 			{
				"patchline" : 				{
					"source" : [ "obj-13", 0 ],
					"destination" : [ "obj-2", 0 ],
					"hidden" : 0,
					"midpoints" : [ 385.0, 640.0, 122.0, 524.0, 14.0, 291.0, 63.0, 241.0 ]
				}

			}
, 			{
				"patchline" : 				{
					"source" : [ "obj-31", 0 ],
					"destination" : [ "obj-35", 1 ],
					"hidden" : 0,
					"midpoints" : [ 65.5, 763.0, 86.5, 763.0 ]
				}

			}
, 			{
				"patchline" : 				{
					"source" : [ "obj-31", 0 ],
					"destination" : [ "obj-35", 0 ],
					"hidden" : 0,
					"midpoints" : [  ]
				}

			}
, 			{
				"patchline" : 				{
					"source" : [ "obj-33", 0 ],
					"destination" : [ "obj-35", 0 ],
					"hidden" : 0,
					"midpoints" : [ 118.5, 763.0, 64.5, 763.0 ]
				}

			}
, 			{
				"patchline" : 				{
					"source" : [ "obj-32", 0 ],
					"destination" : [ "obj-35", 0 ],
					"hidden" : 0,
					"midpoints" : [ 189.5, 763.0, 64.5, 763.0 ]
				}

			}
, 			{
				"patchline" : 				{
					"source" : [ "obj-50", 0 ],
					"destination" : [ "obj-31", 0 ],
					"hidden" : 0,
					"midpoints" : [  ]
				}

			}
, 			{
				"patchline" : 				{
					"source" : [ "obj-53", 0 ],
					"destination" : [ "obj-50", 0 ],
					"hidden" : 0,
					"midpoints" : [  ]
				}

			}
, 			{
				"patchline" : 				{
					"source" : [ "obj-45", 1 ],
					"destination" : [ "obj-53", 0 ],
					"hidden" : 0,
					"midpoints" : [  ]
				}

			}
, 			{
				"patchline" : 				{
					"source" : [ "obj-54", 0 ],
					"destination" : [ "obj-53", 0 ],
					"hidden" : 1,
					"midpoints" : [  ]
				}

			}
, 			{
				"patchline" : 				{
					"source" : [ "obj-49", 0 ],
					"destination" : [ "obj-45", 0 ],
					"hidden" : 0,
					"midpoints" : [  ]
				}

			}
 ]
	}

}
