{
	"patcher" : 	{
		"fileversion" : 1,
		"rect" : [ 34.0, 169.0, 1054.0, 489.0 ],
		"bglocked" : 0,
		"defrect" : [ 34.0, 169.0, 1054.0, 489.0 ],
		"openrect" : [ 0.0, 0.0, 0.0, 0.0 ],
		"openinpresentation" : 1,
		"default_fontsize" : 11.0,
		"default_fontface" : 0,
		"default_fontname" : "Arial",
		"gridonopen" : 0,
		"gridsize" : [ 4.0, 4.0 ],
		"gridsnaponopen" : 0,
		"toolbarvisible" : 1,
		"boxanimatetime" : 200,
		"imprint" : 0,
		"enablehscroll" : 1,
		"enablevscroll" : 1,
		"boxes" : [ 			{
				"box" : 				{
					"maxclass" : "newobj",
					"text" : "prepend prefix",
					"id" : "obj-18",
					"fontname" : "Arial",
					"numinlets" : 1,
					"numoutlets" : 1,
					"outlettype" : [ "" ],
					"fontsize" : 11.0,
					"patching_rect" : [ 536.0, 332.0, 81.0, 19.0 ]
				}

			}
, 			{
				"box" : 				{
					"maxclass" : "umenu",
					"id" : "obj-13",
					"fontname" : "Arial",
					"numinlets" : 1,
					"numoutlets" : 3,
					"presentation_rect" : [ 316.0, 88.0, 127.0, 19.0 ],
					"outlettype" : [ "int", "", "" ],
					"fontsize" : 11.0,
					"autopopulate" : 1,
					"types" : [  ],
					"patching_rect" : [ 532.0, 36.0, 100.0, 19.0 ],
					"items" : [  ],
					"presentation" : 1
				}

			}
, 			{
				"box" : 				{
					"maxclass" : "newobj",
					"text" : "prepend write",
					"id" : "obj-31",
					"fontname" : "Arial",
					"numinlets" : 1,
					"numoutlets" : 1,
					"outlettype" : [ "" ],
					"fontsize" : 11.0,
					"patching_rect" : [ 448.0, 432.0, 77.0, 19.0 ]
				}

			}
, 			{
				"box" : 				{
					"maxclass" : "newobj",
					"text" : "print mapping_path:",
					"id" : "obj-9",
					"fontname" : "Arial",
					"numinlets" : 1,
					"numoutlets" : 0,
					"fontsize" : 11.0,
					"patching_rect" : [ 532.0, 424.0, 109.0, 19.0 ]
				}

			}
, 			{
				"box" : 				{
					"maxclass" : "message",
					"text" : "write",
					"id" : "obj-15",
					"fontname" : "Arial",
					"numinlets" : 2,
					"numoutlets" : 1,
					"outlettype" : [ "" ],
					"fontsize" : 11.0,
					"patching_rect" : [ 248.0, 108.0, 35.0, 17.0 ]
				}

			}
, 			{
				"box" : 				{
					"maxclass" : "newobj",
					"text" : "zl reg",
					"id" : "obj-8",
					"fontname" : "Arial",
					"numinlets" : 2,
					"numoutlets" : 2,
					"outlettype" : [ "", "" ],
					"fontsize" : 11.0,
					"patching_rect" : [ 448.0, 408.0, 37.0, 19.0 ]
				}

			}
, 			{
				"box" : 				{
					"maxclass" : "newobj",
					"text" : "sprintf %smappings/",
					"id" : "obj-30",
					"fontname" : "Arial",
					"numinlets" : 1,
					"numoutlets" : 1,
					"outlettype" : [ "" ],
					"fontsize" : 11.0,
					"patching_rect" : [ 492.0, 384.0, 110.0, 19.0 ]
				}

			}
, 			{
				"box" : 				{
					"maxclass" : "newobj",
					"text" : "loadmess path",
					"id" : "obj-10",
					"fontname" : "Arial",
					"numinlets" : 1,
					"numoutlets" : 1,
					"outlettype" : [ "" ],
					"fontsize" : 11.0,
					"patching_rect" : [ 452.0, 312.0, 82.0, 19.0 ]
				}

			}
, 			{
				"box" : 				{
					"maxclass" : "newobj",
					"text" : "thispatcher",
					"id" : "obj-11",
					"fontname" : "Arial",
					"numinlets" : 1,
					"numoutlets" : 2,
					"outlettype" : [ "", "" ],
					"fontsize" : 11.0,
					"patching_rect" : [ 452.0, 344.0, 64.0, 19.0 ],
					"save" : [ "#N", "thispatcher", ";", "#Q", "end", ";" ]
				}

			}
, 			{
				"box" : 				{
					"maxclass" : "newobj",
					"text" : "prepend read",
					"id" : "obj-7",
					"fontname" : "Arial",
					"numinlets" : 1,
					"numoutlets" : 1,
					"outlettype" : [ "" ],
					"fontsize" : 11.0,
					"patching_rect" : [ 152.0, 112.0, 76.0, 19.0 ]
				}

			}
, 			{
				"box" : 				{
					"maxclass" : "newobj",
					"text" : "osc-route /key-on /load",
					"id" : "obj-5",
					"fontname" : "Arial",
					"numinlets" : 1,
					"numoutlets" : 3,
					"outlettype" : [ "", "", "" ],
					"fontsize" : 11.0,
					"patching_rect" : [ 92.0, 52.0, 122.0, 19.0 ]
				}

			}
, 			{
				"box" : 				{
					"maxclass" : "newobj",
					"text" : "loadmess 127",
					"id" : "obj-17",
					"fontname" : "Arial",
					"numinlets" : 1,
					"numoutlets" : 1,
					"outlettype" : [ "" ],
					"fontsize" : 11.0,
					"patching_rect" : [ 756.0, 208.0, 79.0, 19.0 ]
				}

			}
, 			{
				"box" : 				{
					"maxclass" : "inlet",
					"id" : "obj-6",
					"numinlets" : 0,
					"numoutlets" : 1,
					"outlettype" : [ "" ],
					"patching_rect" : [ 92.0, 12.0, 25.0, 25.0 ],
					"comment" : ""
				}

			}
, 			{
				"box" : 				{
					"maxclass" : "outlet",
					"id" : "obj-19",
					"numinlets" : 1,
					"numoutlets" : 0,
					"patching_rect" : [ 192.0, 320.0, 25.0, 25.0 ],
					"comment" : ""
				}

			}
, 			{
				"box" : 				{
					"maxclass" : "message",
					"text" : "open",
					"id" : "obj-37",
					"fontname" : "Arial",
					"numinlets" : 2,
					"numoutlets" : 1,
					"outlettype" : [ "" ],
					"fontsize" : 11.0,
					"patching_rect" : [ 32.0, 88.0, 35.0, 17.0 ]
				}

			}
, 			{
				"box" : 				{
					"maxclass" : "button",
					"hint" : "open map",
					"id" : "obj-34",
					"numinlets" : 1,
					"numoutlets" : 1,
					"presentation_rect" : [ 284.0, 88.0, 20.0, 20.0 ],
					"outlettype" : [ "bang" ],
					"patching_rect" : [ 32.0, 64.0, 20.0, 20.0 ],
					"presentation" : 1
				}

			}
, 			{
				"box" : 				{
					"maxclass" : "newobj",
					"text" : "b 1",
					"id" : "obj-29",
					"fontname" : "Arial",
					"numinlets" : 1,
					"numoutlets" : 1,
					"outlettype" : [ "bang" ],
					"fontsize" : 11.0,
					"patching_rect" : [ 428.0, 84.0, 26.0, 19.0 ]
				}

			}
, 			{
				"box" : 				{
					"maxclass" : "newobj",
					"text" : "i",
					"id" : "obj-28",
					"fontname" : "Arial",
					"numinlets" : 2,
					"numoutlets" : 1,
					"outlettype" : [ "int" ],
					"fontsize" : 11.0,
					"patching_rect" : [ 464.0, 84.0, 32.5, 19.0 ]
				}

			}
, 			{
				"box" : 				{
					"maxclass" : "newobj",
					"text" : "sel 0",
					"id" : "obj-14",
					"fontname" : "Arial",
					"numinlets" : 2,
					"numoutlets" : 2,
					"outlettype" : [ "bang", "" ],
					"fontsize" : 11.0,
					"patching_rect" : [ 420.0, 60.0, 34.0, 19.0 ]
				}

			}
, 			{
				"box" : 				{
					"maxclass" : "newobj",
					"text" : "* 12",
					"id" : "obj-4",
					"fontname" : "Arial",
					"numinlets" : 2,
					"numoutlets" : 1,
					"outlettype" : [ "int" ],
					"fontsize" : 11.0,
					"patching_rect" : [ 464.0, 112.0, 32.5, 19.0 ]
				}

			}
, 			{
				"box" : 				{
					"maxclass" : "newobj",
					"text" : "+ 0",
					"id" : "obj-27",
					"fontname" : "Arial",
					"numinlets" : 2,
					"numoutlets" : 1,
					"outlettype" : [ "int" ],
					"fontsize" : 11.0,
					"patching_rect" : [ 88.0, 252.0, 32.5, 19.0 ]
				}

			}
, 			{
				"box" : 				{
					"maxclass" : "umenu",
					"id" : "obj-26",
					"fontname" : "Arial",
					"numinlets" : 1,
					"numoutlets" : 3,
					"presentation_rect" : [ 20.0, 88.0, 100.0, 19.0 ],
					"outlettype" : [ "int", "", "" ],
					"fontsize" : 11.0,
					"types" : [  ],
					"patching_rect" : [ 420.0, 36.0, 100.0, 19.0 ],
					"items" : [ "base", "octave", ",", 1, ",", 2, ",", 3, ",", -3, ",", -2, ",", -1 ],
					"presentation" : 1
				}

			}
, 			{
				"box" : 				{
					"maxclass" : "message",
					"text" : "58 127",
					"id" : "obj-25",
					"fontname" : "Arial",
					"numinlets" : 2,
					"numoutlets" : 1,
					"presentation_rect" : [ 228.0, 88.0, 53.0, 18.0 ],
					"outlettype" : [ "" ],
					"fontsize" : 12.014997,
					"patching_rect" : [ 96.0, 332.0, 61.0, 18.0 ],
					"presentation" : 1
				}

			}
, 			{
				"box" : 				{
					"maxclass" : "newobj",
					"text" : "pack i 127",
					"id" : "obj-24",
					"fontname" : "Arial",
					"numinlets" : 2,
					"numoutlets" : 1,
					"outlettype" : [ "" ],
					"fontsize" : 11.0,
					"patching_rect" : [ 192.0, 284.0, 61.0, 19.0 ]
				}

			}
, 			{
				"box" : 				{
					"maxclass" : "number",
					"id" : "obj-23",
					"fontname" : "Arial",
					"numinlets" : 1,
					"numoutlets" : 2,
					"presentation_rect" : [ 176.0, 88.0, 50.0, 19.0 ],
					"outlettype" : [ "int", "bang" ],
					"fontsize" : 11.0,
					"patching_rect" : [ 608.0, 260.0, 50.0, 19.0 ],
					"presentation" : 1
				}

			}
, 			{
				"box" : 				{
					"maxclass" : "slider",
					"id" : "obj-22",
					"numinlets" : 1,
					"numoutlets" : 1,
					"presentation_rect" : [ 448.0, 88.0, 197.0, 22.0 ],
					"outlettype" : [ "" ],
					"patching_rect" : [ 608.0, 232.0, 197.0, 22.0 ],
					"presentation" : 1
				}

			}
, 			{
				"box" : 				{
					"maxclass" : "message",
					"text" : "58",
					"id" : "obj-20",
					"fontname" : "Arial",
					"numinlets" : 2,
					"numoutlets" : 1,
					"outlettype" : [ "" ],
					"fontsize" : 11.0,
					"patching_rect" : [ 12.0, 180.0, 50.0, 17.0 ]
				}

			}
, 			{
				"box" : 				{
					"maxclass" : "newobj",
					"text" : "coll #1",
					"id" : "obj-16",
					"fontname" : "Arial",
					"numinlets" : 1,
					"numoutlets" : 4,
					"outlettype" : [ "", "", "", "" ],
					"fontsize" : 11.0,
					"patching_rect" : [ 92.0, 140.0, 160.5, 19.0 ],
					"saved_object_attributes" : 					{
						"embed" : 0
					}

				}

			}
, 			{
				"box" : 				{
					"maxclass" : "number",
					"id" : "obj-12",
					"fontname" : "Arial",
					"numinlets" : 1,
					"format" : 5,
					"numoutlets" : 2,
					"presentation_rect" : [ 124.0, 88.0, 50.0, 19.0 ],
					"outlettype" : [ "int", "bang" ],
					"fontsize" : 11.0,
					"patching_rect" : [ 88.0, 284.0, 50.0, 19.0 ],
					"presentation" : 1
				}

			}
, 			{
				"box" : 				{
					"maxclass" : "newobj",
					"text" : "gate",
					"id" : "obj-3",
					"fontname" : "Arial",
					"numinlets" : 2,
					"numoutlets" : 1,
					"outlettype" : [ "" ],
					"fontsize" : 11.0,
					"patching_rect" : [ 92.0, 116.0, 32.5, 19.0 ]
				}

			}
, 			{
				"box" : 				{
					"maxclass" : "kslider",
					"offset" : 21,
					"range" : 88,
					"id" : "obj-2",
					"numinlets" : 2,
					"numoutlets" : 2,
					"presentation_rect" : [ 20.0, 22.0, 624.0, 53.0 ],
					"outlettype" : [ "int", "int" ],
					"patching_rect" : [ 92.0, 168.0, 624.0, 53.0 ],
					"presentation" : 1
				}

			}
, 			{
				"box" : 				{
					"maxclass" : "newobj",
					"text" : "key",
					"id" : "obj-1",
					"fontname" : "Arial",
					"numinlets" : 0,
					"numoutlets" : 4,
					"outlettype" : [ "int", "int", "int", "int" ],
					"fontsize" : 11.0,
					"patching_rect" : [ 248.0, 40.0, 59.5, 19.0 ]
				}

			}
, 			{
				"box" : 				{
					"maxclass" : "panel",
					"bgcolor" : [ 0.713726, 0.784314, 0.435294, 1.0 ],
					"id" : "obj-38",
					"numinlets" : 1,
					"numoutlets" : 0,
					"presentation_rect" : [ 12.0, 16.0, 640.0, 64.0 ],
					"patching_rect" : [ 732.0, 32.0, 128.0, 128.0 ],
					"presentation" : 1,
					"rounded" : 0
				}

			}
, 			{
				"box" : 				{
					"maxclass" : "panel",
					"id" : "obj-32",
					"numinlets" : 1,
					"numoutlets" : 0,
					"presentation_rect" : [ 12.0, 8.0, 640.0, 108.0 ],
					"patching_rect" : [ 717.0, 17.0, 128.0, 128.0 ],
					"presentation" : 1,
					"rounded" : 20
				}

			}
 ],
		"lines" : [ 			{
				"patchline" : 				{
					"source" : [ "obj-13", 1 ],
					"destination" : [ "obj-7", 0 ],
					"hidden" : 0,
					"midpoints" : [  ]
				}

			}
, 			{
				"patchline" : 				{
					"source" : [ "obj-18", 0 ],
					"destination" : [ "obj-13", 0 ],
					"hidden" : 0,
					"midpoints" : [  ]
				}

			}
, 			{
				"patchline" : 				{
					"source" : [ "obj-30", 0 ],
					"destination" : [ "obj-18", 0 ],
					"hidden" : 0,
					"midpoints" : [  ]
				}

			}
, 			{
				"patchline" : 				{
					"source" : [ "obj-16", 0 ],
					"destination" : [ "obj-20", 1 ],
					"hidden" : 0,
					"midpoints" : [  ]
				}

			}
, 			{
				"patchline" : 				{
					"source" : [ "obj-16", 0 ],
					"destination" : [ "obj-2", 0 ],
					"hidden" : 0,
					"midpoints" : [  ]
				}

			}
, 			{
				"patchline" : 				{
					"source" : [ "obj-3", 0 ],
					"destination" : [ "obj-16", 0 ],
					"hidden" : 0,
					"midpoints" : [  ]
				}

			}
, 			{
				"patchline" : 				{
					"source" : [ "obj-37", 0 ],
					"destination" : [ "obj-16", 0 ],
					"hidden" : 0,
					"midpoints" : [  ]
				}

			}
, 			{
				"patchline" : 				{
					"source" : [ "obj-7", 0 ],
					"destination" : [ "obj-16", 0 ],
					"hidden" : 0,
					"midpoints" : [  ]
				}

			}
, 			{
				"patchline" : 				{
					"source" : [ "obj-5", 1 ],
					"destination" : [ "obj-7", 0 ],
					"hidden" : 0,
					"midpoints" : [  ]
				}

			}
, 			{
				"patchline" : 				{
					"source" : [ "obj-6", 0 ],
					"destination" : [ "obj-5", 0 ],
					"hidden" : 0,
					"midpoints" : [  ]
				}

			}
, 			{
				"patchline" : 				{
					"source" : [ "obj-5", 0 ],
					"destination" : [ "obj-3", 0 ],
					"hidden" : 0,
					"midpoints" : [  ]
				}

			}
, 			{
				"patchline" : 				{
					"source" : [ "obj-17", 0 ],
					"destination" : [ "obj-22", 0 ],
					"hidden" : 0,
					"midpoints" : [  ]
				}

			}
, 			{
				"patchline" : 				{
					"source" : [ "obj-34", 0 ],
					"destination" : [ "obj-37", 0 ],
					"hidden" : 0,
					"midpoints" : [  ]
				}

			}
, 			{
				"patchline" : 				{
					"source" : [ "obj-27", 0 ],
					"destination" : [ "obj-24", 0 ],
					"hidden" : 0,
					"midpoints" : [  ]
				}

			}
, 			{
				"patchline" : 				{
					"source" : [ "obj-29", 0 ],
					"destination" : [ "obj-28", 0 ],
					"hidden" : 0,
					"midpoints" : [  ]
				}

			}
, 			{
				"patchline" : 				{
					"source" : [ "obj-14", 1 ],
					"destination" : [ "obj-29", 0 ],
					"hidden" : 0,
					"midpoints" : [  ]
				}

			}
, 			{
				"patchline" : 				{
					"source" : [ "obj-2", 0 ],
					"destination" : [ "obj-27", 0 ],
					"hidden" : 0,
					"midpoints" : [  ]
				}

			}
, 			{
				"patchline" : 				{
					"source" : [ "obj-4", 0 ],
					"destination" : [ "obj-27", 1 ],
					"hidden" : 0,
					"midpoints" : [  ]
				}

			}
, 			{
				"patchline" : 				{
					"source" : [ "obj-28", 0 ],
					"destination" : [ "obj-4", 0 ],
					"hidden" : 0,
					"midpoints" : [  ]
				}

			}
, 			{
				"patchline" : 				{
					"source" : [ "obj-26", 1 ],
					"destination" : [ "obj-28", 1 ],
					"hidden" : 0,
					"midpoints" : [  ]
				}

			}
, 			{
				"patchline" : 				{
					"source" : [ "obj-26", 0 ],
					"destination" : [ "obj-14", 0 ],
					"hidden" : 0,
					"midpoints" : [  ]
				}

			}
, 			{
				"patchline" : 				{
					"source" : [ "obj-1", 0 ],
					"destination" : [ "obj-3", 1 ],
					"hidden" : 0,
					"midpoints" : [  ]
				}

			}
, 			{
				"patchline" : 				{
					"source" : [ "obj-22", 0 ],
					"destination" : [ "obj-23", 0 ],
					"hidden" : 0,
					"midpoints" : [  ]
				}

			}
, 			{
				"patchline" : 				{
					"source" : [ "obj-23", 0 ],
					"destination" : [ "obj-24", 1 ],
					"hidden" : 0,
					"midpoints" : [  ]
				}

			}
, 			{
				"patchline" : 				{
					"source" : [ "obj-24", 0 ],
					"destination" : [ "obj-25", 1 ],
					"hidden" : 0,
					"midpoints" : [  ]
				}

			}
, 			{
				"patchline" : 				{
					"source" : [ "obj-24", 0 ],
					"destination" : [ "obj-19", 0 ],
					"hidden" : 0,
					"midpoints" : [  ]
				}

			}
, 			{
				"patchline" : 				{
					"source" : [ "obj-27", 0 ],
					"destination" : [ "obj-12", 0 ],
					"hidden" : 0,
					"midpoints" : [  ]
				}

			}
, 			{
				"patchline" : 				{
					"source" : [ "obj-30", 0 ],
					"destination" : [ "obj-8", 1 ],
					"hidden" : 0,
					"midpoints" : [  ]
				}

			}
, 			{
				"patchline" : 				{
					"source" : [ "obj-11", 1 ],
					"destination" : [ "obj-30", 0 ],
					"hidden" : 0,
					"midpoints" : [  ]
				}

			}
, 			{
				"patchline" : 				{
					"source" : [ "obj-10", 0 ],
					"destination" : [ "obj-11", 0 ],
					"hidden" : 0,
					"midpoints" : [  ]
				}

			}
, 			{
				"patchline" : 				{
					"source" : [ "obj-30", 0 ],
					"destination" : [ "obj-9", 0 ],
					"hidden" : 0,
					"midpoints" : [  ]
				}

			}
, 			{
				"patchline" : 				{
					"source" : [ "obj-8", 0 ],
					"destination" : [ "obj-31", 0 ],
					"hidden" : 0,
					"midpoints" : [  ]
				}

			}
, 			{
				"patchline" : 				{
					"source" : [ "obj-31", 0 ],
					"destination" : [ "obj-16", 0 ],
					"hidden" : 0,
					"midpoints" : [  ]
				}

			}
 ]
	}

}
