{
	"patcher" : 	{
		"fileversion" : 1,
		"rect" : [ 25.0, 69.0, 640.0, 480.0 ],
		"bglocked" : 0,
		"defrect" : [ 25.0, 69.0, 640.0, 480.0 ],
		"openrect" : [ 0.0, 0.0, 0.0, 0.0 ],
		"openinpresentation" : 0,
		"default_fontsize" : 12.0,
		"default_fontface" : 0,
		"default_fontname" : "Arial",
		"gridonopen" : 0,
		"gridsize" : [ 4.0, 4.0 ],
		"gridsnaponopen" : 0,
		"toolbarvisible" : 1,
		"boxanimatetime" : 200,
		"imprint" : 0,
		"enablehscroll" : 1,
		"enablevscroll" : 1,
		"devicewidth" : 0.0,
		"boxes" : [ 			{
				"box" : 				{
					"maxclass" : "comment",
					"text" : "maccallum 2010",
					"patching_rect" : [ 276.0, 252.0, 150.0, 20.0 ],
					"frgb" : [ 0.0, 0.0, 0.0, 1.0 ],
					"id" : "obj-2",
					"fontname" : "Arial",
					"numinlets" : 1,
					"numoutlets" : 0,
					"fontsize" : 12.0
				}

			}
, 			{
				"box" : 				{
					"maxclass" : "comment",
					"text" : "generate a list of 0s",
					"patching_rect" : [ 276.0, 196.0, 150.0, 20.0 ],
					"frgb" : [ 0.0, 0.0, 0.0, 1.0 ],
					"id" : "obj-20",
					"fontname" : "Arial",
					"numinlets" : 1,
					"numoutlets" : 0,
					"fontsize" : 12.0
				}

			}
, 			{
				"box" : 				{
					"maxclass" : "button",
					"patching_rect" : [ 340.0, 68.0, 20.0, 20.0 ],
					"outlettype" : [ "bang" ],
					"id" : "obj-17",
					"numinlets" : 1,
					"numoutlets" : 1
				}

			}
, 			{
				"box" : 				{
					"maxclass" : "newobj",
					"text" : "zeros",
					"patching_rect" : [ 340.0, 108.0, 40.0, 20.0 ],
					"outlettype" : [ "" ],
					"id" : "obj-18",
					"fontname" : "Arial",
					"numinlets" : 2,
					"numoutlets" : 1,
					"fontsize" : 12.0
				}

			}
, 			{
				"box" : 				{
					"maxclass" : "newobj",
					"text" : "print ones",
					"patching_rect" : [ 88.0, 172.0, 63.0, 20.0 ],
					"id" : "obj-16",
					"fontname" : "Arial",
					"numinlets" : 1,
					"numoutlets" : 0,
					"fontsize" : 12.0
				}

			}
, 			{
				"box" : 				{
					"maxclass" : "button",
					"patching_rect" : [ 228.0, 68.0, 20.0, 20.0 ],
					"outlettype" : [ "bang" ],
					"id" : "obj-15",
					"numinlets" : 1,
					"numoutlets" : 1
				}

			}
, 			{
				"box" : 				{
					"maxclass" : "number",
					"patching_rect" : [ 248.0, 68.0, 50.0, 20.0 ],
					"outlettype" : [ "int", "bang" ],
					"id" : "obj-5",
					"fontname" : "Arial",
					"numinlets" : 1,
					"numoutlets" : 2,
					"fontsize" : 12.0
				}

			}
, 			{
				"box" : 				{
					"maxclass" : "newobj",
					"text" : "zeros",
					"patching_rect" : [ 228.0, 108.0, 40.0, 20.0 ],
					"outlettype" : [ "" ],
					"id" : "obj-6",
					"fontname" : "Arial",
					"numinlets" : 2,
					"numoutlets" : 1,
					"fontsize" : 12.0
				}

			}
, 			{
				"box" : 				{
					"maxclass" : "number",
					"patching_rect" : [ 88.0, 72.0, 50.0, 20.0 ],
					"outlettype" : [ "int", "bang" ],
					"id" : "obj-3",
					"fontname" : "Arial",
					"numinlets" : 1,
					"numoutlets" : 2,
					"fontsize" : 12.0
				}

			}
, 			{
				"box" : 				{
					"maxclass" : "newobj",
					"text" : "zeros",
					"patching_rect" : [ 88.0, 108.0, 40.0, 20.0 ],
					"outlettype" : [ "" ],
					"id" : "obj-1",
					"fontname" : "Arial",
					"numinlets" : 2,
					"numoutlets" : 1,
					"fontsize" : 12.0
				}

			}
 ],
		"lines" : [ 			{
				"patchline" : 				{
					"source" : [ "obj-17", 0 ],
					"destination" : [ "obj-18", 0 ],
					"hidden" : 0,
					"midpoints" : [  ]
				}

			}
, 			{
				"patchline" : 				{
					"source" : [ "obj-18", 0 ],
					"destination" : [ "obj-16", 0 ],
					"hidden" : 0,
					"midpoints" : [  ]
				}

			}
, 			{
				"patchline" : 				{
					"source" : [ "obj-5", 0 ],
					"destination" : [ "obj-6", 1 ],
					"hidden" : 0,
					"midpoints" : [  ]
				}

			}
, 			{
				"patchline" : 				{
					"source" : [ "obj-15", 0 ],
					"destination" : [ "obj-6", 0 ],
					"hidden" : 0,
					"midpoints" : [  ]
				}

			}
, 			{
				"patchline" : 				{
					"source" : [ "obj-6", 0 ],
					"destination" : [ "obj-16", 0 ],
					"hidden" : 0,
					"midpoints" : [  ]
				}

			}
, 			{
				"patchline" : 				{
					"source" : [ "obj-3", 0 ],
					"destination" : [ "obj-1", 0 ],
					"hidden" : 0,
					"midpoints" : [  ]
				}

			}
, 			{
				"patchline" : 				{
					"source" : [ "obj-1", 0 ],
					"destination" : [ "obj-16", 0 ],
					"hidden" : 0,
					"midpoints" : [  ]
				}

			}
 ]
	}

}
