{
	"patcher" : 	{
		"fileversion" : 1,
		"rect" : [ 131.0, 126.0, 1298.0, 739.0 ],
		"bglocked" : 0,
		"defrect" : [ 131.0, 126.0, 1298.0, 739.0 ],
		"openrect" : [ 0.0, 0.0, 0.0, 0.0 ],
		"openinpresentation" : 0,
		"default_fontsize" : 12.0,
		"default_fontface" : 0,
		"default_fontname" : "Arial",
		"gridonopen" : 0,
		"gridsize" : [ 15.0, 15.0 ],
		"gridsnaponopen" : 0,
		"toolbarvisible" : 1,
		"boxanimatetime" : 200,
		"imprint" : 0,
		"metadata" : [  ],
		"boxes" : [ 			{
				"box" : 				{
					"maxclass" : "flonum",
					"fontsize" : 9.0,
					"outlettype" : [ "float", "bang" ],
					"id" : "obj-83",
					"triscale" : 0.9,
					"bgcolor" : [ 0.866667, 0.866667, 0.866667, 1.0 ],
					"patching_rect" : [ 895.0, 651.0, 35.0, 17.0 ],
					"fontname" : "Arial",
					"numinlets" : 1,
					"htextcolor" : [ 0.870588, 0.870588, 0.870588, 1.0 ],
					"numoutlets" : 2
				}

			}
, 			{
				"box" : 				{
					"maxclass" : "newobj",
					"text" : "expr 60.* 1000./$f1",
					"fontsize" : 9.0,
					"outlettype" : [ "" ],
					"id" : "obj-84",
					"patching_rect" : [ 895.0, 616.0, 108.0, 17.0 ],
					"fontname" : "Arial",
					"numinlets" : 1,
					"numoutlets" : 1
				}

			}
, 			{
				"box" : 				{
					"maxclass" : "comment",
					"text" : "bpm",
					"fontsize" : 9.0,
					"id" : "obj-85",
					"patching_rect" : [ 932.0, 651.0, 100.0, 17.0 ],
					"fontname" : "Arial",
					"numinlets" : 1,
					"numoutlets" : 0
				}

			}
, 			{
				"box" : 				{
					"maxclass" : "waveform~",
					"fontsize" : 11.595187,
					"textcolor" : [  ],
					"setmode" : 1,
					"clipdraw" : 1,
					"outlettype" : [ "float", "float", "float", "float", "list", "" ],
					"ticks" : 8,
					"id" : "obj-68",
					"grid" : 500.0,
					"waveformcolor" : [ 0.062745, 0.0, 0.0, 1.0 ],
					"vlabels" : 1,
					"bgcolor" : [ 0.368627, 0.65098, 0.662745, 1.0 ],
					"patching_rect" : [ 451.0, 360.0, 419.0, 146.0 ],
					"selectioncolor" : [ 0.0, 0.0, 0.0, 0.5 ],
					"buffername" : "foo",
					"numinlets" : 5,
					"tickmarkcolor" : [ 0.423529, 0.423529, 0.423529, 1.0 ],
					"labelbgcolor" : [ 0.662745, 0.647059, 0.811765, 1.0 ],
					"numoutlets" : 6
				}

			}
, 			{
				"box" : 				{
					"maxclass" : "message",
					"text" : "set $1",
					"fontsize" : 11.595187,
					"outlettype" : [ "" ],
					"id" : "obj-43",
					"hidden" : 1,
					"patching_rect" : [ 691.0, 526.0, 40.0, 18.0 ],
					"fontname" : "Arial",
					"numinlets" : 2,
					"numoutlets" : 1
				}

			}
, 			{
				"box" : 				{
					"maxclass" : "message",
					"text" : "set $1",
					"fontsize" : 11.595187,
					"outlettype" : [ "" ],
					"id" : "obj-42",
					"hidden" : 1,
					"patching_rect" : [ 611.0, 526.0, 40.0, 18.0 ],
					"fontname" : "Arial",
					"numinlets" : 2,
					"numoutlets" : 1
				}

			}
, 			{
				"box" : 				{
					"maxclass" : "message",
					"text" : "set $1",
					"fontsize" : 11.595187,
					"outlettype" : [ "" ],
					"id" : "obj-41",
					"hidden" : 1,
					"patching_rect" : [ 531.0, 526.0, 40.0, 18.0 ],
					"fontname" : "Arial",
					"numinlets" : 2,
					"numoutlets" : 1
				}

			}
, 			{
				"box" : 				{
					"maxclass" : "message",
					"text" : "set $1",
					"fontsize" : 11.595187,
					"outlettype" : [ "" ],
					"id" : "obj-35",
					"hidden" : 1,
					"patching_rect" : [ 451.0, 526.0, 40.0, 18.0 ],
					"fontname" : "Arial",
					"numinlets" : 2,
					"numoutlets" : 1
				}

			}
, 			{
				"box" : 				{
					"maxclass" : "message",
					"text" : "stop",
					"fontsize" : 11.595187,
					"outlettype" : [ "" ],
					"id" : "obj-34",
					"patching_rect" : [ 255.0, 258.0, 30.0, 18.0 ],
					"fontname" : "Arial",
					"numinlets" : 2,
					"numoutlets" : 1
				}

			}
, 			{
				"box" : 				{
					"maxclass" : "toggle",
					"outlettype" : [ "int" ],
					"id" : "obj-25",
					"patching_rect" : [ 8.0, 291.0, 20.0, 20.0 ],
					"numinlets" : 1,
					"numoutlets" : 1
				}

			}
, 			{
				"box" : 				{
					"maxclass" : "message",
					"text" : "loopinterp $1",
					"fontsize" : 11.595187,
					"outlettype" : [ "" ],
					"id" : "obj-27",
					"patching_rect" : [ 8.0, 316.0, 78.0, 18.0 ],
					"fontname" : "Arial",
					"numinlets" : 2,
					"numoutlets" : 1
				}

			}
, 			{
				"box" : 				{
					"maxclass" : "comment",
					"text" : "turn interpolation at loop points on/off",
					"linecount" : 2,
					"fontsize" : 11.595187,
					"id" : "obj-28",
					"patching_rect" : [ 30.0, 282.0, 113.0, 33.0 ],
					"fontname" : "Arial",
					"numinlets" : 1,
					"numoutlets" : 0
				}

			}
, 			{
				"box" : 				{
					"maxclass" : "toggle",
					"outlettype" : [ "int" ],
					"id" : "obj-26",
					"patching_rect" : [ 257.0, 288.0, 20.0, 20.0 ],
					"numinlets" : 1,
					"numoutlets" : 1
				}

			}
, 			{
				"box" : 				{
					"maxclass" : "comment",
					"text" : "select all",
					"fontsize" : 11.595187,
					"id" : "obj-20",
					"patching_rect" : [ 850.0, 303.0, 54.0, 20.0 ],
					"fontname" : "Arial",
					"numinlets" : 1,
					"numoutlets" : 0
				}

			}
, 			{
				"box" : 				{
					"maxclass" : "message",
					"text" : "0 -1 0 -1",
					"fontsize" : 11.595187,
					"outlettype" : [ "" ],
					"id" : "obj-21",
					"patching_rect" : [ 851.0, 323.0, 52.0, 18.0 ],
					"fontname" : "Arial",
					"numinlets" : 2,
					"numoutlets" : 1
				}

			}
, 			{
				"box" : 				{
					"maxclass" : "comment",
					"text" : "select end ms",
					"fontsize" : 11.595187,
					"id" : "obj-52",
					"patching_rect" : [ 749.0, 303.0, 80.0, 20.0 ],
					"fontname" : "Arial",
					"numinlets" : 1,
					"numoutlets" : 0
				}

			}
, 			{
				"box" : 				{
					"maxclass" : "comment",
					"text" : "select start ms",
					"fontsize" : 11.595187,
					"id" : "obj-53",
					"patching_rect" : [ 650.0, 303.0, 83.0, 20.0 ],
					"fontname" : "Arial",
					"numinlets" : 1,
					"numoutlets" : 0
				}

			}
, 			{
				"box" : 				{
					"maxclass" : "comment",
					"text" : "display length ms",
					"fontsize" : 11.595187,
					"id" : "obj-54",
					"patching_rect" : [ 550.0, 303.0, 98.0, 20.0 ],
					"fontname" : "Arial",
					"numinlets" : 1,
					"numoutlets" : 0
				}

			}
, 			{
				"box" : 				{
					"maxclass" : "flonum",
					"fontsize" : 11.595187,
					"outlettype" : [ "float", "bang" ],
					"id" : "obj-55",
					"presentation_rect" : [ 15.0, 15.0, 50.0, 20.0 ],
					"triscale" : 0.9,
					"patching_rect" : [ 751.25, 323.0, 50.0, 20.0 ],
					"fontname" : "Arial",
					"numinlets" : 1,
					"htextcolor" : [ 0.870588, 0.870588, 0.870588, 1.0 ],
					"numoutlets" : 2
				}

			}
, 			{
				"box" : 				{
					"maxclass" : "flonum",
					"fontsize" : 11.595187,
					"outlettype" : [ "float", "bang" ],
					"id" : "obj-56",
					"presentation_rect" : [ 15.0, 15.0, 50.0, 20.0 ],
					"triscale" : 0.9,
					"patching_rect" : [ 650.5, 323.0, 50.0, 20.0 ],
					"fontname" : "Arial",
					"numinlets" : 1,
					"htextcolor" : [ 0.870588, 0.870588, 0.870588, 1.0 ],
					"numoutlets" : 2
				}

			}
, 			{
				"box" : 				{
					"maxclass" : "flonum",
					"fontsize" : 11.595187,
					"outlettype" : [ "float", "bang" ],
					"id" : "obj-57",
					"presentation_rect" : [ 15.0, 15.0, 50.0, 20.0 ],
					"triscale" : 0.9,
					"patching_rect" : [ 550.75, 323.0, 50.0, 20.0 ],
					"fontname" : "Arial",
					"numinlets" : 1,
					"htextcolor" : [ 0.870588, 0.870588, 0.870588, 1.0 ],
					"numoutlets" : 2
				}

			}
, 			{
				"box" : 				{
					"maxclass" : "flonum",
					"fontsize" : 11.595187,
					"outlettype" : [ "float", "bang" ],
					"id" : "obj-58",
					"presentation_rect" : [ 15.0, 15.0, 50.0, 20.0 ],
					"triscale" : 0.9,
					"patching_rect" : [ 451.0, 324.0, 50.0, 20.0 ],
					"fontname" : "Arial",
					"numinlets" : 1,
					"htextcolor" : [ 0.870588, 0.870588, 0.870588, 1.0 ],
					"numoutlets" : 2
				}

			}
, 			{
				"box" : 				{
					"maxclass" : "comment",
					"text" : "display start ms",
					"fontsize" : 11.595187,
					"id" : "obj-69",
					"patching_rect" : [ 451.0, 303.0, 89.0, 20.0 ],
					"fontname" : "Arial",
					"numinlets" : 1,
					"numoutlets" : 0
				}

			}
, 			{
				"box" : 				{
					"maxclass" : "newobj",
					"text" : "loadbang",
					"fontsize" : 12.0,
					"outlettype" : [ "bang" ],
					"id" : "obj-11",
					"patching_rect" : [ 341.0, 161.0, 60.0, 20.0 ],
					"fontname" : "Arial",
					"numinlets" : 1,
					"numoutlets" : 1
				}

			}
, 			{
				"box" : 				{
					"maxclass" : "button",
					"outlettype" : [ "bang" ],
					"id" : "obj-29",
					"patching_rect" : [ 317.0, 558.0, 20.0, 20.0 ],
					"numinlets" : 1,
					"numoutlets" : 1
				}

			}
, 			{
				"box" : 				{
					"maxclass" : "newobj",
					"text" : "float",
					"fontsize" : 11.595187,
					"outlettype" : [ "float" ],
					"id" : "obj-30",
					"patching_rect" : [ 317.0, 582.0, 42.5, 20.0 ],
					"fontname" : "Arial",
					"numinlets" : 2,
					"numoutlets" : 1
				}

			}
, 			{
				"box" : 				{
					"maxclass" : "comment",
					"text" : "normalize buffer~ (destructive edit)",
					"fontsize" : 11.595187,
					"id" : "obj-31",
					"patching_rect" : [ 394.0, 559.0, 189.0, 20.0 ],
					"fontname" : "Arial",
					"numinlets" : 1,
					"numoutlets" : 0
				}

			}
, 			{
				"box" : 				{
					"maxclass" : "flonum",
					"fontsize" : 11.595187,
					"outlettype" : [ "float", "bang" ],
					"id" : "obj-32",
					"presentation_rect" : [ 75.0, 75.0, 50.0, 20.0 ],
					"triscale" : 0.9,
					"patching_rect" : [ 341.0, 558.0, 50.0, 20.0 ],
					"fontname" : "Arial",
					"numinlets" : 1,
					"htextcolor" : [ 0.870588, 0.870588, 0.870588, 1.0 ],
					"numoutlets" : 2
				}

			}
, 			{
				"box" : 				{
					"maxclass" : "message",
					"text" : "normalize $1",
					"fontsize" : 11.595187,
					"outlettype" : [ "" ],
					"id" : "obj-33",
					"patching_rect" : [ 317.0, 606.0, 77.0, 18.0 ],
					"fontname" : "Arial",
					"numinlets" : 2,
					"numoutlets" : 1
				}

			}
, 			{
				"box" : 				{
					"maxclass" : "message",
					"text" : "1",
					"fontsize" : 12.0,
					"outlettype" : [ "" ],
					"id" : "obj-40",
					"patching_rect" : [ 341.0, 187.0, 32.5, 18.0 ],
					"fontname" : "Arial",
					"numinlets" : 2,
					"numoutlets" : 1
				}

			}
, 			{
				"box" : 				{
					"maxclass" : "comment",
					"text" : "clips sample values to window display in draw mode",
					"fontsize" : 11.595187,
					"id" : "obj-22",
					"patching_rect" : [ 527.0, 582.0, 278.0, 20.0 ],
					"fontname" : "Arial",
					"numinlets" : 1,
					"numoutlets" : 0
				}

			}
, 			{
				"box" : 				{
					"maxclass" : "toggle",
					"outlettype" : [ "int" ],
					"id" : "obj-23",
					"patching_rect" : [ 502.0, 581.0, 20.0, 20.0 ],
					"numinlets" : 1,
					"numoutlets" : 1
				}

			}
, 			{
				"box" : 				{
					"maxclass" : "message",
					"text" : "clipdraw $1",
					"fontsize" : 11.595187,
					"outlettype" : [ "" ],
					"id" : "obj-24",
					"patching_rect" : [ 502.0, 607.0, 69.0, 18.0 ],
					"fontname" : "Arial",
					"numinlets" : 2,
					"numoutlets" : 1
				}

			}
, 			{
				"box" : 				{
					"maxclass" : "message",
					"text" : "undo",
					"fontsize" : 12.0,
					"outlettype" : [ "" ],
					"id" : "obj-39",
					"patching_rect" : [ 458.0, 606.0, 37.0, 18.0 ],
					"fontname" : "Arial",
					"numinlets" : 2,
					"numoutlets" : 1
				}

			}
, 			{
				"box" : 				{
					"maxclass" : "message",
					"text" : "crop",
					"fontsize" : 12.0,
					"outlettype" : [ "" ],
					"id" : "obj-38",
					"patching_rect" : [ 419.0, 606.0, 34.0, 18.0 ],
					"fontname" : "Arial",
					"numinlets" : 2,
					"numoutlets" : 1
				}

			}
, 			{
				"box" : 				{
					"maxclass" : "comment",
					"text" : "Vol",
					"fontsize" : 12.0,
					"id" : "obj-37",
					"patching_rect" : [ 247.0, 418.0, 28.0, 20.0 ],
					"fontname" : "Arial",
					"numinlets" : 1,
					"numoutlets" : 0
				}

			}
, 			{
				"box" : 				{
					"maxclass" : "comment",
					"text" : "Pitch",
					"fontsize" : 12.0,
					"id" : "obj-36",
					"patching_rect" : [ 96.0, 232.0, 40.0, 20.0 ],
					"fontname" : "Arial",
					"numinlets" : 1,
					"numoutlets" : 0
				}

			}
, 			{
				"box" : 				{
					"maxclass" : "newobj",
					"text" : "p wfkeys",
					"fontsize" : 11.595187,
					"outlettype" : [ "" ],
					"id" : "obj-19",
					"hidden" : 1,
					"patching_rect" : [ 388.0, 322.0, 54.0, 20.0 ],
					"fontname" : "Arial",
					"numinlets" : 1,
					"numoutlets" : 1,
					"patcher" : 					{
						"fileversion" : 1,
						"rect" : [ 104.0, 214.0, 475.0, 520.0 ],
						"bglocked" : 0,
						"defrect" : [ 104.0, 214.0, 475.0, 520.0 ],
						"openrect" : [ 0.0, 0.0, 0.0, 0.0 ],
						"openinpresentation" : 0,
						"default_fontsize" : 10.0,
						"default_fontface" : 0,
						"default_fontname" : "Arial",
						"gridonopen" : 0,
						"gridsize" : [ 15.0, 15.0 ],
						"gridsnaponopen" : 0,
						"toolbarvisible" : 1,
						"boxanimatetime" : 200,
						"imprint" : 0,
						"metadata" : [  ],
						"boxes" : [ 							{
								"box" : 								{
									"maxclass" : "newobj",
									"text" : "|",
									"fontsize" : 11.595187,
									"outlettype" : [ "int" ],
									"id" : "obj-3",
									"patching_rect" : [ 81.0, 110.571426, 32.0, 20.0 ],
									"fontname" : "Arial",
									"numinlets" : 2,
									"numoutlets" : 1
								}

							}
, 							{
								"box" : 								{
									"maxclass" : "newobj",
									"text" : "int",
									"fontsize" : 11.595187,
									"outlettype" : [ "int" ],
									"id" : "obj-1",
									"patching_rect" : [ 81.0, 191.571426, 32.0, 20.0 ],
									"fontname" : "Arial",
									"numinlets" : 2,
									"numoutlets" : 1
								}

							}
, 							{
								"box" : 								{
									"maxclass" : "newobj",
									"text" : "coll",
									"fontsize" : 11.595187,
									"outlettype" : [ "", "", "", "" ],
									"id" : "obj-2",
									"patching_rect" : [ 112.0, 231.571426, 59.0, 20.0 ],
									"fontname" : "Arial",
									"numinlets" : 1,
									"numoutlets" : 4,
									"save" : [ "#N", "coll", ";", "#T", "flags", 1, 0, ";", "#T", 0, "mode", "select", ";", "#T", 1, "mode", "loop", ";", "#T", 2, "mode", "move", ";", "#T", 3, "mode", "draw", ";" ],
									"saved_object_attributes" : 									{
										"embed" : 1
									}

								}

							}
, 							{
								"box" : 								{
									"maxclass" : "inlet",
									"outlettype" : [ "int" ],
									"id" : "obj-4",
									"patching_rect" : [ 18.0, 142.0, 25.0, 25.0 ],
									"numinlets" : 0,
									"numoutlets" : 1,
									"comment" : "waveform~ mode messages"
								}

							}
, 							{
								"box" : 								{
									"maxclass" : "newobj",
									"text" : "<< 1",
									"fontsize" : 11.595187,
									"outlettype" : [ "int" ],
									"id" : "obj-5",
									"patching_rect" : [ 96.0, 56.571426, 34.0, 20.0 ],
									"fontname" : "Arial",
									"numinlets" : 2,
									"numoutlets" : 1
								}

							}
, 							{
								"box" : 								{
									"maxclass" : "newobj",
									"text" : "change",
									"fontsize" : 11.595187,
									"outlettype" : [ "", "int", "int" ],
									"id" : "obj-6",
									"patching_rect" : [ 81.0, 137.571426, 49.0, 20.0 ],
									"fontname" : "Arial",
									"numinlets" : 1,
									"numoutlets" : 3
								}

							}
, 							{
								"box" : 								{
									"maxclass" : "newobj",
									"text" : "select 0",
									"fontsize" : 11.595187,
									"outlettype" : [ "bang", "" ],
									"id" : "obj-7",
									"patching_rect" : [ 81.0, 164.571426, 50.0, 20.0 ],
									"fontname" : "Arial",
									"numinlets" : 2,
									"numoutlets" : 2
								}

							}
, 							{
								"box" : 								{
									"maxclass" : "newobj",
									"text" : "pak",
									"fontsize" : 11.595187,
									"outlettype" : [ "" ],
									"id" : "obj-8",
									"patching_rect" : [ 81.0, 83.571426, 34.0, 20.0 ],
									"fontname" : "Arial",
									"numinlets" : 2,
									"numoutlets" : 1
								}

							}
, 							{
								"box" : 								{
									"maxclass" : "outlet",
									"id" : "obj-9",
									"patching_rect" : [ 112.0, 264.0, 25.0, 25.0 ],
									"numinlets" : 1,
									"numoutlets" : 0,
									"comment" : ""
								}

							}
, 							{
								"box" : 								{
									"maxclass" : "newobj",
									"text" : "modifiers 100",
									"fontsize" : 11.595187,
									"outlettype" : [ "int", "int", "int", "int", "int" ],
									"id" : "obj-10",
									"patching_rect" : [ 35.0, 29.0, 80.0, 20.0 ],
									"fontname" : "Arial",
									"numinlets" : 1,
									"numoutlets" : 5
								}

							}
 ],
						"lines" : [ 							{
								"patchline" : 								{
									"source" : [ "obj-6", 0 ],
									"destination" : [ "obj-7", 0 ],
									"hidden" : 0,
									"midpoints" : [  ]
								}

							}
, 							{
								"patchline" : 								{
									"source" : [ "obj-4", 0 ],
									"destination" : [ "obj-1", 0 ],
									"hidden" : 0,
									"midpoints" : [  ]
								}

							}
, 							{
								"patchline" : 								{
									"source" : [ "obj-7", 0 ],
									"destination" : [ "obj-1", 0 ],
									"hidden" : 0,
									"midpoints" : [  ]
								}

							}
, 							{
								"patchline" : 								{
									"source" : [ "obj-10", 4 ],
									"destination" : [ "obj-5", 0 ],
									"hidden" : 0,
									"midpoints" : [  ]
								}

							}
, 							{
								"patchline" : 								{
									"source" : [ "obj-7", 1 ],
									"destination" : [ "obj-2", 0 ],
									"hidden" : 0,
									"midpoints" : [  ]
								}

							}
, 							{
								"patchline" : 								{
									"source" : [ "obj-1", 0 ],
									"destination" : [ "obj-2", 0 ],
									"hidden" : 0,
									"midpoints" : [  ]
								}

							}
, 							{
								"patchline" : 								{
									"source" : [ "obj-2", 0 ],
									"destination" : [ "obj-9", 0 ],
									"hidden" : 0,
									"midpoints" : [  ]
								}

							}
, 							{
								"patchline" : 								{
									"source" : [ "obj-5", 0 ],
									"destination" : [ "obj-8", 1 ],
									"hidden" : 0,
									"midpoints" : [  ]
								}

							}
, 							{
								"patchline" : 								{
									"source" : [ "obj-10", 3 ],
									"destination" : [ "obj-8", 0 ],
									"hidden" : 0,
									"midpoints" : [  ]
								}

							}
, 							{
								"patchline" : 								{
									"source" : [ "obj-8", 0 ],
									"destination" : [ "obj-3", 0 ],
									"hidden" : 0,
									"midpoints" : [  ]
								}

							}
, 							{
								"patchline" : 								{
									"source" : [ "obj-3", 0 ],
									"destination" : [ "obj-6", 0 ],
									"hidden" : 0,
									"midpoints" : [  ]
								}

							}
 ]
					}
,
					"saved_object_attributes" : 					{
						"fontface" : 0,
						"fontsize" : 10.0,
						"default_fontname" : "Arial",
						"default_fontsize" : 10.0,
						"globalpatchername" : "",
						"fontname" : "Arial",
						"default_fontface" : 0
					}

				}

			}
, 			{
				"box" : 				{
					"maxclass" : "pictslider",
					"outlettype" : [ "int", "int" ],
					"bkgndpict" : "wfmodes.pct",
					"id" : "obj-18",
					"bottomvalue" : 3,
					"rightvalue" : 0,
					"patching_rect" : [ 390.0, 238.0, 19.0, 76.0 ],
					"inactiveimage" : 0,
					"numinlets" : 2,
					"imagemask" : 1,
					"knobpict" : "wfknob.pct",
					"numoutlets" : 2,
					"topvalue" : 0,
					"movehorizontal" : 0
				}

			}
, 			{
				"box" : 				{
					"maxclass" : "flonum",
					"fontsize" : 11.595187,
					"outlettype" : [ "float", "bang" ],
					"id" : "obj-59",
					"presentation_rect" : [ 60.0, 60.0, 50.0, 20.0 ],
					"triscale" : 0.9,
					"patching_rect" : [ 141.0, 232.0, 50.0, 20.0 ],
					"fontname" : "Arial",
					"numinlets" : 1,
					"htextcolor" : [ 0.870588, 0.870588, 0.870588, 1.0 ],
					"numoutlets" : 2
				}

			}
, 			{
				"box" : 				{
					"maxclass" : "flonum",
					"fontsize" : 11.595187,
					"outlettype" : [ "float", "bang" ],
					"id" : "obj-12",
					"patching_rect" : [ 194.0, 418.0, 50.0, 20.0 ],
					"fontname" : "Arial",
					"numinlets" : 1,
					"numoutlets" : 2
				}

			}
, 			{
				"box" : 				{
					"maxclass" : "ezdac~",
					"varname" : "autohelp_dac",
					"id" : "obj-13",
					"patching_rect" : [ 139.0, 482.0, 45.0, 45.0 ],
					"numinlets" : 2,
					"local" : 1,
					"numoutlets" : 0
				}

			}
, 			{
				"box" : 				{
					"maxclass" : "newobj",
					"text" : "*~ 0.2",
					"fontsize" : 11.595187,
					"outlettype" : [ "signal" ],
					"id" : "obj-14",
					"patching_rect" : [ 139.0, 446.0, 74.0, 20.0 ],
					"fontname" : "Arial",
					"numinlets" : 2,
					"numoutlets" : 1
				}

			}
, 			{
				"box" : 				{
					"maxclass" : "comment",
					"varname" : "autohelp_dac_text",
					"text" : "start audio",
					"linecount" : 2,
					"fontsize" : 11.595187,
					"id" : "obj-15",
					"patching_rect" : [ 98.0, 488.0, 38.0, 33.0 ],
					"fontname" : "Arial",
					"numinlets" : 1,
					"numoutlets" : 0
				}

			}
, 			{
				"box" : 				{
					"maxclass" : "panel",
					"varname" : "startwinwdow_panel",
					"id" : "obj-17",
					"bordercolor" : [ 0.392157, 0.792157, 0.117647, 1.0 ],
					"bgcolor" : [ 1.0, 1.0, 1.0, 1.0 ],
					"patching_rect" : [ 91.0, 477.0, 100.0, 55.0 ],
					"border" : 2,
					"numinlets" : 1,
					"numoutlets" : 0
				}

			}
, 			{
				"box" : 				{
					"maxclass" : "message",
					"text" : "loop 1",
					"fontsize" : 11.595187,
					"outlettype" : [ "" ],
					"id" : "obj-61",
					"patching_rect" : [ 257.0, 313.0, 40.0, 18.0 ],
					"fontname" : "Arial",
					"numinlets" : 2,
					"numoutlets" : 1
				}

			}
, 			{
				"box" : 				{
					"maxclass" : "message",
					"text" : "startloop",
					"fontsize" : 11.595187,
					"outlettype" : [ "" ],
					"id" : "obj-62",
					"patching_rect" : [ 199.0, 259.0, 53.0, 18.0 ],
					"fontname" : "Arial",
					"numinlets" : 2,
					"numoutlets" : 1
				}

			}
, 			{
				"box" : 				{
					"maxclass" : "newobj",
					"text" : "sig~ 1",
					"fontsize" : 11.595187,
					"outlettype" : [ "signal" ],
					"id" : "obj-63",
					"patching_rect" : [ 141.0, 259.0, 40.0, 20.0 ],
					"fontname" : "Arial",
					"numinlets" : 1,
					"numoutlets" : 1
				}

			}
, 			{
				"box" : 				{
					"maxclass" : "newobj",
					"text" : "groove~ foo",
					"fontsize" : 11.595187,
					"outlettype" : [ "signal", "signal" ],
					"id" : "obj-64",
					"patching_rect" : [ 139.0, 393.0, 70.0, 20.0 ],
					"fontname" : "Arial",
					"numinlets" : 3,
					"numoutlets" : 2
				}

			}
, 			{
				"box" : 				{
					"maxclass" : "message",
					"text" : "import 0 -1 1",
					"fontsize" : 11.595187,
					"outlettype" : [ "" ],
					"id" : "obj-16",
					"patching_rect" : [ 424.0, 197.333344, 74.0, 18.0 ],
					"fontname" : "Arial",
					"numinlets" : 2,
					"numoutlets" : 1
				}

			}
, 			{
				"box" : 				{
					"maxclass" : "message",
					"text" : "set foo 1",
					"fontsize" : 12.0,
					"outlettype" : [ "" ],
					"id" : "obj-10",
					"patching_rect" : [ 424.0, 245.0, 57.0, 18.0 ],
					"fontname" : "Arial",
					"numinlets" : 2,
					"numoutlets" : 1
				}

			}
, 			{
				"box" : 				{
					"maxclass" : "newobj",
					"text" : "buffer~ foo 1000",
					"fontsize" : 11.595187,
					"outlettype" : [ "float", "bang" ],
					"id" : "obj-66",
					"patching_rect" : [ 424.0, 220.333344, 93.0, 20.0 ],
					"fontname" : "Arial",
					"numinlets" : 1,
					"numoutlets" : 2
				}

			}
, 			{
				"box" : 				{
					"maxclass" : "button",
					"outlettype" : [ "bang" ],
					"id" : "obj-5",
					"patching_rect" : [ 634.0, 26.0, 91.0, 91.0 ],
					"numinlets" : 1,
					"numoutlets" : 1
				}

			}
, 			{
				"box" : 				{
					"maxclass" : "button",
					"outlettype" : [ "bang" ],
					"id" : "obj-6",
					"patching_rect" : [ 727.0, 26.0, 91.0, 91.0 ],
					"numinlets" : 1,
					"numoutlets" : 1
				}

			}
, 			{
				"box" : 				{
					"maxclass" : "button",
					"outlettype" : [ "bang" ],
					"id" : "obj-7",
					"patching_rect" : [ 541.0, 26.0, 91.0, 91.0 ],
					"numinlets" : 1,
					"numoutlets" : 1
				}

			}
, 			{
				"box" : 				{
					"maxclass" : "button",
					"outlettype" : [ "bang" ],
					"id" : "obj-8",
					"patching_rect" : [ 448.0, 26.0, 91.0, 91.0 ],
					"numinlets" : 1,
					"numoutlets" : 1
				}

			}
, 			{
				"box" : 				{
					"maxclass" : "button",
					"outlettype" : [ "bang" ],
					"id" : "obj-4",
					"patching_rect" : [ 239.0, 26.0, 91.0, 91.0 ],
					"numinlets" : 1,
					"numoutlets" : 1
				}

			}
, 			{
				"box" : 				{
					"maxclass" : "button",
					"outlettype" : [ "bang" ],
					"id" : "obj-3",
					"patching_rect" : [ 332.0, 26.0, 91.0, 91.0 ],
					"numinlets" : 1,
					"numoutlets" : 1
				}

			}
, 			{
				"box" : 				{
					"maxclass" : "button",
					"outlettype" : [ "bang" ],
					"id" : "obj-2",
					"patching_rect" : [ 146.0, 26.0, 91.0, 91.0 ],
					"numinlets" : 1,
					"numoutlets" : 1
				}

			}
, 			{
				"box" : 				{
					"maxclass" : "button",
					"outlettype" : [ "bang" ],
					"id" : "obj-1",
					"patching_rect" : [ 53.0, 26.0, 91.0, 91.0 ],
					"numinlets" : 1,
					"numoutlets" : 1
				}

			}
 ],
		"lines" : [ 			{
				"patchline" : 				{
					"source" : [ "obj-41", 0 ],
					"destination" : [ "obj-84", 0 ],
					"hidden" : 0,
					"midpoints" : [  ]
				}

			}
, 			{
				"patchline" : 				{
					"source" : [ "obj-84", 0 ],
					"destination" : [ "obj-83", 0 ],
					"hidden" : 0,
					"midpoints" : [  ]
				}

			}
, 			{
				"patchline" : 				{
					"source" : [ "obj-68", 3 ],
					"destination" : [ "obj-64", 2 ],
					"hidden" : 0,
					"midpoints" : [ 700.5, 517.0, 285.0, 517.0, 285.0, 387.0, 199.5, 387.0 ]
				}

			}
, 			{
				"patchline" : 				{
					"source" : [ "obj-68", 2 ],
					"destination" : [ "obj-64", 1 ],
					"hidden" : 0,
					"midpoints" : [ 620.5, 510.0, 292.0, 510.0, 292.0, 380.0, 174.0, 380.0 ]
				}

			}
, 			{
				"patchline" : 				{
					"source" : [ "obj-43", 0 ],
					"destination" : [ "obj-55", 0 ],
					"hidden" : 0,
					"midpoints" : [  ]
				}

			}
, 			{
				"patchline" : 				{
					"source" : [ "obj-42", 0 ],
					"destination" : [ "obj-56", 0 ],
					"hidden" : 0,
					"midpoints" : [  ]
				}

			}
, 			{
				"patchline" : 				{
					"source" : [ "obj-41", 0 ],
					"destination" : [ "obj-57", 0 ],
					"hidden" : 0,
					"midpoints" : [  ]
				}

			}
, 			{
				"patchline" : 				{
					"source" : [ "obj-35", 0 ],
					"destination" : [ "obj-58", 0 ],
					"hidden" : 0,
					"midpoints" : [  ]
				}

			}
, 			{
				"patchline" : 				{
					"source" : [ "obj-58", 0 ],
					"destination" : [ "obj-64", 0 ],
					"hidden" : 0,
					"midpoints" : [ 460.5, 348.0, 282.0, 348.0, 282.0, 357.0, 148.5, 357.0 ]
				}

			}
, 			{
				"patchline" : 				{
					"source" : [ "obj-34", 0 ],
					"destination" : [ "obj-64", 0 ],
					"hidden" : 0,
					"midpoints" : [ 264.5, 297.0, 186.0, 297.0, 186.0, 343.0, 148.5, 343.0 ]
				}

			}
, 			{
				"patchline" : 				{
					"source" : [ "obj-2", 0 ],
					"destination" : [ "obj-34", 0 ],
					"hidden" : 0,
					"midpoints" : [  ]
				}

			}
, 			{
				"patchline" : 				{
					"source" : [ "obj-27", 0 ],
					"destination" : [ "obj-64", 0 ],
					"hidden" : 0,
					"midpoints" : [ 17.5, 378.0, 148.5, 378.0 ]
				}

			}
, 			{
				"patchline" : 				{
					"source" : [ "obj-25", 0 ],
					"destination" : [ "obj-27", 0 ],
					"hidden" : 0,
					"midpoints" : [  ]
				}

			}
, 			{
				"patchline" : 				{
					"source" : [ "obj-40", 0 ],
					"destination" : [ "obj-32", 0 ],
					"hidden" : 0,
					"midpoints" : [  ]
				}

			}
, 			{
				"patchline" : 				{
					"source" : [ "obj-32", 0 ],
					"destination" : [ "obj-30", 1 ],
					"hidden" : 0,
					"midpoints" : [  ]
				}

			}
, 			{
				"patchline" : 				{
					"source" : [ "obj-30", 0 ],
					"destination" : [ "obj-33", 0 ],
					"hidden" : 0,
					"midpoints" : [  ]
				}

			}
, 			{
				"patchline" : 				{
					"source" : [ "obj-29", 0 ],
					"destination" : [ "obj-30", 0 ],
					"hidden" : 0,
					"midpoints" : [  ]
				}

			}
, 			{
				"patchline" : 				{
					"source" : [ "obj-23", 0 ],
					"destination" : [ "obj-24", 0 ],
					"hidden" : 0,
					"midpoints" : [  ]
				}

			}
, 			{
				"patchline" : 				{
					"source" : [ "obj-66", 0 ],
					"destination" : [ "obj-10", 0 ],
					"hidden" : 0,
					"midpoints" : [  ]
				}

			}
, 			{
				"patchline" : 				{
					"source" : [ "obj-16", 0 ],
					"destination" : [ "obj-66", 0 ],
					"hidden" : 0,
					"midpoints" : [  ]
				}

			}
, 			{
				"patchline" : 				{
					"source" : [ "obj-62", 0 ],
					"destination" : [ "obj-64", 0 ],
					"hidden" : 1,
					"midpoints" : [ 208.5, 297.0, 186.0, 297.0, 186.0, 344.0, 148.5, 344.0 ]
				}

			}
, 			{
				"patchline" : 				{
					"source" : [ "obj-61", 0 ],
					"destination" : [ "obj-64", 0 ],
					"hidden" : 1,
					"midpoints" : [ 266.5, 343.0, 148.5, 343.0 ]
				}

			}
, 			{
				"patchline" : 				{
					"source" : [ "obj-63", 0 ],
					"destination" : [ "obj-64", 0 ],
					"hidden" : 0,
					"midpoints" : [  ]
				}

			}
, 			{
				"patchline" : 				{
					"source" : [ "obj-12", 0 ],
					"destination" : [ "obj-14", 1 ],
					"hidden" : 0,
					"midpoints" : [  ]
				}

			}
, 			{
				"patchline" : 				{
					"source" : [ "obj-14", 0 ],
					"destination" : [ "obj-13", 1 ],
					"hidden" : 0,
					"midpoints" : [ 148.5, 474.0, 174.5, 474.0 ]
				}

			}
, 			{
				"patchline" : 				{
					"source" : [ "obj-14", 0 ],
					"destination" : [ "obj-13", 0 ],
					"hidden" : 0,
					"midpoints" : [  ]
				}

			}
, 			{
				"patchline" : 				{
					"source" : [ "obj-64", 0 ],
					"destination" : [ "obj-14", 0 ],
					"hidden" : 0,
					"midpoints" : [  ]
				}

			}
, 			{
				"patchline" : 				{
					"source" : [ "obj-59", 0 ],
					"destination" : [ "obj-63", 0 ],
					"hidden" : 0,
					"midpoints" : [  ]
				}

			}
, 			{
				"patchline" : 				{
					"source" : [ "obj-18", 0 ],
					"destination" : [ "obj-19", 0 ],
					"hidden" : 0,
					"midpoints" : [  ]
				}

			}
, 			{
				"patchline" : 				{
					"source" : [ "obj-1", 0 ],
					"destination" : [ "obj-62", 0 ],
					"hidden" : 0,
					"midpoints" : [  ]
				}

			}
, 			{
				"patchline" : 				{
					"source" : [ "obj-11", 0 ],
					"destination" : [ "obj-40", 0 ],
					"hidden" : 0,
					"midpoints" : [  ]
				}

			}
, 			{
				"patchline" : 				{
					"source" : [ "obj-40", 0 ],
					"destination" : [ "obj-59", 0 ],
					"hidden" : 0,
					"midpoints" : [ 350.5, 217.0, 150.5, 217.0 ]
				}

			}
, 			{
				"patchline" : 				{
					"source" : [ "obj-26", 0 ],
					"destination" : [ "obj-61", 0 ],
					"hidden" : 0,
					"midpoints" : [  ]
				}

			}
, 			{
				"patchline" : 				{
					"source" : [ "obj-21", 0 ],
					"destination" : [ "obj-68", 4 ],
					"hidden" : 0,
					"midpoints" : [  ]
				}

			}
, 			{
				"patchline" : 				{
					"source" : [ "obj-55", 0 ],
					"destination" : [ "obj-68", 3 ],
					"hidden" : 0,
					"midpoints" : [  ]
				}

			}
, 			{
				"patchline" : 				{
					"source" : [ "obj-56", 0 ],
					"destination" : [ "obj-68", 2 ],
					"hidden" : 0,
					"midpoints" : [  ]
				}

			}
, 			{
				"patchline" : 				{
					"source" : [ "obj-57", 0 ],
					"destination" : [ "obj-68", 1 ],
					"hidden" : 0,
					"midpoints" : [  ]
				}

			}
, 			{
				"patchline" : 				{
					"source" : [ "obj-58", 0 ],
					"destination" : [ "obj-68", 0 ],
					"hidden" : 0,
					"midpoints" : [  ]
				}

			}
, 			{
				"patchline" : 				{
					"source" : [ "obj-19", 0 ],
					"destination" : [ "obj-68", 0 ],
					"hidden" : 0,
					"midpoints" : [  ]
				}

			}
, 			{
				"patchline" : 				{
					"source" : [ "obj-10", 0 ],
					"destination" : [ "obj-68", 0 ],
					"hidden" : 0,
					"midpoints" : [  ]
				}

			}
, 			{
				"patchline" : 				{
					"source" : [ "obj-33", 0 ],
					"destination" : [ "obj-68", 0 ],
					"hidden" : 0,
					"midpoints" : [  ]
				}

			}
, 			{
				"patchline" : 				{
					"source" : [ "obj-38", 0 ],
					"destination" : [ "obj-68", 0 ],
					"hidden" : 0,
					"midpoints" : [  ]
				}

			}
, 			{
				"patchline" : 				{
					"source" : [ "obj-39", 0 ],
					"destination" : [ "obj-68", 0 ],
					"hidden" : 0,
					"midpoints" : [  ]
				}

			}
, 			{
				"patchline" : 				{
					"source" : [ "obj-24", 0 ],
					"destination" : [ "obj-68", 0 ],
					"hidden" : 0,
					"midpoints" : [  ]
				}

			}
, 			{
				"patchline" : 				{
					"source" : [ "obj-68", 0 ],
					"destination" : [ "obj-35", 0 ],
					"hidden" : 0,
					"midpoints" : [  ]
				}

			}
, 			{
				"patchline" : 				{
					"source" : [ "obj-68", 1 ],
					"destination" : [ "obj-41", 0 ],
					"hidden" : 0,
					"midpoints" : [  ]
				}

			}
, 			{
				"patchline" : 				{
					"source" : [ "obj-68", 2 ],
					"destination" : [ "obj-42", 0 ],
					"hidden" : 0,
					"midpoints" : [  ]
				}

			}
, 			{
				"patchline" : 				{
					"source" : [ "obj-68", 3 ],
					"destination" : [ "obj-43", 0 ],
					"hidden" : 0,
					"midpoints" : [  ]
				}

			}
 ]
	}

}
