{
	"patcher" : 	{
		"fileversion" : 1,
		"rect" : [ 303.0, 111.0, 228.0, 298.0 ],
		"bglocked" : 0,
		"defrect" : [ 303.0, 111.0, 228.0, 298.0 ],
		"openrect" : [ 0.0, 0.0, 0.0, 0.0 ],
		"openinpresentation" : 0,
		"default_fontsize" : 10.0,
		"default_fontface" : 0,
		"default_fontname" : "Arial",
		"gridonopen" : 0,
		"gridsize" : [ 4.0, 4.0 ],
		"gridsnaponopen" : 0,
		"toolbarvisible" : 1,
		"boxanimatetime" : 200,
		"imprint" : 0,
		"enablehscroll" : 1,
		"enablevscroll" : 1,
		"devicewidth" : 0.0,
		"boxes" : [ 			{
				"box" : 				{
					"maxclass" : "newobj",
					"text" : "route bang",
					"outlettype" : [ "", "" ],
					"fontsize" : 10.0,
					"numinlets" : 1,
					"patching_rect" : [ 36.0, 68.0, 58.0, 18.0 ],
					"id" : "obj-6",
					"fontname" : "Arial",
					"numoutlets" : 2
				}

			}
, 			{
				"box" : 				{
					"maxclass" : "newobj",
					"text" : "zl 2048 group",
					"outlettype" : [ "", "" ],
					"fontsize" : 10.0,
					"numinlets" : 2,
					"patching_rect" : [ 56.0, 176.0, 71.0, 18.0 ],
					"id" : "obj-4",
					"fontname" : "Arial",
					"numoutlets" : 2
				}

			}
, 			{
				"box" : 				{
					"maxclass" : "newobj",
					"text" : "uzi 5 #1",
					"outlettype" : [ "bang", "bang", "int" ],
					"fontsize" : 10.0,
					"numinlets" : 2,
					"patching_rect" : [ 80.0, 116.0, 46.0, 18.0 ],
					"id" : "obj-3",
					"fontname" : "Arial",
					"numoutlets" : 3
				}

			}
, 			{
				"box" : 				{
					"maxclass" : "outlet",
					"numinlets" : 1,
					"patching_rect" : [ 56.0, 212.0, 25.0, 25.0 ],
					"id" : "obj-2",
					"numoutlets" : 0,
					"comment" : ""
				}

			}
, 			{
				"box" : 				{
					"maxclass" : "inlet",
					"outlettype" : [ "" ],
					"numinlets" : 0,
					"patching_rect" : [ 20.0, 16.0, 25.0, 25.0 ],
					"id" : "obj-1",
					"numoutlets" : 1,
					"comment" : ""
				}

			}
 ],
		"lines" : [ 			{
				"patchline" : 				{
					"source" : [ "obj-6", 0 ],
					"destination" : [ "obj-3", 0 ],
					"hidden" : 0,
					"midpoints" : [  ]
				}

			}
, 			{
				"patchline" : 				{
					"source" : [ "obj-3", 2 ],
					"destination" : [ "obj-4", 0 ],
					"hidden" : 0,
					"midpoints" : [  ]
				}

			}
, 			{
				"patchline" : 				{
					"source" : [ "obj-6", 1 ],
					"destination" : [ "obj-3", 0 ],
					"hidden" : 0,
					"midpoints" : [  ]
				}

			}
, 			{
				"patchline" : 				{
					"source" : [ "obj-3", 1 ],
					"destination" : [ "obj-4", 0 ],
					"hidden" : 0,
					"midpoints" : [  ]
				}

			}
, 			{
				"patchline" : 				{
					"source" : [ "obj-4", 0 ],
					"destination" : [ "obj-2", 0 ],
					"hidden" : 0,
					"midpoints" : [  ]
				}

			}
, 			{
				"patchline" : 				{
					"source" : [ "obj-1", 0 ],
					"destination" : [ "obj-6", 0 ],
					"hidden" : 0,
					"midpoints" : [  ]
				}

			}
 ]
	}

}
