{
	"patcher" : 	{
		"fileversion" : 1,
		"rect" : [ 16.0, 67.0, 552.0, 401.0 ],
		"bglocked" : 0,
		"defrect" : [ 16.0, 67.0, 552.0, 401.0 ],
		"openrect" : [ 0.0, 0.0, 0.0, 0.0 ],
		"openinpresentation" : 0,
		"default_fontsize" : 10.0,
		"default_fontface" : 0,
		"default_fontname" : "Arial",
		"gridonopen" : 0,
		"gridsize" : [ 4.0, 4.0 ],
		"gridsnaponopen" : 0,
		"toolbarvisible" : 1,
		"boxanimatetime" : 200,
		"imprint" : 0,
		"enablehscroll" : 1,
		"enablevscroll" : 1,
		"devicewidth" : 0.0,
		"boxes" : [ 			{
				"box" : 				{
					"maxclass" : "message",
					"text" : "3 2 1 1 0.3",
					"fontsize" : 10.0,
					"numinlets" : 2,
					"numoutlets" : 1,
					"outlettype" : [ "" ],
					"patching_rect" : [ 112.0, 152.0, 58.0, 16.0 ],
					"fontname" : "Arial",
					"id" : "obj-3"
				}

			}
, 			{
				"box" : 				{
					"maxclass" : "bpatcher",
					"prototypename" : "cnmat_banner",
					"args" : [ "list-std-deviation", "compute the standard deviation of a list" ],
					"numinlets" : 0,
					"numoutlets" : 0,
					"lockeddragscroll" : 1,
					"patching_rect" : [ 8.0, 8.0, 511.0, 76.0 ],
					"offset" : [ -18.0, -68.0 ],
					"id" : "obj-2",
					"name" : "banner.maxpat"
				}

			}
, 			{
				"box" : 				{
					"maxclass" : "bpatcher",
					"args" : [ "list-std-deviation", "0.1a", "Jeff Lubow", "list-std-deviation", 6666 ],
					"numinlets" : 0,
					"numoutlets" : 0,
					"patching_rect" : [ 228.0, 252.0, 296.0, 86.0 ],
					"id" : "obj-1",
					"name" : "badge.maxpat"
				}

			}
, 			{
				"box" : 				{
					"maxclass" : "button",
					"numinlets" : 1,
					"numoutlets" : 1,
					"outlettype" : [ "bang" ],
					"patching_rect" : [ 48.0, 308.0, 20.0, 20.0 ],
					"id" : "obj-81"
				}

			}
, 			{
				"box" : 				{
					"maxclass" : "newobj",
					"text" : "list-std-deviation",
					"fontsize" : 10.0,
					"numinlets" : 1,
					"numoutlets" : 1,
					"outlettype" : [ "float" ],
					"patching_rect" : [ 48.0, 188.0, 83.0, 18.0 ],
					"fontname" : "Arial",
					"id" : "obj-79"
				}

			}
, 			{
				"box" : 				{
					"maxclass" : "flonum",
					"fontsize" : 10.0,
					"numinlets" : 1,
					"numoutlets" : 2,
					"outlettype" : [ "float", "bang" ],
					"patching_rect" : [ 48.0, 264.0, 127.0, 18.0 ],
					"fontname" : "Arial",
					"id" : "obj-76"
				}

			}
, 			{
				"box" : 				{
					"maxclass" : "message",
					"text" : "1 0 2 1 1",
					"fontsize" : 10.0,
					"numinlets" : 2,
					"numoutlets" : 1,
					"outlettype" : [ "" ],
					"patching_rect" : [ 48.0, 132.0, 53.0, 16.0 ],
					"fontname" : "Arial",
					"id" : "obj-55"
				}

			}
 ],
		"lines" : [ 			{
				"patchline" : 				{
					"source" : [ "obj-76", 0 ],
					"destination" : [ "obj-81", 0 ],
					"hidden" : 0,
					"midpoints" : [  ]
				}

			}
, 			{
				"patchline" : 				{
					"source" : [ "obj-79", 0 ],
					"destination" : [ "obj-76", 0 ],
					"hidden" : 0,
					"midpoints" : [  ]
				}

			}
, 			{
				"patchline" : 				{
					"source" : [ "obj-55", 0 ],
					"destination" : [ "obj-79", 0 ],
					"hidden" : 0,
					"midpoints" : [  ]
				}

			}
, 			{
				"patchline" : 				{
					"source" : [ "obj-3", 0 ],
					"destination" : [ "obj-79", 0 ],
					"hidden" : 0,
					"midpoints" : [  ]
				}

			}
 ]
	}

}
