{
	"patcher" : 	{
		"fileversion" : 1,
		"rect" : [ 43.0, 44.0, 837.0, 712.0 ],
		"bgcolor" : [ 0.823529, 0.941176, 0.823529, 1.0 ],
		"bglocked" : 1,
		"defrect" : [ 43.0, 44.0, 837.0, 712.0 ],
		"openrect" : [ 0.0, 0.0, 0.0, 0.0 ],
		"openinpresentation" : 0,
		"default_fontsize" : 12.0,
		"default_fontface" : 0,
		"default_fontname" : "Arial",
		"gridonopen" : 0,
		"gridsize" : [ 4.0, 4.0 ],
		"gridsnaponopen" : 0,
		"toolbarvisible" : 1,
		"boxanimatetime" : 200,
		"imprint" : 0,
		"enablehscroll" : 1,
		"enablevscroll" : 1,
		"devicewidth" : 0.0,
		"boxes" : [ 			{
				"box" : 				{
					"maxclass" : "comment",
					"text" : "Note the event with no messages event at the end of qlist. Qlist.control expects an extra event, or it will loop back to the top. The last \"real\" event in this example is event number 2. Event number 3 is a dummy event.",
					"linecount" : 3,
					"numinlets" : 1,
					"fontname" : "Arial",
					"frgb" : [ 0.0, 0.0, 0.0, 1.0 ],
					"numoutlets" : 0,
					"patching_rect" : [ 293.0, 424.0, 433.0, 38.0 ],
					"id" : "obj-1",
					"fontsize" : 9.0
				}

			}
, 			{
				"box" : 				{
					"maxclass" : "comment",
					"text" : "Ending",
					"numinlets" : 1,
					"fontname" : "Arial",
					"frgb" : [ 0.290196, 0.611765, 0.380392, 1.0 ],
					"numoutlets" : 0,
					"patching_rect" : [ 264.0, 396.0, 267.0, 27.0 ],
					"id" : "obj-2",
					"textcolor" : [ 0.290196, 0.611765, 0.380392, 1.0 ],
					"fontsize" : 18.0
				}

			}
, 			{
				"box" : 				{
					"maxclass" : "comment",
					"text" : "If line of a cue begins with an integer, Max waits that number of milliseconds before sending the message. So, the first line of cue 2 sets /effect1/gain to 1. immediately. It then waits 1000 milliseconds, then sends /effect1/color a value of 0.3. Trigger Cue 2, and watch the timing of events, below.",
					"linecount" : 4,
					"numinlets" : 1,
					"fontname" : "Arial",
					"frgb" : [ 0.0, 0.0, 0.0, 1.0 ],
					"numoutlets" : 0,
					"patching_rect" : [ 293.0, 345.0, 415.0, 48.0 ],
					"id" : "obj-3",
					"fontsize" : 9.0
				}

			}
, 			{
				"box" : 				{
					"maxclass" : "comment",
					"text" : "Look at Cue 2",
					"numinlets" : 1,
					"fontname" : "Arial",
					"frgb" : [ 0.0, 0.0, 0.0, 1.0 ],
					"numoutlets" : 0,
					"patching_rect" : [ 305.0, 323.0, 108.0, 23.0 ],
					"id" : "obj-4",
					"fontsize" : 14.0
				}

			}
, 			{
				"box" : 				{
					"maxclass" : "comment",
					"text" : "Subsequent lines of cue one begin with the name of a receive object (always OSC in this case).",
					"numinlets" : 1,
					"fontname" : "Arial",
					"frgb" : [ 0.0, 0.0, 0.0, 1.0 ],
					"numoutlets" : 0,
					"patching_rect" : [ 293.0, 307.0, 433.0, 17.0 ],
					"id" : "obj-5",
					"fontsize" : 9.0
				}

			}
, 			{
				"box" : 				{
					"maxclass" : "comment",
					"text" : "The second line of cue one begins 0 1, then sends the message \"/effect*/gain 0.5\" to any receive object called \"OSC.\" I'm using one of the OSC wildcard characters.",
					"linecount" : 2,
					"numinlets" : 1,
					"fontname" : "Arial",
					"frgb" : [ 0.0, 0.0, 0.0, 1.0 ],
					"numoutlets" : 0,
					"patching_rect" : [ 293.0, 279.0, 425.0, 27.0 ],
					"id" : "obj-6",
					"fontsize" : 9.0
				}

			}
, 			{
				"box" : 				{
					"maxclass" : "comment",
					"text" : "The second line also has a special syntax: 0 <cuenumber> <firstcuemessage>;\r",
					"numinlets" : 1,
					"fontname" : "Arial",
					"frgb" : [ 0.0, 0.0, 0.0, 1.0 ],
					"numoutlets" : 0,
					"patching_rect" : [ 293.0, 262.0, 389.0, 17.0 ],
					"id" : "obj-7",
					"fontsize" : 9.0
				}

			}
, 			{
				"box" : 				{
					"maxclass" : "comment",
					"text" : "Every cue begins with this: ------------------------ <cue number>;\r",
					"numinlets" : 1,
					"fontname" : "Arial",
					"frgb" : [ 0.0, 0.0, 0.0, 1.0 ],
					"numoutlets" : 0,
					"patching_rect" : [ 293.0, 245.0, 389.0, 17.0 ],
					"id" : "obj-8",
					"fontsize" : 9.0
				}

			}
, 			{
				"box" : 				{
					"maxclass" : "comment",
					"text" : "Cue 1 looks like this --->",
					"numinlets" : 1,
					"fontname" : "Arial",
					"frgb" : [ 0.0, 0.0, 0.0, 1.0 ],
					"numoutlets" : 0,
					"patching_rect" : [ 304.0, 206.0, 203.0, 23.0 ],
					"id" : "obj-9",
					"fontsize" : 14.0
				}

			}
, 			{
				"box" : 				{
					"maxclass" : "button",
					"numinlets" : 1,
					"fgcolor" : [ 0.380392, 0.611765, 0.611765, 1.0 ],
					"numoutlets" : 1,
					"patching_rect" : [ 211.0, 548.0, 15.0, 15.0 ],
					"id" : "obj-10",
					"outlettype" : [ "bang" ]
				}

			}
, 			{
				"box" : 				{
					"maxclass" : "button",
					"numinlets" : 1,
					"fgcolor" : [ 0.380392, 0.611765, 0.611765, 1.0 ],
					"numoutlets" : 1,
					"patching_rect" : [ 134.0, 511.0, 15.0, 15.0 ],
					"id" : "obj-11",
					"outlettype" : [ "bang" ]
				}

			}
, 			{
				"box" : 				{
					"maxclass" : "button",
					"numinlets" : 1,
					"fgcolor" : [ 0.380392, 0.611765, 0.611765, 1.0 ],
					"numoutlets" : 1,
					"patching_rect" : [ 81.0, 511.0, 15.0, 15.0 ],
					"id" : "obj-12",
					"outlettype" : [ "bang" ]
				}

			}
, 			{
				"box" : 				{
					"maxclass" : "multislider",
					"ghostbar" : 30,
					"candicane2" : [ 0.145098, 0.203922, 0.356863, 1.0 ],
					"numinlets" : 1,
					"candicane7" : [ 0.878431, 0.243137, 0.145098, 1.0 ],
					"candicane6" : [ 0.733333, 0.035294, 0.788235, 1.0 ],
					"numoutlets" : 2,
					"patching_rect" : [ 264.0, 542.0, 431.0, 46.0 ],
					"id" : "obj-13",
					"candicane5" : [ 0.584314, 0.827451, 0.431373, 1.0 ],
					"outlettype" : [ "", "" ],
					"slidercolor" : [ 0.196078, 0.529412, 0.196078, 1.0 ],
					"bordercolor" : [ 0.196078, 0.509804, 0.196078, 1.0 ],
					"orientation" : 0,
					"candicane4" : [ 0.439216, 0.619608, 0.070588, 1.0 ],
					"peakcolor" : [ 0.498039, 0.498039, 0.498039, 1.0 ],
					"candicane3" : [ 0.290196, 0.411765, 0.713726, 1.0 ],
					"candicane8" : [ 0.027451, 0.447059, 0.501961, 1.0 ]
				}

			}
, 			{
				"box" : 				{
					"maxclass" : "comment",
					"text" : "stuff in your patch",
					"numinlets" : 1,
					"fontname" : "Arial",
					"frgb" : [ 0.0, 0.0, 0.0, 1.0 ],
					"numoutlets" : 0,
					"patching_rect" : [ 56.0, 385.0, 178.0, 27.0 ],
					"id" : "obj-14",
					"fontsize" : 18.0
				}

			}
, 			{
				"box" : 				{
					"maxclass" : "flonum",
					"numinlets" : 1,
					"fontname" : "Arial",
					"htextcolor" : [ 0.870588, 0.870588, 0.870588, 1.0 ],
					"numoutlets" : 2,
					"patching_rect" : [ 211.0, 523.0, 35.0, 17.0 ],
					"triscale" : 0.9,
					"id" : "obj-15",
					"outlettype" : [ "float", "bang" ],
					"fontsize" : 9.0,
					"bgcolor" : [ 0.866667, 0.866667, 0.866667, 1.0 ]
				}

			}
, 			{
				"box" : 				{
					"maxclass" : "newobj",
					"text" : "line 0.",
					"numinlets" : 3,
					"fontname" : "Arial",
					"numoutlets" : 2,
					"patching_rect" : [ 264.0, 520.0, 40.0, 17.0 ],
					"id" : "obj-16",
					"outlettype" : [ "", "" ],
					"fontsize" : 9.0
				}

			}
, 			{
				"box" : 				{
					"maxclass" : "newobj",
					"text" : "OSC-route /gain /ramp",
					"numinlets" : 1,
					"fontname" : "Arial",
					"numoutlets" : 3,
					"patching_rect" : [ 211.0, 489.0, 116.0, 17.0 ],
					"id" : "obj-17",
					"outlettype" : [ "", "", "" ],
					"fontsize" : 9.0
				}

			}
, 			{
				"box" : 				{
					"maxclass" : "flonum",
					"numinlets" : 1,
					"fontname" : "Arial",
					"htextcolor" : [ 0.870588, 0.870588, 0.870588, 1.0 ],
					"numoutlets" : 2,
					"patching_rect" : [ 134.0, 491.0, 35.0, 17.0 ],
					"triscale" : 0.9,
					"id" : "obj-18",
					"outlettype" : [ "float", "bang" ],
					"fontsize" : 9.0,
					"bgcolor" : [ 0.866667, 0.866667, 0.866667, 1.0 ]
				}

			}
, 			{
				"box" : 				{
					"maxclass" : "flonum",
					"numinlets" : 1,
					"fontname" : "Arial",
					"htextcolor" : [ 0.870588, 0.870588, 0.870588, 1.0 ],
					"numoutlets" : 2,
					"patching_rect" : [ 81.0, 491.0, 35.0, 17.0 ],
					"triscale" : 0.9,
					"id" : "obj-19",
					"outlettype" : [ "float", "bang" ],
					"fontsize" : 9.0,
					"bgcolor" : [ 0.866667, 0.866667, 0.866667, 1.0 ]
				}

			}
, 			{
				"box" : 				{
					"maxclass" : "newobj",
					"text" : "OSC-route /gain /color",
					"numinlets" : 1,
					"fontname" : "Arial",
					"numoutlets" : 3,
					"patching_rect" : [ 81.0, 465.0, 116.0, 17.0 ],
					"id" : "obj-20",
					"outlettype" : [ "", "", "" ],
					"fontsize" : 9.0
				}

			}
, 			{
				"box" : 				{
					"maxclass" : "newobj",
					"text" : "OSC-route /effect1 /effect2",
					"numinlets" : 1,
					"fontname" : "Arial",
					"numoutlets" : 3,
					"patching_rect" : [ 81.0, 440.0, 141.0, 17.0 ],
					"id" : "obj-21",
					"outlettype" : [ "", "", "" ],
					"fontsize" : 9.0
				}

			}
, 			{
				"box" : 				{
					"maxclass" : "newobj",
					"text" : "r OSC",
					"numinlets" : 0,
					"fontname" : "Arial",
					"numoutlets" : 1,
					"patching_rect" : [ 81.0, 415.0, 36.0, 17.0 ],
					"id" : "obj-22",
					"outlettype" : [ "" ],
					"fontsize" : 9.0
				}

			}
, 			{
				"box" : 				{
					"maxclass" : "comment",
					"text" : "------->",
					"numinlets" : 1,
					"fontname" : "Arial",
					"frgb" : [ 0.0, 0.0, 0.0, 1.0 ],
					"numoutlets" : 0,
					"patching_rect" : [ 96.0, 224.0, 50.0, 17.0 ],
					"id" : "obj-23",
					"fontsize" : 9.0
				}

			}
, 			{
				"box" : 				{
					"maxclass" : "message",
					"text" : "2",
					"numinlets" : 2,
					"fontname" : "Arial",
					"numoutlets" : 1,
					"patching_rect" : [ 159.0, 234.0, 16.0, 15.0 ],
					"id" : "obj-24",
					"outlettype" : [ "" ],
					"fontsize" : 9.0,
					"bgcolor" : [ 0.6, 0.4, 0.6, 1.0 ]
				}

			}
, 			{
				"box" : 				{
					"maxclass" : "message",
					"text" : "1",
					"numinlets" : 2,
					"fontname" : "Arial",
					"numoutlets" : 1,
					"patching_rect" : [ 159.0, 210.0, 16.0, 15.0 ],
					"id" : "obj-25",
					"outlettype" : [ "" ],
					"fontsize" : 9.0,
					"bgcolor" : [ 0.6, 0.4, 0.6, 1.0 ]
				}

			}
, 			{
				"box" : 				{
					"maxclass" : "message",
					"text" : "0",
					"numinlets" : 2,
					"fontname" : "Arial",
					"numoutlets" : 1,
					"patching_rect" : [ 159.0, 189.0, 16.0, 15.0 ],
					"id" : "obj-26",
					"outlettype" : [ "" ],
					"fontsize" : 9.0,
					"bgcolor" : [ 0.6, 0.4, 0.6, 1.0 ]
				}

			}
, 			{
				"box" : 				{
					"maxclass" : "newobj",
					"text" : "p qlist.control",
					"numinlets" : 3,
					"fontname" : "Arial",
					"numoutlets" : 1,
					"patching_rect" : [ 55.0, 261.0, 130.0, 27.0 ],
					"id" : "obj-27",
					"outlettype" : [ "" ],
					"fontsize" : 18.0,
					"color" : [ 0.6, 0.4, 0.6, 1.0 ],
					"patcher" : 					{
						"fileversion" : 1,
						"rect" : [ 10.0, 59.0, 611.0, 503.0 ],
						"bglocked" : 0,
						"defrect" : [ 10.0, 59.0, 611.0, 503.0 ],
						"openrect" : [ 0.0, 0.0, 0.0, 0.0 ],
						"openinpresentation" : 0,
						"default_fontsize" : 12.0,
						"default_fontface" : 0,
						"default_fontname" : "Arial",
						"gridonopen" : 0,
						"gridsize" : [ 4.0, 4.0 ],
						"gridsnaponopen" : 0,
						"toolbarvisible" : 1,
						"boxanimatetime" : 200,
						"imprint" : 0,
						"enablehscroll" : 1,
						"enablevscroll" : 1,
						"devicewidth" : 0.0,
						"boxes" : [ 							{
								"box" : 								{
									"maxclass" : "newobj",
									"text" : "t b i b",
									"numinlets" : 1,
									"fontname" : "Arial",
									"numoutlets" : 3,
									"patching_rect" : [ 138.0, 240.0, 40.0, 17.0 ],
									"id" : "obj-1",
									"outlettype" : [ "bang", "int", "bang" ],
									"fontsize" : 9.0
								}

							}
, 							{
								"box" : 								{
									"maxclass" : "newobj",
									"text" : "split 0 100000",
									"numinlets" : 3,
									"fontname" : "Arial",
									"numoutlets" : 2,
									"patching_rect" : [ 138.0, 216.0, 75.0, 17.0 ],
									"id" : "obj-2",
									"outlettype" : [ "int", "int" ],
									"fontsize" : 9.0
								}

							}
, 							{
								"box" : 								{
									"maxclass" : "newobj",
									"text" : "-",
									"numinlets" : 2,
									"fontname" : "Arial",
									"numoutlets" : 1,
									"patching_rect" : [ 138.0, 193.0, 27.0, 17.0 ],
									"id" : "obj-3",
									"outlettype" : [ "int" ],
									"fontsize" : 9.0
								}

							}
, 							{
								"box" : 								{
									"maxclass" : "newobj",
									"text" : "split 1 100000",
									"numinlets" : 3,
									"fontname" : "Arial",
									"numoutlets" : 2,
									"patching_rect" : [ 153.0, 281.0, 75.0, 17.0 ],
									"id" : "obj-4",
									"outlettype" : [ "int", "int" ],
									"fontsize" : 9.0
								}

							}
, 							{
								"box" : 								{
									"maxclass" : "message",
									"text" : "stop",
									"numinlets" : 2,
									"fontname" : "Arial",
									"numoutlets" : 1,
									"patching_rect" : [ 74.0, 186.0, 27.0, 15.0 ],
									"id" : "obj-5",
									"outlettype" : [ "" ],
									"fontsize" : 9.0
								}

							}
, 							{
								"box" : 								{
									"maxclass" : "newobj",
									"text" : "sel 0",
									"numinlets" : 2,
									"fontname" : "Arial",
									"numoutlets" : 2,
									"patching_rect" : [ 302.0, 54.0, 30.0, 17.0 ],
									"id" : "obj-6",
									"outlettype" : [ "bang", "" ],
									"fontsize" : 9.0
								}

							}
, 							{
								"box" : 								{
									"maxclass" : "newobj",
									"text" : "t b b",
									"numinlets" : 1,
									"fontname" : "Arial",
									"numoutlets" : 2,
									"patching_rect" : [ 302.0, 82.0, 28.0, 17.0 ],
									"id" : "obj-7",
									"outlettype" : [ "bang", "bang" ],
									"fontsize" : 9.0
								}

							}
, 							{
								"box" : 								{
									"maxclass" : "message",
									"text" : "rewind, next",
									"numinlets" : 2,
									"fontname" : "Arial",
									"numoutlets" : 1,
									"patching_rect" : [ 302.0, 152.0, 65.0, 15.0 ],
									"id" : "obj-8",
									"outlettype" : [ "" ],
									"fontsize" : 9.0
								}

							}
, 							{
								"box" : 								{
									"maxclass" : "comment",
									"text" : "events inlet",
									"numinlets" : 1,
									"fontname" : "Arial",
									"frgb" : [ 0.0, 0.0, 0.0, 1.0 ],
									"numoutlets" : 0,
									"patching_rect" : [ 322.0, 26.0, 61.0, 17.0 ],
									"id" : "obj-9",
									"fontsize" : 9.0
								}

							}
, 							{
								"box" : 								{
									"maxclass" : "inlet",
									"numinlets" : 0,
									"numoutlets" : 1,
									"patching_rect" : [ 302.0, 25.0, 15.0, 15.0 ],
									"id" : "obj-10",
									"outlettype" : [ "" ],
									"comment" : ""
								}

							}
, 							{
								"box" : 								{
									"maxclass" : "message",
									"text" : "0",
									"numinlets" : 2,
									"fontname" : "Arial",
									"numoutlets" : 1,
									"patching_rect" : [ 153.0, 314.0, 16.0, 15.0 ],
									"id" : "obj-11",
									"outlettype" : [ "" ],
									"fontsize" : 9.0
								}

							}
, 							{
								"box" : 								{
									"maxclass" : "message",
									"text" : "next $1",
									"numinlets" : 2,
									"fontname" : "Arial",
									"numoutlets" : 1,
									"patching_rect" : [ 232.0, 314.0, 43.0, 15.0 ],
									"id" : "obj-12",
									"outlettype" : [ "" ],
									"fontsize" : 9.0
								}

							}
, 							{
								"box" : 								{
									"maxclass" : "newobj",
									"text" : "i 0",
									"numinlets" : 2,
									"fontname" : "Arial",
									"numoutlets" : 1,
									"patching_rect" : [ 232.0, 281.0, 27.0, 17.0 ],
									"id" : "obj-13",
									"outlettype" : [ "int" ],
									"fontsize" : 9.0
								}

							}
, 							{
								"box" : 								{
									"maxclass" : "comment",
									"text" : "gets time delays from the qlist",
									"numinlets" : 1,
									"fontname" : "Arial",
									"frgb" : [ 0.0, 0.0, 0.0, 1.0 ],
									"numoutlets" : 0,
									"patching_rect" : [ 73.0, 402.0, 145.0, 17.0 ],
									"id" : "obj-14",
									"fontsize" : 9.0
								}

							}
, 							{
								"box" : 								{
									"maxclass" : "inlet",
									"numinlets" : 0,
									"numoutlets" : 1,
									"patching_rect" : [ 118.0, 25.0, 15.0, 15.0 ],
									"id" : "obj-15",
									"outlettype" : [ "" ],
									"comment" : ""
								}

							}
, 							{
								"box" : 								{
									"maxclass" : "newobj",
									"text" : "unpack",
									"numinlets" : 1,
									"fontname" : "Arial",
									"numoutlets" : 2,
									"patching_rect" : [ 118.0, 90.0, 47.0, 17.0 ],
									"id" : "obj-16",
									"outlettype" : [ "int", "int" ],
									"fontsize" : 9.0
								}

							}
, 							{
								"box" : 								{
									"maxclass" : "comment",
									"text" : "outlet for 'rewind' and 'next' messages which are sent to the qlist",
									"linecount" : 2,
									"numinlets" : 1,
									"fontname" : "Arial",
									"frgb" : [ 0.0, 0.0, 0.0, 1.0 ],
									"numoutlets" : 0,
									"patching_rect" : [ 254.0, 344.0, 192.0, 27.0 ],
									"id" : "obj-17",
									"fontsize" : 9.0
								}

							}
, 							{
								"box" : 								{
									"maxclass" : "comment",
									"text" : "If negative, do nothing. If zero, send a 'next' to the qlist and 'bang' the delay object. If positive, send a 'next' to the qlist, a delay time of zero to the delay object, and 'bang' the delay object.",
									"linecount" : 4,
									"numinlets" : 1,
									"fontname" : "Arial",
									"frgb" : [ 0.0, 0.0, 0.0, 1.0 ],
									"numoutlets" : 0,
									"patching_rect" : [ 285.0, 250.0, 228.0, 48.0 ],
									"id" : "obj-18",
									"fontsize" : 9.0
								}

							}
, 							{
								"box" : 								{
									"maxclass" : "comment",
									"text" : "executable or nonexecutable 'next' inlet",
									"linecount" : 3,
									"numinlets" : 1,
									"fontname" : "Arial",
									"frgb" : [ 0.0, 0.0, 0.0, 1.0 ],
									"numoutlets" : 0,
									"patching_rect" : [ 172.0, 24.0, 77.0, 38.0 ],
									"id" : "obj-19",
									"fontsize" : 9.0
								}

							}
, 							{
								"box" : 								{
									"maxclass" : "comment",
									"text" : "dummy variable which should not be removed!",
									"numinlets" : 1,
									"fontname" : "Arial",
									"frgb" : [ 0.0, 0.0, 0.0, 1.0 ],
									"numoutlets" : 0,
									"patching_rect" : [ 179.0, 428.0, 215.0, 17.0 ],
									"id" : "obj-20",
									"fontsize" : 9.0
								}

							}
, 							{
								"box" : 								{
									"maxclass" : "newobj",
									"text" : "r ------------------------",
									"numinlets" : 0,
									"fontname" : "Arial",
									"numoutlets" : 1,
									"patching_rect" : [ 40.0, 427.0, 135.0, 17.0 ],
									"id" : "obj-21",
									"outlettype" : [ "" ],
									"fontsize" : 9.0
								}

							}
, 							{
								"box" : 								{
									"maxclass" : "comment",
									"text" : "separate the time delays and event numbers being output from the qlist and send time delays to the delay object",
									"linecount" : 8,
									"numinlets" : 1,
									"fontname" : "Arial",
									"frgb" : [ 0.0, 0.0, 0.0, 1.0 ],
									"numoutlets" : 0,
									"patching_rect" : [ 25.0, 46.0, 77.0, 89.0 ],
									"id" : "obj-22",
									"fontsize" : 9.0
								}

							}
, 							{
								"box" : 								{
									"maxclass" : "comment",
									"text" : "send the present event number for comparison with any incoming event numbers",
									"linecount" : 3,
									"numinlets" : 1,
									"fontname" : "Arial",
									"frgb" : [ 0.0, 0.0, 0.0, 1.0 ],
									"numoutlets" : 0,
									"patching_rect" : [ 310.0, 195.0, 150.0, 38.0 ],
									"id" : "obj-23",
									"fontsize" : 9.0
								}

							}
, 							{
								"box" : 								{
									"maxclass" : "comment",
									"text" : "if the event number is 0, initalize by sending a 'rewind' and 'next' message to qlist",
									"linecount" : 3,
									"numinlets" : 1,
									"fontname" : "Arial",
									"frgb" : [ 0.0, 0.0, 0.0, 1.0 ],
									"numoutlets" : 0,
									"patching_rect" : [ 339.0, 111.0, 152.0, 38.0 ],
									"id" : "obj-24",
									"fontsize" : 9.0
								}

							}
, 							{
								"box" : 								{
									"maxclass" : "message",
									"text" : "0",
									"numinlets" : 2,
									"fontname" : "Arial",
									"numoutlets" : 1,
									"patching_rect" : [ 320.0, 114.0, 16.0, 15.0 ],
									"id" : "obj-25",
									"outlettype" : [ "" ],
									"fontsize" : 9.0
								}

							}
, 							{
								"box" : 								{
									"maxclass" : "newobj",
									"text" : "del",
									"numinlets" : 2,
									"fontname" : "Arial",
									"numoutlets" : 1,
									"patching_rect" : [ 74.0, 380.0, 54.0, 17.0 ],
									"id" : "obj-26",
									"outlettype" : [ "bang" ],
									"fontsize" : 9.0
								}

							}
, 							{
								"box" : 								{
									"maxclass" : "inlet",
									"numinlets" : 0,
									"numoutlets" : 1,
									"patching_rect" : [ 249.0, 24.0, 15.0, 15.0 ],
									"id" : "obj-27",
									"outlettype" : [ "" ],
									"comment" : ""
								}

							}
, 							{
								"box" : 								{
									"maxclass" : "outlet",
									"numinlets" : 1,
									"numoutlets" : 0,
									"patching_rect" : [ 232.0, 351.0, 15.0, 15.0 ],
									"id" : "obj-28",
									"comment" : ""
								}

							}
 ],
						"lines" : [ 							{
								"patchline" : 								{
									"source" : [ "obj-7", 1 ],
									"destination" : [ "obj-25", 0 ],
									"hidden" : 0,
									"midpoints" : [  ]
								}

							}
, 							{
								"patchline" : 								{
									"source" : [ "obj-7", 0 ],
									"destination" : [ "obj-8", 0 ],
									"hidden" : 0,
									"midpoints" : [  ]
								}

							}
, 							{
								"patchline" : 								{
									"source" : [ "obj-6", 0 ],
									"destination" : [ "obj-7", 0 ],
									"hidden" : 0,
									"midpoints" : [  ]
								}

							}
, 							{
								"patchline" : 								{
									"source" : [ "obj-10", 0 ],
									"destination" : [ "obj-6", 0 ],
									"hidden" : 0,
									"midpoints" : [  ]
								}

							}
, 							{
								"patchline" : 								{
									"source" : [ "obj-27", 0 ],
									"destination" : [ "obj-13", 1 ],
									"hidden" : 0,
									"midpoints" : [  ]
								}

							}
, 							{
								"patchline" : 								{
									"source" : [ "obj-12", 0 ],
									"destination" : [ "obj-28", 0 ],
									"hidden" : 0,
									"midpoints" : [  ]
								}

							}
, 							{
								"patchline" : 								{
									"source" : [ "obj-8", 0 ],
									"destination" : [ "obj-28", 0 ],
									"hidden" : 0,
									"midpoints" : [  ]
								}

							}
, 							{
								"patchline" : 								{
									"source" : [ "obj-13", 0 ],
									"destination" : [ "obj-12", 0 ],
									"hidden" : 0,
									"midpoints" : [  ]
								}

							}
, 							{
								"patchline" : 								{
									"source" : [ "obj-1", 2 ],
									"destination" : [ "obj-13", 0 ],
									"hidden" : 0,
									"midpoints" : [  ]
								}

							}
, 							{
								"patchline" : 								{
									"source" : [ "obj-25", 0 ],
									"destination" : [ "obj-3", 1 ],
									"hidden" : 0,
									"midpoints" : [  ]
								}

							}
, 							{
								"patchline" : 								{
									"source" : [ "obj-16", 1 ],
									"destination" : [ "obj-3", 1 ],
									"hidden" : 0,
									"midpoints" : [  ]
								}

							}
, 							{
								"patchline" : 								{
									"source" : [ "obj-4", 0 ],
									"destination" : [ "obj-11", 0 ],
									"hidden" : 0,
									"midpoints" : [  ]
								}

							}
, 							{
								"patchline" : 								{
									"source" : [ "obj-1", 1 ],
									"destination" : [ "obj-4", 0 ],
									"hidden" : 0,
									"midpoints" : [  ]
								}

							}
, 							{
								"patchline" : 								{
									"source" : [ "obj-2", 0 ],
									"destination" : [ "obj-1", 0 ],
									"hidden" : 0,
									"midpoints" : [  ]
								}

							}
, 							{
								"patchline" : 								{
									"source" : [ "obj-3", 0 ],
									"destination" : [ "obj-2", 0 ],
									"hidden" : 0,
									"midpoints" : [  ]
								}

							}
, 							{
								"patchline" : 								{
									"source" : [ "obj-26", 0 ],
									"destination" : [ "obj-3", 0 ],
									"hidden" : 0,
									"midpoints" : [  ]
								}

							}
, 							{
								"patchline" : 								{
									"source" : [ "obj-6", 1 ],
									"destination" : [ "obj-3", 0 ],
									"hidden" : 0,
									"midpoints" : [  ]
								}

							}
, 							{
								"patchline" : 								{
									"source" : [ "obj-16", 0 ],
									"destination" : [ "obj-26", 1 ],
									"hidden" : 0,
									"midpoints" : [  ]
								}

							}
, 							{
								"patchline" : 								{
									"source" : [ "obj-11", 0 ],
									"destination" : [ "obj-26", 1 ],
									"hidden" : 0,
									"midpoints" : [  ]
								}

							}
, 							{
								"patchline" : 								{
									"source" : [ "obj-15", 0 ],
									"destination" : [ "obj-16", 0 ],
									"hidden" : 0,
									"midpoints" : [  ]
								}

							}
, 							{
								"patchline" : 								{
									"source" : [ "obj-5", 0 ],
									"destination" : [ "obj-26", 0 ],
									"hidden" : 0,
									"midpoints" : [  ]
								}

							}
, 							{
								"patchline" : 								{
									"source" : [ "obj-1", 0 ],
									"destination" : [ "obj-26", 0 ],
									"hidden" : 0,
									"midpoints" : [  ]
								}

							}
, 							{
								"patchline" : 								{
									"source" : [ "obj-6", 0 ],
									"destination" : [ "obj-5", 0 ],
									"hidden" : 0,
									"midpoints" : [  ]
								}

							}
 ]
					}
,
					"saved_object_attributes" : 					{
						"fontname" : "Arial",
						"default_fontname" : "Arial",
						"default_fontsize" : 12.0,
						"fontface" : 0,
						"fontsize" : 12.0,
						"globalpatchername" : "",
						"default_fontface" : 0
					}

				}

			}
, 			{
				"box" : 				{
					"maxclass" : "newobj",
					"text" : "qlist anat04",
					"numinlets" : 1,
					"fontname" : "Arial",
					"numoutlets" : 3,
					"patching_rect" : [ 55.0, 299.0, 115.0, 27.0 ],
					"id" : "obj-28",
					"outlettype" : [ "", "bang", "bang" ],
					"fontsize" : 18.0,
					"color" : [ 0.6, 0.4, 0.6, 1.0 ],
					"save" : [ "#N", "qlist", ";", "#X", "insert", "------------------------", 1, ";", ";", "#X", "insert", 0, 1, "OSC", "/effect*/gain", 0.5, ";", ";", "#X", "insert", "OSC", "/effect1/color", 1.0, ";", ";", "#X", "insert", "OSC", "/effect2/ramp", -1.0, ";", ";", "#X", "insert", "------------------------", 2, ";", ";", "#X", "insert", 0, 2, "OSC", "/effect1/gain", 1.0, ";", ";", "#X", "insert", 1000, "OSC", "/effect1/color", 0.3, ";", ";", "#X", "insert", 500, "OSC", "/effect2/gain", 0.7, ";", ";", "#X", "insert", 500, "OSC", "/effect2/ramp", 1.0, 8000, ";", ";", "#X", "insert", "------------------------", 3, ";", ";", "#X", "insert", 0, 3, ";", ";" ]
				}

			}
, 			{
				"box" : 				{
					"maxclass" : "newobj",
					"text" : "pcontrol",
					"numinlets" : 1,
					"fontname" : "Arial",
					"hidden" : 1,
					"numoutlets" : 1,
					"patching_rect" : [ 739.0, 664.0, 47.0, 17.0 ],
					"id" : "obj-29",
					"outlettype" : [ "" ],
					"fontsize" : 9.0
				}

			}
, 			{
				"box" : 				{
					"maxclass" : "newobj",
					"text" : "thispatcher",
					"numinlets" : 1,
					"fontname" : "Arial",
					"hidden" : 1,
					"numoutlets" : 2,
					"patching_rect" : [ 7.0, 666.0, 61.0, 17.0 ],
					"id" : "obj-30",
					"outlettype" : [ "", "" ],
					"fontsize" : 9.0,
					"save" : [ "#N", "thispatcher", ";", "#Q", "end", ";" ]
				}

			}
, 			{
				"box" : 				{
					"maxclass" : "newobj",
					"text" : "loadmess set 4",
					"numinlets" : 1,
					"fontname" : "Arial",
					"hidden" : 1,
					"numoutlets" : 1,
					"patching_rect" : [ 7.0, 606.0, 77.0, 17.0 ],
					"id" : "obj-31",
					"outlettype" : [ "" ],
					"fontsize" : 9.0
				}

			}
, 			{
				"box" : 				{
					"maxclass" : "bpatcher",
					"numinlets" : 1,
					"numoutlets" : 2,
					"patching_rect" : [ 7.0, 628.0, 781.0, 33.0 ],
					"args" : [  ],
					"id" : "obj-32",
					"outlettype" : [ "", "" ],
					"name" : "z.nav_buttons-ea.mxb",
					"offset" : [ -2.0, -40.0 ]
				}

			}
, 			{
				"box" : 				{
					"maxclass" : "bpatcher",
					"numinlets" : 0,
					"numoutlets" : 0,
					"patching_rect" : [ 14.0, 20.0, 631.0, 97.0 ],
					"args" : [  ],
					"id" : "obj-33",
					"name" : "z.banner-ea.mxb",
					"offset" : [ -26.0, -23.0 ]
				}

			}
, 			{
				"box" : 				{
					"maxclass" : "newobj",
					"text" : "bgcolor 210 240 210",
					"numinlets" : 4,
					"fontname" : "Arial",
					"hidden" : 1,
					"numoutlets" : 0,
					"patching_rect" : [ 20.0, 121.0, 106.0, 17.0 ],
					"id" : "obj-34",
					"fontsize" : 9.0
				}

			}
, 			{
				"box" : 				{
					"maxclass" : "comment",
					"text" : "Anatomy of a Cue",
					"numinlets" : 1,
					"fontname" : "Arial",
					"frgb" : [ 0.290196, 0.611765, 0.380392, 1.0 ],
					"numoutlets" : 0,
					"patching_rect" : [ 264.0, 133.0, 267.0, 27.0 ],
					"id" : "obj-35",
					"textcolor" : [ 0.290196, 0.611765, 0.380392, 1.0 ],
					"fontsize" : 18.0
				}

			}
, 			{
				"box" : 				{
					"maxclass" : "comment",
					"text" : "Expriment with clicking on the number boxes to the left. Remeber that zero rewinds. Then, doubleclick on the qlist object to see the data that make up each cue.",
					"linecount" : 2,
					"numinlets" : 1,
					"fontname" : "Arial",
					"frgb" : [ 0.0, 0.0, 0.0, 1.0 ],
					"numoutlets" : 0,
					"patching_rect" : [ 289.0, 162.0, 389.0, 27.0 ],
					"id" : "obj-36",
					"fontsize" : 9.0
				}

			}
, 			{
				"box" : 				{
					"maxclass" : "comment",
					"text" : "Event numbers go in the rightmost inlet.",
					"linecount" : 2,
					"numinlets" : 1,
					"fontname" : "Arial",
					"frgb" : [ 0.0, 0.0, 0.0, 1.0 ],
					"numoutlets" : 0,
					"patching_rect" : [ 38.0, 198.0, 100.0, 27.0 ],
					"id" : "obj-37",
					"fontsize" : 9.0
				}

			}
, 			{
				"box" : 				{
					"maxclass" : "comment",
					"text" : "typical qlist setup",
					"numinlets" : 1,
					"fontname" : "Arial",
					"frgb" : [ 0.0, 0.0, 0.0, 1.0 ],
					"numoutlets" : 0,
					"patching_rect" : [ 39.0, 160.0, 171.0, 27.0 ],
					"id" : "obj-38",
					"fontsize" : 18.0
				}

			}
, 			{
				"box" : 				{
					"maxclass" : "comment",
					"text" : "------------------------ 1;\r0 1 OSC /effect*/gain 0.5;\rOSC /effect1/color 1.;\rOSC /effect2/ramp -1.;\r",
					"linecount" : 4,
					"numinlets" : 1,
					"fontname" : "Arial",
					"frgb" : [ 0.0, 0.0, 0.0, 1.0 ],
					"numoutlets" : 0,
					"patching_rect" : [ 507.0, 191.0, 143.0, 48.0 ],
					"id" : "obj-39",
					"fontsize" : 9.0
				}

			}
, 			{
				"box" : 				{
					"maxclass" : "panel",
					"numinlets" : 1,
					"numoutlets" : 0,
					"patching_rect" : [ 506.0, 190.0, 145.0, 51.0 ],
					"border" : 1,
					"rounded" : 0,
					"id" : "obj-40",
					"bgcolor" : [ 1.0, 1.0, 1.0, 1.0 ]
				}

			}
, 			{
				"box" : 				{
					"maxclass" : "panel",
					"numinlets" : 1,
					"shadow" : 5,
					"numoutlets" : 0,
					"patching_rect" : [ 259.0, 130.0, 535.0, 356.0 ],
					"rounded" : 0,
					"id" : "obj-41",
					"bgcolor" : [ 1.0, 1.0, 1.0, 1.0 ],
					"background" : 1
				}

			}
 ],
		"lines" : [ 			{
				"patchline" : 				{
					"source" : [ "obj-32", 1 ],
					"destination" : [ "obj-29", 0 ],
					"hidden" : 1,
					"midpoints" : [  ]
				}

			}
, 			{
				"patchline" : 				{
					"source" : [ "obj-16", 0 ],
					"destination" : [ "obj-13", 0 ],
					"hidden" : 0,
					"midpoints" : [  ]
				}

			}
, 			{
				"patchline" : 				{
					"source" : [ "obj-17", 1 ],
					"destination" : [ "obj-16", 0 ],
					"hidden" : 0,
					"midpoints" : [  ]
				}

			}
, 			{
				"patchline" : 				{
					"source" : [ "obj-15", 0 ],
					"destination" : [ "obj-10", 0 ],
					"hidden" : 0,
					"midpoints" : [  ]
				}

			}
, 			{
				"patchline" : 				{
					"source" : [ "obj-17", 0 ],
					"destination" : [ "obj-15", 0 ],
					"hidden" : 0,
					"midpoints" : [  ]
				}

			}
, 			{
				"patchline" : 				{
					"source" : [ "obj-21", 1 ],
					"destination" : [ "obj-17", 0 ],
					"hidden" : 0,
					"midpoints" : [ 151.5, 460.0, 220.5, 460.0 ]
				}

			}
, 			{
				"patchline" : 				{
					"source" : [ "obj-26", 0 ],
					"destination" : [ "obj-27", 2 ],
					"hidden" : 0,
					"midpoints" : [ 168.5, 208.0, 175.5, 208.0 ]
				}

			}
, 			{
				"patchline" : 				{
					"source" : [ "obj-25", 0 ],
					"destination" : [ "obj-27", 2 ],
					"hidden" : 0,
					"midpoints" : [ 168.5, 230.0, 175.5, 230.0 ]
				}

			}
, 			{
				"patchline" : 				{
					"source" : [ "obj-24", 0 ],
					"destination" : [ "obj-27", 2 ],
					"hidden" : 0,
					"midpoints" : [ 168.5, 254.0, 175.5, 254.0 ]
				}

			}
, 			{
				"patchline" : 				{
					"source" : [ "obj-18", 0 ],
					"destination" : [ "obj-11", 0 ],
					"hidden" : 0,
					"midpoints" : [  ]
				}

			}
, 			{
				"patchline" : 				{
					"source" : [ "obj-20", 1 ],
					"destination" : [ "obj-18", 0 ],
					"hidden" : 0,
					"midpoints" : [  ]
				}

			}
, 			{
				"patchline" : 				{
					"source" : [ "obj-19", 0 ],
					"destination" : [ "obj-12", 0 ],
					"hidden" : 0,
					"midpoints" : [  ]
				}

			}
, 			{
				"patchline" : 				{
					"source" : [ "obj-20", 0 ],
					"destination" : [ "obj-19", 0 ],
					"hidden" : 0,
					"midpoints" : [  ]
				}

			}
, 			{
				"patchline" : 				{
					"source" : [ "obj-21", 0 ],
					"destination" : [ "obj-20", 0 ],
					"hidden" : 0,
					"midpoints" : [  ]
				}

			}
, 			{
				"patchline" : 				{
					"source" : [ "obj-22", 0 ],
					"destination" : [ "obj-21", 0 ],
					"hidden" : 0,
					"midpoints" : [  ]
				}

			}
, 			{
				"patchline" : 				{
					"source" : [ "obj-27", 0 ],
					"destination" : [ "obj-28", 0 ],
					"hidden" : 0,
					"midpoints" : [  ]
				}

			}
, 			{
				"patchline" : 				{
					"source" : [ "obj-28", 0 ],
					"destination" : [ "obj-27", 0 ],
					"hidden" : 0,
					"midpoints" : [ 64.5, 343.0, 37.0, 343.0, 37.0, 245.0, 64.5, 245.0 ]
				}

			}
, 			{
				"patchline" : 				{
					"source" : [ "obj-32", 0 ],
					"destination" : [ "obj-30", 0 ],
					"hidden" : 1,
					"midpoints" : [  ]
				}

			}
, 			{
				"patchline" : 				{
					"source" : [ "obj-31", 0 ],
					"destination" : [ "obj-32", 0 ],
					"hidden" : 1,
					"midpoints" : [  ]
				}

			}
 ]
	}

}
