{
	"patcher" : 	{
		"fileversion" : 1,
		"rect" : [ 2.0, 44.0, 846.0, 732.0 ],
		"bgcolor" : [ 0.823529, 0.941176, 0.823529, 1.0 ],
		"bglocked" : 0,
		"defrect" : [ 2.0, 44.0, 846.0, 732.0 ],
		"openrect" : [ 0.0, 0.0, 0.0, 0.0 ],
		"openinpresentation" : 0,
		"default_fontsize" : 12.0,
		"default_fontface" : 0,
		"default_fontname" : "Arial",
		"gridonopen" : 0,
		"gridsize" : [ 4.0, 4.0 ],
		"gridsnaponopen" : 0,
		"toolbarvisible" : 1,
		"boxanimatetime" : 200,
		"imprint" : 0,
		"enablehscroll" : 1,
		"enablevscroll" : 1,
		"devicewidth" : 0.0,
		"boxes" : [ 			{
				"box" : 				{
					"maxclass" : "newobj",
					"text" : "pcontrol",
					"numinlets" : 1,
					"fontname" : "Arial",
					"hidden" : 1,
					"numoutlets" : 1,
					"patching_rect" : [ 738.0, 657.0, 47.0, 17.0 ],
					"id" : "obj-1",
					"outlettype" : [ "" ],
					"fontsize" : 9.0
				}

			}
, 			{
				"box" : 				{
					"maxclass" : "newobj",
					"text" : "thispatcher",
					"numinlets" : 1,
					"fontname" : "Arial",
					"hidden" : 1,
					"numoutlets" : 2,
					"patching_rect" : [ 6.0, 659.0, 61.0, 17.0 ],
					"id" : "obj-2",
					"outlettype" : [ "", "" ],
					"fontsize" : 9.0,
					"save" : [ "#N", "thispatcher", ";", "#Q", "end", ";" ]
				}

			}
, 			{
				"box" : 				{
					"maxclass" : "newobj",
					"text" : "loadmess set 2",
					"numinlets" : 1,
					"fontname" : "Arial",
					"hidden" : 1,
					"numoutlets" : 1,
					"patching_rect" : [ 6.0, 598.0, 77.0, 17.0 ],
					"id" : "obj-3",
					"outlettype" : [ "" ],
					"fontsize" : 9.0
				}

			}
, 			{
				"box" : 				{
					"maxclass" : "bpatcher",
					"numinlets" : 1,
					"numoutlets" : 2,
					"patching_rect" : [ 6.0, 621.0, 781.0, 33.0 ],
					"args" : [  ],
					"id" : "obj-4",
					"outlettype" : [ "", "" ],
					"name" : "z.nav_buttons-ea.mxb",
					"offset" : [ -2.0, -40.0 ]
				}

			}
, 			{
				"box" : 				{
					"maxclass" : "bpatcher",
					"numinlets" : 0,
					"numoutlets" : 0,
					"patching_rect" : [ 7.0, 13.0, 631.0, 97.0 ],
					"args" : [  ],
					"id" : "obj-5",
					"name" : "z.banner-ea.mxb",
					"offset" : [ -26.0, -23.0 ]
				}

			}
, 			{
				"box" : 				{
					"maxclass" : "newobj",
					"text" : "bgcolor 210 240 210",
					"numinlets" : 4,
					"fontname" : "Arial",
					"hidden" : 1,
					"numoutlets" : 0,
					"patching_rect" : [ 13.0, 114.0, 106.0, 17.0 ],
					"id" : "obj-6",
					"fontsize" : 9.0
				}

			}
 ],
		"lines" : [ 			{
				"patchline" : 				{
					"source" : [ "obj-4", 1 ],
					"destination" : [ "obj-1", 0 ],
					"hidden" : 1,
					"midpoints" : [  ]
				}

			}
, 			{
				"patchline" : 				{
					"source" : [ "obj-4", 0 ],
					"destination" : [ "obj-2", 0 ],
					"hidden" : 1,
					"midpoints" : [  ]
				}

			}
, 			{
				"patchline" : 				{
					"source" : [ "obj-3", 0 ],
					"destination" : [ "obj-4", 0 ],
					"hidden" : 1,
					"midpoints" : [  ]
				}

			}
 ]
	}

}
