{
	"patcher" : 	{
		"fileversion" : 1,
		"rect" : [ 325.0, 176.0, 306.0, 392.0 ],
		"bglocked" : 0,
		"defrect" : [ 325.0, 176.0, 306.0, 392.0 ],
		"openrect" : [ 0.0, 0.0, 0.0, 0.0 ],
		"openinpresentation" : 0,
		"default_fontsize" : 12.0,
		"default_fontface" : 0,
		"default_fontname" : "Arial",
		"gridonopen" : 0,
		"gridsize" : [ 4.0, 4.0 ],
		"gridsnaponopen" : 0,
		"toolbarvisible" : 1,
		"boxanimatetime" : 200,
		"imprint" : 0,
		"enablehscroll" : 1,
		"enablevscroll" : 1,
		"devicewidth" : 0.0,
		"boxes" : [ 			{
				"box" : 				{
					"maxclass" : "comment",
					"text" : "mono-multisample-player version 1.2, by Matt Wright",
					"linecount" : 2,
					"fontsize" : 9.0,
					"numoutlets" : 0,
					"patching_rect" : [ 143.0, 300.0, 132.0, 31.0 ],
					"id" : "obj-1",
					"frgb" : [ 0.0, 0.0, 0.0, 1.0 ],
					"fontname" : "Geneva",
					"numinlets" : 1
				}

			}
, 			{
				"box" : 				{
					"maxclass" : "newobj",
					"text" : "p copyright",
					"fontsize" : 9.0,
					"numoutlets" : 0,
					"patching_rect" : [ 145.0, 325.0, 59.0, 19.0 ],
					"id" : "obj-2",
					"fontname" : "Geneva",
					"numinlets" : 0,
					"patcher" : 					{
						"fileversion" : 1,
						"rect" : [ 50.0, 40.0, 365.0, 372.0 ],
						"bglocked" : 0,
						"defrect" : [ 50.0, 40.0, 365.0, 372.0 ],
						"openrect" : [ 0.0, 0.0, 0.0, 0.0 ],
						"openinpresentation" : 0,
						"default_fontsize" : 12.0,
						"default_fontface" : 0,
						"default_fontname" : "Arial",
						"gridonopen" : 0,
						"gridsize" : [ 4.0, 4.0 ],
						"gridsnaponopen" : 0,
						"toolbarvisible" : 1,
						"boxanimatetime" : 200,
						"imprint" : 0,
						"enablehscroll" : 1,
						"enablevscroll" : 1,
						"devicewidth" : 0.0,
						"boxes" : [ 							{
								"box" : 								{
									"maxclass" : "comment",
									"text" : "IN NO EVENT SHALL REGENTS BE LIABLE TO ANY PARTY FOR DIRECT, INDIRECT, SPECIAL, INCIDENTAL, OR CONSEQUENTIAL DAMAGES, INCLUDING LOST PROFITS, ARISING OUT OF THE USE OF THIS SOFTWARE AND ITS DOCUMENTATION, EVEN IF REGENTS HAS BEEN ADVISED OF THE POSSIBILITY OF SUCH DAMAGE.",
									"linecount" : 5,
									"fontsize" : 9.0,
									"numoutlets" : 0,
									"patching_rect" : [ 39.0, 180.0, 307.0, 67.0 ],
									"id" : "obj-1",
									"frgb" : [ 0.0, 0.0, 0.0, 1.0 ],
									"fontname" : "Geneva",
									"numinlets" : 1
								}

							}
, 							{
								"box" : 								{
									"maxclass" : "comment",
									"text" : "REGENTS SPECIFICALLY DISCLAIMS ANY WARRANTIES, INCLUDING, BUT NOT LIMITED TO, THE IMPLIED WARRANTIES OF MERCHANTABILITY AND FITNESS FOR A PARTICULAR PURPOSE. THE SOFTWARE AND ACCOMPANYING DOCUMENTATION, IF ANY, PROVIDED HEREUNDER IS PROVIDED \"AS IS.\" REGENTS HAS NO OBLIGATION TO PROVIDE MAINTENANCE, SUPPORT, UPDATES, ENHANCEMENTS, OR MODIFICATIONS.",
									"linecount" : 7,
									"fontsize" : 9.0,
									"numoutlets" : 0,
									"patching_rect" : [ 39.0, 244.0, 307.0, 91.0 ],
									"id" : "obj-2",
									"frgb" : [ 0.0, 0.0, 0.0, 1.0 ],
									"fontname" : "Geneva",
									"numinlets" : 1
								}

							}
, 							{
								"box" : 								{
									"maxclass" : "comment",
									"text" : "Written by Matt Wright, The Center for New Music and Audio Technologies, University of California, Berkeley.",
									"linecount" : 2,
									"fontsize" : 9.0,
									"numoutlets" : 0,
									"patching_rect" : [ 6.0, 151.0, 340.0, 31.0 ],
									"id" : "obj-3",
									"frgb" : [ 0.0, 0.0, 0.0, 1.0 ],
									"fontname" : "Geneva",
									"numinlets" : 1
								}

							}
, 							{
								"box" : 								{
									"maxclass" : "comment",
									"text" : "Copyright (c) 1998. The Regents of the University of California (Regents). All Rights Reserved.",
									"linecount" : 2,
									"fontsize" : 9.0,
									"numoutlets" : 0,
									"patching_rect" : [ 5.0, 26.0, 341.0, 31.0 ],
									"id" : "obj-4",
									"frgb" : [ 0.0, 0.0, 0.0, 1.0 ],
									"fontname" : "Geneva",
									"numinlets" : 1
								}

							}
, 							{
								"box" : 								{
									"maxclass" : "comment",
									"text" : "Permission to use, copy, modify, and distribute this software and its documentation for educational, research, and not-for-profit purposes, without fee and without a signed licensing agreement, is hereby granted, provided that the above copyright notice, this paragraph and the following two paragraphs appear in all copies, modifications, and distributions. Contact The Office of Technology Licensing, UC Berkeley, 2150 Shattuck Avenue, Suite 510, Berkeley, CA 94720-1620, (510) 643-7201, for commercial licensing opportunities.",
									"linecount" : 8,
									"fontsize" : 9.0,
									"numoutlets" : 0,
									"patching_rect" : [ 6.0, 53.0, 340.0, 103.0 ],
									"id" : "obj-5",
									"frgb" : [ 0.0, 0.0, 0.0, 1.0 ],
									"fontname" : "Geneva",
									"numinlets" : 1
								}

							}
 ],
						"lines" : [  ]
					}
,
					"saved_object_attributes" : 					{
						"fontface" : 0,
						"fontsize" : 12.0,
						"default_fontface" : 0,
						"default_fontname" : "Arial",
						"fontname" : "Arial",
						"globalpatchername" : "",
						"default_fontsize" : 12.0
					}

				}

			}
, 			{
				"box" : 				{
					"maxclass" : "inlet",
					"numoutlets" : 1,
					"outlettype" : [ "" ],
					"patching_rect" : [ 67.0, 266.0, 15.0, 15.0 ],
					"id" : "obj-3",
					"numinlets" : 0,
					"comment" : "Envelope for note-on (line~ style)"
				}

			}
, 			{
				"box" : 				{
					"maxclass" : "message",
					"text" : "clear",
					"fontsize" : 9.0,
					"numoutlets" : 1,
					"outlettype" : [ "" ],
					"patching_rect" : [ 195.0, 160.0, 31.0, 17.0 ],
					"id" : "obj-4",
					"fontname" : "Geneva",
					"numinlets" : 2
				}

			}
, 			{
				"box" : 				{
					"maxclass" : "outlet",
					"numoutlets" : 0,
					"patching_rect" : [ 7.0, 316.0, 15.0, 15.0 ],
					"id" : "obj-5",
					"numinlets" : 1,
					"comment" : "Output (signal)"
				}

			}
, 			{
				"box" : 				{
					"maxclass" : "newobj",
					"text" : "pack s f",
					"fontsize" : 9.0,
					"numoutlets" : 1,
					"outlettype" : [ "" ],
					"patching_rect" : [ 139.0, 249.0, 43.0, 19.0 ],
					"id" : "obj-6",
					"fontname" : "Geneva",
					"numinlets" : 2
				}

			}
, 			{
				"box" : 				{
					"maxclass" : "newobj",
					"text" : "unpack s f",
					"fontsize" : 9.0,
					"numoutlets" : 2,
					"outlettype" : [ "", "float" ],
					"patching_rect" : [ 139.0, 228.0, 53.0, 19.0 ],
					"id" : "obj-7",
					"fontname" : "Geneva",
					"numinlets" : 1
				}

			}
, 			{
				"box" : 				{
					"maxclass" : "newobj",
					"text" : "+ 0.",
					"fontsize" : 9.0,
					"numoutlets" : 1,
					"outlettype" : [ "float" ],
					"patching_rect" : [ 97.0, 249.0, 27.0, 19.0 ],
					"id" : "obj-8",
					"fontname" : "Geneva",
					"numinlets" : 2
				}

			}
, 			{
				"box" : 				{
					"maxclass" : "newobj",
					"text" : "t i b f",
					"fontsize" : 9.0,
					"numoutlets" : 3,
					"outlettype" : [ "int", "bang", "float" ],
					"patching_rect" : [ 22.0, 145.0, 40.0, 19.0 ],
					"id" : "obj-9",
					"fontname" : "Geneva",
					"numinlets" : 1
				}

			}
, 			{
				"box" : 				{
					"maxclass" : "inlet",
					"numoutlets" : 1,
					"outlettype" : [ "" ],
					"patching_rect" : [ 37.0, 266.0, 15.0, 15.0 ],
					"id" : "obj-10",
					"numinlets" : 0,
					"comment" : "Bang to stop note"
				}

			}
, 			{
				"box" : 				{
					"maxclass" : "inlet",
					"numoutlets" : 1,
					"outlettype" : [ "" ],
					"patching_rect" : [ 97.0, 219.0, 15.0, 15.0 ],
					"id" : "obj-11",
					"numinlets" : 0,
					"comment" : "Pitch \\\"bend\\\" offset amount (float # semitones)"
				}

			}
, 			{
				"box" : 				{
					"maxclass" : "inlet",
					"numoutlets" : 1,
					"outlettype" : [ "" ],
					"patching_rect" : [ 22.0, 127.0, 15.0, 15.0 ],
					"id" : "obj-12",
					"numinlets" : 0,
					"comment" : "Start note by giving center pitch"
				}

			}
, 			{
				"box" : 				{
					"maxclass" : "newobj",
					"text" : "mono-sample-player",
					"fontsize" : 9.0,
					"numoutlets" : 1,
					"outlettype" : [ "signal" ],
					"patching_rect" : [ 7.0, 296.0, 101.0, 19.0 ],
					"id" : "obj-13",
					"fontname" : "Geneva",
					"numinlets" : 4
				}

			}
, 			{
				"box" : 				{
					"maxclass" : "newobj",
					"text" : "coll",
					"fontsize" : 9.0,
					"numoutlets" : 4,
					"outlettype" : [ "", "", "", "" ],
					"patching_rect" : [ 125.0, 104.0, 40.0, 19.0 ],
					"id" : "obj-14",
					"fontname" : "Geneva",
					"numinlets" : 1,
					"saved_object_attributes" : 					{
						"embed" : 0
					}

				}

			}
, 			{
				"box" : 				{
					"maxclass" : "message",
					"text" : "dump",
					"linecount" : 2,
					"fontsize" : 9.0,
					"numoutlets" : 1,
					"outlettype" : [ "" ],
					"patching_rect" : [ 125.0, 76.0, 31.0, 29.0 ],
					"id" : "obj-15",
					"fontname" : "Geneva",
					"numinlets" : 2
				}

			}
, 			{
				"box" : 				{
					"maxclass" : "newobj",
					"text" : "prepend refer",
					"fontsize" : 9.0,
					"numoutlets" : 1,
					"outlettype" : [ "" ],
					"patching_rect" : [ 163.0, 70.0, 70.0, 19.0 ],
					"id" : "obj-16",
					"fontname" : "Geneva",
					"numinlets" : 1
				}

			}
, 			{
				"box" : 				{
					"maxclass" : "newobj",
					"text" : "coll",
					"fontsize" : 9.0,
					"numoutlets" : 4,
					"outlettype" : [ "", "", "", "" ],
					"patching_rect" : [ 139.0, 208.0, 40.0, 19.0 ],
					"id" : "obj-17",
					"fontname" : "Geneva",
					"numinlets" : 1,
					"saved_object_attributes" : 					{
						"embed" : 0
					}

				}

			}
, 			{
				"box" : 				{
					"maxclass" : "newobj",
					"text" : "unpack s i i",
					"fontsize" : 9.0,
					"numoutlets" : 3,
					"outlettype" : [ "", "int", "int" ],
					"patching_rect" : [ 125.0, 128.0, 58.0, 19.0 ],
					"id" : "obj-18",
					"fontname" : "Geneva",
					"numinlets" : 1
				}

			}
, 			{
				"box" : 				{
					"maxclass" : "newobj",
					"text" : "pack i i",
					"fontsize" : 9.0,
					"numoutlets" : 1,
					"outlettype" : [ "" ],
					"patching_rect" : [ 139.0, 160.0, 40.0, 19.0 ],
					"id" : "obj-19",
					"fontname" : "Geneva",
					"numinlets" : 2
				}

			}
, 			{
				"box" : 				{
					"maxclass" : "newobj",
					"text" : "funbuff",
					"fontsize" : 9.0,
					"numoutlets" : 3,
					"outlettype" : [ "int", "int", "bang" ],
					"patching_rect" : [ 139.0, 185.0, 40.0, 19.0 ],
					"id" : "obj-20",
					"fontname" : "Geneva",
					"numinlets" : 2,
					"save" : [ "#N", "funbuff", 0, ";" ]
				}

			}
, 			{
				"box" : 				{
					"maxclass" : "newobj",
					"text" : "t b s b",
					"fontsize" : 9.0,
					"numoutlets" : 3,
					"outlettype" : [ "bang", "", "bang" ],
					"patching_rect" : [ 148.0, 45.0, 40.0, 19.0 ],
					"id" : "obj-21",
					"fontname" : "Geneva",
					"numinlets" : 1
				}

			}
, 			{
				"box" : 				{
					"maxclass" : "inlet",
					"numoutlets" : 1,
					"outlettype" : [ "" ],
					"patching_rect" : [ 148.0, 24.0, 15.0, 15.0 ],
					"id" : "obj-22",
					"numinlets" : 0,
					"comment" : "Instrument to use (name of coll)"
				}

			}
, 			{
				"box" : 				{
					"maxclass" : "comment",
					"text" : "This funbuff tells us which sample to use for a given desired center pitch. Its X values are pitches and its Y values are coll indices.",
					"linecount" : 8,
					"fontsize" : 9.0,
					"numoutlets" : 0,
					"patching_rect" : [ 193.0, 180.0, 87.0, 103.0 ],
					"id" : "obj-23",
					"frgb" : [ 0.0, 0.0, 0.0, 1.0 ],
					"fontname" : "Geneva",
					"numinlets" : 1
				}

			}
, 			{
				"box" : 				{
					"maxclass" : "comment",
					"text" : "The whole point of this patch is to figure out which sample of a multisample to use, and then get mono-sample-player to do the work.",
					"linecount" : 8,
					"fontsize" : 9.0,
					"numoutlets" : 0,
					"patching_rect" : [ 18.0, 33.0, 101.0, 103.0 ],
					"id" : "obj-24",
					"frgb" : [ 0.0, 0.0, 0.0, 1.0 ],
					"fontname" : "Geneva",
					"numinlets" : 1
				}

			}
 ],
		"lines" : [ 			{
				"patchline" : 				{
					"source" : [ "obj-22", 0 ],
					"destination" : [ "obj-21", 0 ],
					"hidden" : 0,
					"midpoints" : [  ]
				}

			}
, 			{
				"patchline" : 				{
					"source" : [ "obj-21", 1 ],
					"destination" : [ "obj-16", 0 ],
					"hidden" : 0,
					"midpoints" : [  ]
				}

			}
, 			{
				"patchline" : 				{
					"source" : [ "obj-21", 2 ],
					"destination" : [ "obj-4", 0 ],
					"hidden" : 0,
					"midpoints" : [ 178.5, 66.0, 240.0, 66.0, 240.0, 156.0, 204.5, 156.0 ]
				}

			}
, 			{
				"patchline" : 				{
					"source" : [ "obj-21", 0 ],
					"destination" : [ "obj-15", 0 ],
					"hidden" : 0,
					"midpoints" : [  ]
				}

			}
, 			{
				"patchline" : 				{
					"source" : [ "obj-20", 0 ],
					"destination" : [ "obj-17", 0 ],
					"hidden" : 0,
					"midpoints" : [  ]
				}

			}
, 			{
				"patchline" : 				{
					"source" : [ "obj-18", 2 ],
					"destination" : [ "obj-19", 0 ],
					"hidden" : 0,
					"midpoints" : [  ]
				}

			}
, 			{
				"patchline" : 				{
					"source" : [ "obj-19", 0 ],
					"destination" : [ "obj-20", 0 ],
					"hidden" : 0,
					"midpoints" : [  ]
				}

			}
, 			{
				"patchline" : 				{
					"source" : [ "obj-17", 0 ],
					"destination" : [ "obj-7", 0 ],
					"hidden" : 0,
					"midpoints" : [  ]
				}

			}
, 			{
				"patchline" : 				{
					"source" : [ "obj-16", 0 ],
					"destination" : [ "obj-17", 0 ],
					"hidden" : 0,
					"midpoints" : [ 172.5, 101.0, 189.0, 101.0, 189.0, 204.0, 148.5, 204.0 ]
				}

			}
, 			{
				"patchline" : 				{
					"source" : [ "obj-16", 0 ],
					"destination" : [ "obj-14", 0 ],
					"hidden" : 0,
					"midpoints" : [  ]
				}

			}
, 			{
				"patchline" : 				{
					"source" : [ "obj-15", 0 ],
					"destination" : [ "obj-14", 0 ],
					"hidden" : 0,
					"midpoints" : [  ]
				}

			}
, 			{
				"patchline" : 				{
					"source" : [ "obj-14", 1 ],
					"destination" : [ "obj-19", 1 ],
					"hidden" : 0,
					"midpoints" : [  ]
				}

			}
, 			{
				"patchline" : 				{
					"source" : [ "obj-14", 0 ],
					"destination" : [ "obj-18", 0 ],
					"hidden" : 0,
					"midpoints" : [  ]
				}

			}
, 			{
				"patchline" : 				{
					"source" : [ "obj-13", 0 ],
					"destination" : [ "obj-5", 0 ],
					"hidden" : 0,
					"midpoints" : [  ]
				}

			}
, 			{
				"patchline" : 				{
					"source" : [ "obj-12", 0 ],
					"destination" : [ "obj-9", 0 ],
					"hidden" : 0,
					"midpoints" : [  ]
				}

			}
, 			{
				"patchline" : 				{
					"source" : [ "obj-11", 0 ],
					"destination" : [ "obj-8", 0 ],
					"hidden" : 0,
					"midpoints" : [  ]
				}

			}
, 			{
				"patchline" : 				{
					"source" : [ "obj-10", 0 ],
					"destination" : [ "obj-13", 1 ],
					"hidden" : 0,
					"midpoints" : [  ]
				}

			}
, 			{
				"patchline" : 				{
					"source" : [ "obj-9", 1 ],
					"destination" : [ "obj-8", 0 ],
					"hidden" : 0,
					"midpoints" : [  ]
				}

			}
, 			{
				"patchline" : 				{
					"source" : [ "obj-9", 0 ],
					"destination" : [ "obj-20", 0 ],
					"hidden" : 0,
					"midpoints" : [ 31.5, 180.0, 148.5, 180.0 ]
				}

			}
, 			{
				"patchline" : 				{
					"source" : [ "obj-6", 0 ],
					"destination" : [ "obj-13", 0 ],
					"hidden" : 0,
					"midpoints" : [ 148.5, 291.0, 16.5, 291.0 ]
				}

			}
, 			{
				"patchline" : 				{
					"source" : [ "obj-9", 2 ],
					"destination" : [ "obj-8", 1 ],
					"hidden" : 0,
					"midpoints" : [  ]
				}

			}
, 			{
				"patchline" : 				{
					"source" : [ "obj-8", 0 ],
					"destination" : [ "obj-13", 3 ],
					"hidden" : 0,
					"midpoints" : [  ]
				}

			}
, 			{
				"patchline" : 				{
					"source" : [ "obj-7", 1 ],
					"destination" : [ "obj-6", 1 ],
					"hidden" : 0,
					"midpoints" : [  ]
				}

			}
, 			{
				"patchline" : 				{
					"source" : [ "obj-7", 0 ],
					"destination" : [ "obj-6", 0 ],
					"hidden" : 0,
					"midpoints" : [  ]
				}

			}
, 			{
				"patchline" : 				{
					"source" : [ "obj-4", 0 ],
					"destination" : [ "obj-20", 0 ],
					"hidden" : 0,
					"midpoints" : [  ]
				}

			}
, 			{
				"patchline" : 				{
					"source" : [ "obj-3", 0 ],
					"destination" : [ "obj-13", 2 ],
					"hidden" : 0,
					"midpoints" : [  ]
				}

			}
 ]
	}

}
