{
	"patcher" : 	{
		"fileversion" : 1,
		"appversion" : 		{
			"major" : 6,
			"minor" : 0,
			"revision" : 4
		}
,
		"rect" : [ 6.0, 51.0, 1437.0, 588.0 ],
		"bgcolor" : [ 0.196078, 0.270588, 0.309804, 1.0 ],
		"bglocked" : 0,
		"openinpresentation" : 1,
		"default_fontsize" : 12.0,
		"default_fontface" : 0,
		"default_fontname" : "Arial",
		"gridonopen" : 0,
		"gridsize" : [ 4.0, 4.0 ],
		"gridsnaponopen" : 0,
		"statusbarvisible" : 2,
		"toolbarvisible" : 1,
		"boxanimatetime" : 200,
		"imprint" : 0,
		"enablehscroll" : 1,
		"enablevscroll" : 1,
		"devicewidth" : 0.0,
		"description" : "",
		"digest" : "",
		"tags" : "",
		"boxes" : [ 			{
				"box" : 				{
					"args" : [ 24, "beat" ],
					"id" : "obj-1",
					"maxclass" : "bpatcher",
					"name" : "polyrhythm_basic_module.maxpat",
					"numinlets" : 1,
					"numoutlets" : 1,
					"outlettype" : [ "" ],
					"patching_rect" : [ 379.0, 31.0, 1048.0, 112.0 ],
					"presentation" : 1,
					"presentation_rect" : [ 376.25, 16.0, 1048.0, 120.0 ],
					"varname" : "polyrhythm_basic_module[6]"
				}

			}
, 			{
				"box" : 				{
					"fontname" : "Arial",
					"fontsize" : 12.0,
					"id" : "obj-67",
					"maxclass" : "newobj",
					"numinlets" : 1,
					"numoutlets" : 3,
					"outlettype" : [ "", "", "" ],
					"patching_rect" : [ 741.0, 590.0, 61.0, 20.0 ],
					"restore" : [ 120.0 ],
					"saved_object_attributes" : 					{
						"parameter_enable" : 0
					}
,
					"text" : "pattr bpm",
					"varname" : "bpm"
				}

			}
, 			{
				"box" : 				{
					"args" : [ 6, 6 ],
					"id" : "obj-66",
					"maxclass" : "bpatcher",
					"name" : "polyrhythm_small_module.maxpat",
					"numinlets" : 0,
					"numoutlets" : 0,
					"patching_rect" : [ 817.666687, 348.0, 182.0, 118.0 ],
					"presentation" : 1,
					"presentation_rect" : [ 188.25, 264.0, 184.0, 112.0 ],
					"varname" : "ds_6"
				}

			}
, 			{
				"box" : 				{
					"bgcolor" : [ 0.177989, 0.198223, 0.882353, 1.0 ],
					"bgcolor2" : [ 0.177989, 0.198223, 0.882353, 1.0 ],
					"fontface" : 1,
					"fontname" : "Arial",
					"fontsize" : 12.0,
					"gradient" : 1,
					"id" : "obj-74",
					"maxclass" : "message",
					"numinlets" : 2,
					"numoutlets" : 1,
					"outlettype" : [ "" ],
					"patching_rect" : [ 16.0, 312.0, 87.0, 18.0 ],
					"presentation" : 1,
					"presentation_rect" : [ 444.0, 550.0, 86.0, 18.0 ],
					"text" : "setup_reverb",
					"textcolor" : [ 0.973975, 0.972394, 1.0, 1.0 ]
				}

			}
, 			{
				"box" : 				{
					"bgcolor" : [ 0.564706, 0.564706, 0.564706, 0.0 ],
					"fontface" : 2,
					"fontname" : "Arial",
					"fontsize" : 12.0,
					"frgb" : [ 0.564706, 0.564706, 0.564706, 1.0 ],
					"id" : "obj-50",
					"maxclass" : "comment",
					"numinlets" : 1,
					"numoutlets" : 0,
					"patching_rect" : [ 656.0, 526.0, 146.0, 20.0 ],
					"presentation" : 1,
					"presentation_rect" : [ 551.789246, 545.0, 146.0, 20.0 ],
					"text" : "new (immediate) BPM >>",
					"textcolor" : [ 0.564706, 0.564706, 0.564706, 1.0 ]
				}

			}
, 			{
				"box" : 				{
					"bgcolor" : [ 0.564706, 0.564706, 0.564706, 1.0 ],
					"bgcolor2" : [ 0.564706, 0.564706, 0.564706, 1.0 ],
					"fontname" : "Arial",
					"fontsize" : 14.0,
					"id" : "obj-3",
					"maxclass" : "message",
					"numinlets" : 2,
					"numoutlets" : 1,
					"outlettype" : [ "" ],
					"patching_rect" : [ 821.5, 526.0, 35.0, 21.0 ],
					"presentation" : 1,
					"presentation_rect" : [ 551.789246, 517.0, 77.0, 21.0 ],
					"text" : "40",
					"textcolor" : [ 1.0, 1.0, 1.0, 1.0 ]
				}

			}
, 			{
				"box" : 				{
					"bgcolor" : [ 0.564706, 0.564706, 0.564706, 1.0 ],
					"bordercolor" : [ 0.658824, 0.658824, 0.658824, 1.0 ],
					"fontname" : "Arial",
					"fontsize" : 14.0,
					"htextcolor" : [ 0.870588, 0.870588, 0.870588, 1.0 ],
					"id" : "obj-59",
					"maxclass" : "flonum",
					"numinlets" : 1,
					"numoutlets" : 2,
					"outlettype" : [ "float", "bang" ],
					"parameter_enable" : 0,
					"patching_rect" : [ 821.5, 590.0, 94.0, 23.0 ],
					"presentation" : 1,
					"presentation_rect" : [ 703.789246, 541.0, 94.0, 23.0 ],
					"textcolor" : [ 1.0, 1.0, 1.0, 1.0 ],
					"triscale" : 0.9
				}

			}
, 			{
				"box" : 				{
					"bgcolor" : [ 0.564706, 0.564706, 0.564706, 1.0 ],
					"bgcolor2" : [ 0.564706, 0.564706, 0.564706, 1.0 ],
					"fontname" : "Arial",
					"fontsize" : 14.0,
					"id" : "obj-60",
					"maxclass" : "message",
					"numinlets" : 2,
					"numoutlets" : 1,
					"outlettype" : [ "" ],
					"patching_rect" : [ 941.5, 526.0, 37.0, 21.0 ],
					"presentation" : 1,
					"presentation_rect" : [ 823.789307, 517.0, 78.0, 21.0 ],
					"text" : "240",
					"textcolor" : [ 1.0, 1.0, 1.0, 1.0 ]
				}

			}
, 			{
				"box" : 				{
					"bgcolor" : [ 0.564706, 0.564706, 0.564706, 1.0 ],
					"bgcolor2" : [ 0.564706, 0.564706, 0.564706, 1.0 ],
					"fontname" : "Arial",
					"fontsize" : 14.0,
					"id" : "obj-62",
					"maxclass" : "message",
					"numinlets" : 2,
					"numoutlets" : 1,
					"outlettype" : [ "" ],
					"patching_rect" : [ 861.5, 526.0, 35.0, 21.0 ],
					"presentation" : 1,
					"presentation_rect" : [ 639.789246, 517.0, 83.0, 21.0 ],
					"text" : "80",
					"textcolor" : [ 1.0, 1.0, 1.0, 1.0 ]
				}

			}
, 			{
				"box" : 				{
					"bgcolor" : [ 0.564706, 0.564706, 0.564706, 1.0 ],
					"bgcolor2" : [ 0.564706, 0.564706, 0.564706, 1.0 ],
					"fontname" : "Arial",
					"fontsize" : 14.0,
					"id" : "obj-63",
					"maxclass" : "message",
					"numinlets" : 2,
					"numoutlets" : 1,
					"outlettype" : [ "" ],
					"patching_rect" : [ 901.5, 526.0, 37.0, 21.0 ],
					"presentation" : 1,
					"presentation_rect" : [ 735.789246, 517.0, 78.0, 21.0 ],
					"text" : "120",
					"textcolor" : [ 1.0, 1.0, 1.0, 1.0 ]
				}

			}
, 			{
				"box" : 				{
					"bgcolor" : [ 0.564706, 0.564706, 0.564706, 1.0 ],
					"bgcolor2" : [ 0.564706, 0.564706, 0.564706, 1.0 ],
					"fontname" : "Arial",
					"fontsize" : 14.0,
					"id" : "obj-64",
					"maxclass" : "message",
					"numinlets" : 2,
					"numoutlets" : 1,
					"outlettype" : [ "" ],
					"patching_rect" : [ 1060.0, 578.0, 46.0, 21.0 ],
					"presentation" : 1,
					"presentation_rect" : [ 867.789307, 541.0, 43.0, 21.0 ],
					"text" : "/stop",
					"textcolor" : [ 1.0, 1.0, 1.0, 1.0 ]
				}

			}
, 			{
				"box" : 				{
					"bgcolor" : [ 1.0, 1.0, 1.0, 1.0 ],
					"id" : "obj-65",
					"ignoreclick" : 1,
					"maxclass" : "panel",
					"numinlets" : 1,
					"numoutlets" : 0,
					"patching_rect" : [ 132.0, 556.0, 34.0, 33.0 ],
					"presentation" : 1,
					"presentation_rect" : [ 544.289246, 510.0, 372.5, 59.0 ],
					"rounded" : 20
				}

			}
, 			{
				"box" : 				{
					"fontname" : "Arial",
					"fontsize" : 12.0,
					"id" : "obj-9",
					"maxclass" : "newobj",
					"numinlets" : 1,
					"numoutlets" : 0,
					"patching_rect" : [ 16.0, 200.5, 116.0, 20.0 ],
					"text" : "s glob_polyvocstate"
				}

			}
, 			{
				"box" : 				{
					"fontname" : "Arial",
					"fontsize" : 12.0,
					"id" : "obj-56",
					"maxclass" : "newobj",
					"numinlets" : 1,
					"numoutlets" : 0,
					"patching_rect" : [ 16.0, 128.5, 88.0, 20.0 ],
					"text" : "s glob_polyres"
				}

			}
, 			{
				"box" : 				{
					"fontname" : "Arial",
					"fontsize" : 12.0,
					"id" : "obj-7",
					"maxclass" : "newobj",
					"numinlets" : 1,
					"numoutlets" : 0,
					"patching_rect" : [ 16.0, 70.0, 105.0, 20.0 ],
					"text" : "s glob_polytimbre"
				}

			}
, 			{
				"box" : 				{
					"fontname" : "Arial",
					"fontsize" : 12.0,
					"id" : "obj-5",
					"maxclass" : "newobj",
					"numinlets" : 1,
					"numoutlets" : 0,
					"patching_rect" : [ 16.0, 272.0, 98.0, 20.0 ],
					"text" : "s glob_polymute"
				}

			}
, 			{
				"box" : 				{
					"args" : [ 12, "beat" ],
					"id" : "obj-13",
					"maxclass" : "bpatcher",
					"name" : "polyrhythm_basic_module.maxpat",
					"numinlets" : 1,
					"numoutlets" : 1,
					"outlettype" : [ "" ],
					"patching_rect" : [ 262.0, 202.0, 1048.0, 112.0 ],
					"presentation" : 1,
					"presentation_rect" : [ 376.25, 264.0, 1048.0, 120.0 ],
					"varname" : "ds_12"
				}

			}
, 			{
				"box" : 				{
					"args" : [ 8, "beat" ],
					"id" : "obj-51",
					"maxclass" : "bpatcher",
					"name" : "polyrhythm_basic_module.maxpat",
					"numinlets" : 1,
					"numoutlets" : 1,
					"outlettype" : [ "" ],
					"patching_rect" : [ 262.0, 78.5, 1048.0, 112.0 ],
					"presentation" : 1,
					"presentation_rect" : [ 376.25, 140.0, 1048.0, 120.0 ],
					"varname" : "ds_8"
				}

			}
, 			{
				"box" : 				{
					"args" : [ 2, 2 ],
					"id" : "obj-52",
					"maxclass" : "bpatcher",
					"name" : "polyrhythm_small_module.maxpat",
					"numinlets" : 0,
					"numoutlets" : 0,
					"patching_rect" : [ 262.0, 348.0, 182.0, 118.0 ],
					"presentation" : 1,
					"presentation_rect" : [ 4.25, 144.0, 184.0, 112.0 ],
					"varname" : "ds_2"
				}

			}
, 			{
				"box" : 				{
					"args" : [ 3, 3 ],
					"id" : "obj-11",
					"maxclass" : "bpatcher",
					"name" : "polyrhythm_small_module.maxpat",
					"numinlets" : 0,
					"numoutlets" : 0,
					"patching_rect" : [ 447.666656, 348.0, 182.0, 118.0 ],
					"presentation" : 1,
					"presentation_rect" : [ 4.25, 264.0, 184.0, 112.0 ],
					"varname" : "ds_3"
				}

			}
, 			{
				"box" : 				{
					"args" : [ 4, 4 ],
					"id" : "obj-53",
					"maxclass" : "bpatcher",
					"name" : "polyrhythm_small_module.maxpat",
					"numinlets" : 0,
					"numoutlets" : 0,
					"patching_rect" : [ 632.666687, 348.0, 182.0, 118.0 ],
					"presentation" : 1,
					"presentation_rect" : [ 188.25, 144.0, 184.0, 112.0 ],
					"varname" : "ds_4"
				}

			}
, 			{
				"box" : 				{
					"args" : [ "divided-steps.xml", 12 ],
					"id" : "obj-61",
					"maxclass" : "bpatcher",
					"name" : "pstore-simple-storage.maxpat",
					"numinlets" : 1,
					"numoutlets" : 2,
					"offset" : [ 0.69639, 0.727707 ],
					"outlettype" : [ "", "" ],
					"patching_rect" : [ 1024.0, 348.0, 352.0, 56.0 ],
					"presentation" : 1,
					"presentation_rect" : [ 4.25, 16.0, 352.0, 56.0 ]
				}

			}
, 			{
				"box" : 				{
					"fontface" : 3,
					"fontname" : "Arial",
					"fontsize" : 12.0,
					"frgb" : [ 1.0, 1.0, 1.0, 1.0 ],
					"id" : "obj-75",
					"maxclass" : "comment",
					"numinlets" : 1,
					"numoutlets" : 0,
					"patching_rect" : [ 66.0, 96.0, 115.0, 20.0 ],
					"presentation" : 1,
					"presentation_rect" : [ 310.539246, 550.0, 115.0, 20.0 ],
					"text" : "global resonance",
					"textcolor" : [ 1.0, 1.0, 1.0, 1.0 ]
				}

			}
, 			{
				"box" : 				{
					"bgcolor" : [ 0.278431, 0.921569, 0.639216, 1.0 ],
					"fontname" : "Arial",
					"fontsize" : 12.0,
					"id" : "obj-36",
					"maxclass" : "number",
					"maximum" : 2500,
					"minimum" : 20,
					"numinlets" : 1,
					"numoutlets" : 2,
					"outlettype" : [ "int", "bang" ],
					"parameter_enable" : 0,
					"patching_rect" : [ 16.0, 96.0, 50.0, 20.0 ],
					"presentation" : 1,
					"presentation_rect" : [ 258.539246, 550.0, 50.0, 20.0 ]
				}

			}
, 			{
				"box" : 				{
					"bgcolor" : [ 0.945098, 0.913725, 0.407843, 1.0 ],
					"id" : "obj-153",
					"maxclass" : "toggle",
					"numinlets" : 1,
					"numoutlets" : 1,
					"outlettype" : [ "int" ],
					"parameter_enable" : 0,
					"patching_rect" : [ 16.0, 228.0, 38.0, 38.0 ],
					"presentation" : 1,
					"presentation_rect" : [ 258.539246, 514.0, 34.0, 34.0 ]
				}

			}
, 			{
				"box" : 				{
					"fontface" : 3,
					"fontname" : "Arial",
					"fontsize" : 12.0,
					"frgb" : [ 1.0, 1.0, 1.0, 1.0 ],
					"id" : "obj-151",
					"maxclass" : "comment",
					"numinlets" : 1,
					"numoutlets" : 0,
					"patching_rect" : [ 63.5, 228.0, 102.0, 20.0 ],
					"presentation" : 1,
					"presentation_rect" : [ 292.539246, 514.0, 115.0, 20.0 ],
					"text" : "global seq mute",
					"textcolor" : [ 1.0, 1.0, 1.0, 1.0 ]
				}

			}
, 			{
				"box" : 				{
					"fontface" : 3,
					"fontname" : "Arial",
					"fontsize" : 12.0,
					"frgb" : [ 1.0, 1.0, 1.0, 1.0 ],
					"id" : "obj-150",
					"maxclass" : "comment",
					"numinlets" : 1,
					"numoutlets" : 0,
					"patching_rect" : [ 63.5, 156.5, 117.0, 20.0 ],
					"presentation" : 1,
					"presentation_linecount" : 2,
					"presentation_rect" : [ 162.539246, 514.0, 82.0, 34.0 ],
					"text" : "global steps on/off",
					"textcolor" : [ 1.0, 1.0, 1.0, 1.0 ]
				}

			}
, 			{
				"box" : 				{
					"bgcolor" : [ 0.831373, 0.552941, 0.831373, 1.0 ],
					"bordercolor" : [ 1.0, 1.0, 1.0, 1.0 ],
					"id" : "obj-148",
					"maxclass" : "toggle",
					"numinlets" : 1,
					"numoutlets" : 1,
					"outlettype" : [ "int" ],
					"parameter_enable" : 0,
					"patching_rect" : [ 16.0, 156.5, 38.0, 38.0 ],
					"presentation" : 1,
					"presentation_rect" : [ 122.539246, 514.0, 32.0, 32.0 ]
				}

			}
, 			{
				"box" : 				{
					"fontface" : 3,
					"fontname" : "Arial",
					"fontsize" : 12.0,
					"frgb" : [ 1.0, 1.0, 1.0, 1.0 ],
					"id" : "obj-147",
					"maxclass" : "comment",
					"numinlets" : 1,
					"numoutlets" : 0,
					"patching_rect" : [ 76.0, 44.0, 107.0, 20.0 ],
					"presentation" : 1,
					"presentation_rect" : [ 162.539246, 550.0, 107.0, 20.0 ],
					"text" : "global timbre",
					"textcolor" : [ 1.0, 1.0, 1.0, 1.0 ]
				}

			}
, 			{
				"box" : 				{
					"bgcolor" : [ 0.27451, 0.254902, 0.254902, 1.0 ],
					"bordercolor" : [ 0.27451, 0.254902, 0.254902, 1.0 ],
					"fontname" : "Arial",
					"fontsize" : 12.0,
					"id" : "obj-146",
					"maxclass" : "number",
					"maximum" : 100,
					"minimum" : 0,
					"numinlets" : 1,
					"numoutlets" : 2,
					"outlettype" : [ "int", "bang" ],
					"parameter_enable" : 0,
					"patching_rect" : [ 16.0, 44.0, 50.0, 20.0 ],
					"presentation" : 1,
					"presentation_rect" : [ 122.539246, 550.0, 32.0, 20.0 ],
					"textcolor" : [ 1.0, 1.0, 1.0, 1.0 ],
					"tricolor" : [ 0.509804, 0.478431, 0.478431, 0.0 ]
				}

			}
, 			{
				"box" : 				{
					"bgcolor" : [ 0.490196, 0.490196, 0.490196, 1.0 ],
					"id" : "obj-48",
					"ignoreclick" : 1,
					"maxclass" : "panel",
					"numinlets" : 1,
					"numoutlets" : 0,
					"patching_rect" : [ 126.0, 380.0, 40.0, 44.0 ],
					"presentation" : 1,
					"presentation_rect" : [ 114.539246, 506.0, 809.460754, 68.0 ],
					"rounded" : 20
				}

			}
, 			{
				"box" : 				{
					"fontname" : "Arial",
					"fontsize" : 10.0,
					"id" : "obj-22",
					"maxclass" : "newobj",
					"numinlets" : 1,
					"numoutlets" : 1,
					"outlettype" : [ "bang" ],
					"patching_rect" : [ 901.5, 498.0, 52.0, 18.0 ],
					"text" : "loadbang"
				}

			}
, 			{
				"box" : 				{
					"fontname" : "Arial",
					"fontsize" : 10.0,
					"id" : "obj-17",
					"maxclass" : "newobj",
					"numinlets" : 2,
					"numoutlets" : 1,
					"outlettype" : [ "float" ],
					"patching_rect" : [ 821.5, 622.0, 29.0, 18.0 ],
					"text" : "/ 8."
				}

			}
, 			{
				"box" : 				{
					"fontname" : "Arial",
					"fontsize" : 10.0,
					"id" : "obj-10",
					"maxclass" : "message",
					"numinlets" : 2,
					"numoutlets" : 1,
					"outlettype" : [ "" ],
					"patching_rect" : [ 988.0, 526.0, 39.0, 16.0 ],
					"text" : "set $1"
				}

			}
, 			{
				"box" : 				{
					"fontname" : "Arial",
					"fontsize" : 10.0,
					"id" : "obj-49",
					"maxclass" : "message",
					"numinlets" : 2,
					"numoutlets" : 1,
					"outlettype" : [ "" ],
					"patching_rect" : [ 1032.0, 526.0, 69.0, 16.0 ],
					"text" : "/startBPM $1"
				}

			}
, 			{
				"box" : 				{
					"fontname" : "Arial",
					"fontsize" : 10.0,
					"id" : "obj-47",
					"maxclass" : "newobj",
					"numinlets" : 0,
					"numoutlets" : 1,
					"outlettype" : [ "" ],
					"patching_rect" : [ 988.0, 482.0, 58.0, 18.0 ],
					"text" : "r settempo"
				}

			}
, 			{
				"box" : 				{
					"fontname" : "Arial",
					"fontsize" : 12.0,
					"id" : "obj-8",
					"maxclass" : "newobj",
					"numinlets" : 0,
					"numoutlets" : 1,
					"outlettype" : [ "" ],
					"patcher" : 					{
						"fileversion" : 1,
						"appversion" : 						{
							"major" : 6,
							"minor" : 0,
							"revision" : 4
						}
,
						"rect" : [ 25.0, 69.0, 509.0, 451.0 ],
						"bglocked" : 0,
						"openinpresentation" : 0,
						"default_fontsize" : 10.0,
						"default_fontface" : 0,
						"default_fontname" : "Arial",
						"gridonopen" : 0,
						"gridsize" : [ 4.0, 4.0 ],
						"gridsnaponopen" : 0,
						"statusbarvisible" : 2,
						"toolbarvisible" : 1,
						"boxanimatetime" : 200,
						"imprint" : 0,
						"enablehscroll" : 1,
						"enablevscroll" : 1,
						"devicewidth" : 0.0,
						"description" : "",
						"digest" : "",
						"tags" : "",
						"boxes" : [ 							{
								"box" : 								{
									"comment" : "",
									"id" : "obj-4",
									"maxclass" : "outlet",
									"numinlets" : 1,
									"numoutlets" : 0,
									"patching_rect" : [ 216.0, 256.0, 25.0, 25.0 ]
								}

							}
, 							{
								"box" : 								{
									"fontname" : "Arial",
									"fontsize" : 12.0,
									"id" : "obj-2",
									"maxclass" : "message",
									"numinlets" : 2,
									"numoutlets" : 1,
									"outlettype" : [ "" ],
									"patching_rect" : [ 216.0, 180.0, 32.5, 18.0 ],
									"text" : "1"
								}

							}
, 							{
								"box" : 								{
									"fontname" : "Arial",
									"fontsize" : 12.0,
									"id" : "obj-6",
									"maxclass" : "newobj",
									"numinlets" : 1,
									"numoutlets" : 1,
									"outlettype" : [ "bang" ],
									"patching_rect" : [ 216.0, 56.0, 60.0, 20.0 ],
									"text" : "loadbang"
								}

							}
 ],
						"lines" : [ 							{
								"patchline" : 								{
									"destination" : [ "obj-4", 0 ],
									"disabled" : 0,
									"hidden" : 0,
									"source" : [ "obj-2", 0 ]
								}

							}
, 							{
								"patchline" : 								{
									"destination" : [ "obj-2", 0 ],
									"disabled" : 0,
									"hidden" : 0,
									"source" : [ "obj-6", 0 ]
								}

							}
 ],
						"dependency_cache" : [  ]
					}
,
					"patching_rect" : [ 1212.0, 430.0, 36.0, 20.0 ],
					"saved_object_attributes" : 					{
						"fontsize" : 10.0,
						"default_fontface" : 0,
						"digest" : "",
						"default_fontname" : "Arial",
						"fontname" : "Arial",
						"tags" : "",
						"default_fontsize" : 10.0,
						"description" : "",
						"globalpatchername" : "",
						"fontface" : 0
					}
,
					"text" : "p init"
				}

			}
, 			{
				"box" : 				{
					"fontname" : "Arial",
					"fontsize" : 10.0,
					"id" : "obj-18",
					"maxclass" : "newobj",
					"numinlets" : 1,
					"numoutlets" : 1,
					"outlettype" : [ "" ],
					"patching_rect" : [ 1024.0, 430.0, 94.0, 18.0 ],
					"text" : "prepend /pstoreget",
					"varname" : "divided-steps[1]"
				}

			}
, 			{
				"box" : 				{
					"bgcolor" : [ 1.0, 1.0, 1.0, 1.0 ],
					"bgcolor2" : [ 1.0, 1.0, 1.0, 1.0 ],
					"fontname" : "Arial",
					"fontsize" : 10.0,
					"id" : "obj-1746",
					"maxclass" : "message",
					"numinlets" : 2,
					"numoutlets" : 1,
					"outlettype" : [ "" ],
					"patching_rect" : [ 821.5, 650.0, 49.0, 16.0 ],
					"text" : "/BPM $1",
					"textcolor" : [ 0.14902, 0.184314, 0.184314, 1.0 ]
				}

			}
, 			{
				"box" : 				{
					"autorestore" : "divided-steps.xml",
					"fontname" : "Arial",
					"fontsize" : 10.0,
					"id" : "obj-12",
					"maxclass" : "newobj",
					"numinlets" : 1,
					"numoutlets" : 1,
					"outlettype" : [ "" ],
					"patching_rect" : [ 1024.0, 410.0, 126.0, 18.0 ],
					"saved_object_attributes" : 					{
						"client_rect" : [ 4, 44, 358, 172 ],
						"storage_rect" : [ 365, 44, 816, 172 ],
						"parameter_enable" : 0
					}
,
					"text" : "pattrstorage divided-steps",
					"varname" : "divided-steps"
				}

			}
, 			{
				"box" : 				{
					"args" : [ "divided-step-sequencer", 2.0, "E.Campion & J.Lubow", "divided-step-sequencer", 6666 ],
					"id" : "obj-2",
					"maxclass" : "bpatcher",
					"name" : "badge.maxpat",
					"numinlets" : 0,
					"numoutlets" : 0,
					"offset" : [ -0.385543, 0.771087 ],
					"patching_rect" : [ 392.0, 588.0, 296.0, 86.0 ],
					"presentation" : 1,
					"presentation_rect" : [ 1124.394531, 392.0, 299.855408, 86.0 ]
				}

			}
, 			{
				"box" : 				{
					"args" : [ "divided-step-sequencer", "modify individual sets of a sequence" ],
					"id" : "obj-4",
					"lockeddragscroll" : 1,
					"maxclass" : "bpatcher",
					"name" : "banner.maxpat",
					"numinlets" : 0,
					"numoutlets" : 0,
					"offset" : [ -21.084347, -70.698799 ],
					"patching_rect" : [ 24.0, 596.0, 504.0, 76.0 ],
					"presentation" : 1,
					"presentation_rect" : [ 784.394592, 392.0, 352.0, 76.0 ],
					"prototypename" : "cnmat_banner"
				}

			}
, 			{
				"box" : 				{
					"fontname" : "Arial",
					"fontsize" : 12.0,
					"id" : "obj-69",
					"maxclass" : "newobj",
					"numinlets" : 1,
					"numoutlets" : 1,
					"outlettype" : [ "signal" ],
					"patcher" : 					{
						"fileversion" : 1,
						"appversion" : 						{
							"major" : 6,
							"minor" : 0,
							"revision" : 4
						}
,
						"rect" : [ 658.0, 98.0, 365.0, 123.0 ],
						"bglocked" : 0,
						"openinpresentation" : 1,
						"default_fontsize" : 12.0,
						"default_fontface" : 0,
						"default_fontname" : "Arial",
						"gridonopen" : 0,
						"gridsize" : [ 4.0, 4.0 ],
						"gridsnaponopen" : 0,
						"statusbarvisible" : 2,
						"toolbarvisible" : 1,
						"boxanimatetime" : 200,
						"imprint" : 0,
						"enablehscroll" : 1,
						"enablevscroll" : 1,
						"devicewidth" : 0.0,
						"description" : "",
						"digest" : "",
						"tags" : "",
						"boxes" : [ 							{
								"box" : 								{
									"fontname" : "Arial",
									"fontsize" : 12.0,
									"id" : "obj-6",
									"maxclass" : "newobj",
									"numinlets" : 1,
									"numoutlets" : 4,
									"outlettype" : [ "", "", "", "" ],
									"patching_rect" : [ 204.0, 244.0, 144.0, 20.0 ],
									"restore" : 									{
										"HF_damping" : [ 1 ],
										"decay_time" : [ 34 ],
										"diffusion" : [ 0 ],
										"room_size" : [ 34 ]
									}
,
									"text" : "autopattr @autorestore 0",
									"varname" : "u862004607"
								}

							}
, 							{
								"box" : 								{
									"fontname" : "Arial",
									"fontsize" : 12.0,
									"hidden" : 1,
									"id" : "obj-3",
									"maxclass" : "newobj",
									"numinlets" : 1,
									"numoutlets" : 1,
									"outlettype" : [ "front" ],
									"patching_rect" : [ 12.0, 48.0, 41.0, 20.0 ],
									"text" : "t front"
								}

							}
, 							{
								"box" : 								{
									"fontname" : "Arial",
									"fontsize" : 12.0,
									"hidden" : 1,
									"id" : "obj-2",
									"maxclass" : "newobj",
									"numinlets" : 1,
									"numoutlets" : 2,
									"outlettype" : [ "", "" ],
									"patching_rect" : [ 12.0, 72.0, 69.0, 20.0 ],
									"save" : [ "#N", "thispatcher", ";", "#Q", "end", ";" ],
									"text" : "thispatcher"
								}

							}
, 							{
								"box" : 								{
									"comment" : "",
									"hidden" : 1,
									"id" : "obj-1",
									"maxclass" : "inlet",
									"numinlets" : 0,
									"numoutlets" : 1,
									"outlettype" : [ "" ],
									"patching_rect" : [ 12.0, 20.0, 25.0, 25.0 ]
								}

							}
, 							{
								"box" : 								{
									"fontname" : "Arial",
									"fontsize" : 12.0,
									"id" : "obj-556",
									"maxclass" : "newobj",
									"numinlets" : 1,
									"numoutlets" : 1,
									"outlettype" : [ "signal" ],
									"patching_rect" : [ 10.0, 99.0, 94.0, 20.0 ],
									"text" : "receive~ reverb"
								}

							}
, 							{
								"box" : 								{
									"fontname" : "Arial",
									"fontsize" : 12.0,
									"hidden" : 1,
									"id" : "obj-44",
									"maxclass" : "message",
									"numinlets" : 2,
									"numoutlets" : 1,
									"outlettype" : [ "" ],
									"patching_rect" : [ 320.0, 176.0, 32.5, 18.0 ],
									"text" : "0"
								}

							}
, 							{
								"box" : 								{
									"fontname" : "Arial",
									"fontsize" : 12.0,
									"id" : "obj-43",
									"maxclass" : "comment",
									"numinlets" : 1,
									"numoutlets" : 0,
									"patching_rect" : [ 397.0, 88.0, 55.0, 20.0 ],
									"presentation" : 1,
									"presentation_rect" : [ 212.0, 80.0, 55.0, 20.0 ],
									"text" : "diffusion"
								}

							}
, 							{
								"box" : 								{
									"fontname" : "Arial",
									"fontsize" : 12.0,
									"id" : "obj-40",
									"maxclass" : "message",
									"numinlets" : 2,
									"numoutlets" : 1,
									"outlettype" : [ "" ],
									"patching_rect" : [ 331.0, 117.0, 75.0, 18.0 ],
									"text" : "/diffusion $1"
								}

							}
, 							{
								"box" : 								{
									"fontname" : "Arial",
									"fontsize" : 12.0,
									"id" : "obj-41",
									"maxclass" : "number",
									"numinlets" : 1,
									"numoutlets" : 2,
									"outlettype" : [ "int", "bang" ],
									"parameter_enable" : 0,
									"patching_rect" : [ 331.0, 94.0, 50.0, 20.0 ],
									"presentation" : 1,
									"presentation_rect" : [ 6.0, 80.0, 48.0, 20.0 ]
								}

							}
, 							{
								"box" : 								{
									"bordercolor" : [ 0.588235, 0.588235, 0.709804, 1.0 ],
									"id" : "obj-42",
									"knobcolor" : [ 0.4, 0.4, 0.8, 1.0 ],
									"maxclass" : "slider",
									"numinlets" : 1,
									"numoutlets" : 1,
									"orientation" : 1,
									"outlettype" : [ "" ],
									"parameter_enable" : 0,
									"patching_rect" : [ 331.0, 70.0, 144.0, 18.0 ],
									"presentation" : 1,
									"presentation_rect" : [ 60.0, 82.0, 144.0, 18.0 ],
									"varname" : "diffusion"
								}

							}
, 							{
								"box" : 								{
									"fontname" : "Arial",
									"fontsize" : 12.0,
									"id" : "obj-39",
									"maxclass" : "comment",
									"numinlets" : 1,
									"numoutlets" : 0,
									"patching_rect" : [ 397.0, 48.0, 144.0, 20.0 ],
									"presentation" : 1,
									"presentation_rect" : [ 212.0, 56.0, 144.0, 20.0 ],
									"text" : "high frequency damping"
								}

							}
, 							{
								"box" : 								{
									"fontname" : "Arial",
									"fontsize" : 12.0,
									"id" : "obj-36",
									"maxclass" : "message",
									"numinlets" : 2,
									"numoutlets" : 1,
									"outlettype" : [ "" ],
									"patching_rect" : [ 254.0, 96.0, 77.0, 18.0 ],
									"text" : "/damping $1"
								}

							}
, 							{
								"box" : 								{
									"fontname" : "Arial",
									"fontsize" : 12.0,
									"id" : "obj-37",
									"maxclass" : "number",
									"numinlets" : 1,
									"numoutlets" : 2,
									"outlettype" : [ "int", "bang" ],
									"parameter_enable" : 0,
									"patching_rect" : [ 254.0, 73.0, 50.0, 20.0 ],
									"presentation" : 1,
									"presentation_rect" : [ 6.0, 56.0, 48.0, 20.0 ]
								}

							}
, 							{
								"box" : 								{
									"bordercolor" : [ 0.588235, 0.588235, 0.709804, 1.0 ],
									"id" : "obj-38",
									"knobcolor" : [ 0.4, 0.4, 0.8, 1.0 ],
									"maxclass" : "slider",
									"numinlets" : 1,
									"numoutlets" : 1,
									"orientation" : 1,
									"outlettype" : [ "" ],
									"parameter_enable" : 0,
									"patching_rect" : [ 254.0, 49.0, 144.0, 18.0 ],
									"presentation" : 1,
									"presentation_rect" : [ 60.0, 57.0, 144.0, 18.0 ],
									"varname" : "HF_damping"
								}

							}
, 							{
								"box" : 								{
									"fontname" : "Arial",
									"fontsize" : 12.0,
									"id" : "obj-35",
									"maxclass" : "message",
									"numinlets" : 2,
									"numoutlets" : 1,
									"outlettype" : [ "" ],
									"patching_rect" : [ 188.0, 75.0, 63.0, 18.0 ],
									"text" : "/decay $1"
								}

							}
, 							{
								"box" : 								{
									"fontname" : "Arial",
									"fontsize" : 12.0,
									"id" : "obj-26",
									"maxclass" : "message",
									"numinlets" : 2,
									"numoutlets" : 1,
									"outlettype" : [ "" ],
									"patching_rect" : [ 134.0, 54.0, 52.0, 18.0 ],
									"text" : "/size $1"
								}

							}
, 							{
								"box" : 								{
									"fontname" : "Arial",
									"fontsize" : 12.0,
									"id" : "obj-118",
									"maxclass" : "number",
									"numinlets" : 1,
									"numoutlets" : 2,
									"outlettype" : [ "int", "bang" ],
									"parameter_enable" : 0,
									"patching_rect" : [ 134.0, 28.0, 44.0, 20.0 ],
									"presentation" : 1,
									"presentation_rect" : [ 6.0, 8.0, 48.0, 20.0 ]
								}

							}
, 							{
								"box" : 								{
									"fontname" : "Arial",
									"fontsize" : 12.0,
									"id" : "obj-119",
									"maxclass" : "number",
									"numinlets" : 1,
									"numoutlets" : 2,
									"outlettype" : [ "int", "bang" ],
									"parameter_enable" : 0,
									"patching_rect" : [ 188.0, 52.0, 50.0, 20.0 ],
									"presentation" : 1,
									"presentation_rect" : [ 6.0, 32.0, 48.0, 20.0 ]
								}

							}
, 							{
								"box" : 								{
									"bordercolor" : [ 0.588235, 0.588235, 0.709804, 1.0 ],
									"id" : "obj-120",
									"knobcolor" : [ 0.4, 0.4, 0.8, 1.0 ],
									"maxclass" : "slider",
									"numinlets" : 1,
									"numoutlets" : 1,
									"orientation" : 1,
									"outlettype" : [ "" ],
									"parameter_enable" : 0,
									"patching_rect" : [ 188.0, 28.0, 144.0, 18.0 ],
									"presentation" : 1,
									"presentation_rect" : [ 60.0, 32.0, 144.0, 18.0 ],
									"varname" : "decay_time"
								}

							}
, 							{
								"box" : 								{
									"bordercolor" : [ 0.588235, 0.588235, 0.709804, 1.0 ],
									"id" : "obj-121",
									"knobcolor" : [ 0.4, 0.4, 0.8, 1.0 ],
									"maxclass" : "slider",
									"numinlets" : 1,
									"numoutlets" : 1,
									"orientation" : 1,
									"outlettype" : [ "" ],
									"parameter_enable" : 0,
									"patching_rect" : [ 134.0, 7.0, 144.0, 18.0 ],
									"presentation" : 1,
									"presentation_rect" : [ 60.0, 7.0, 144.0, 18.0 ],
									"varname" : "room_size"
								}

							}
, 							{
								"box" : 								{
									"fontname" : "Arial",
									"fontsize" : 12.0,
									"hidden" : 1,
									"id" : "obj-9",
									"maxclass" : "message",
									"numinlets" : 2,
									"numoutlets" : 1,
									"outlettype" : [ "" ],
									"patching_rect" : [ 287.0, 176.0, 32.5, 18.0 ],
									"text" : "1"
								}

							}
, 							{
								"box" : 								{
									"fontname" : "Arial",
									"fontsize" : 12.0,
									"hidden" : 1,
									"id" : "obj-10",
									"maxclass" : "newobj",
									"numinlets" : 1,
									"numoutlets" : 1,
									"outlettype" : [ "bang" ],
									"patching_rect" : [ 218.0, 154.0, 60.0, 20.0 ],
									"text" : "loadbang"
								}

							}
, 							{
								"box" : 								{
									"fontname" : "Arial",
									"fontsize" : 12.0,
									"hidden" : 1,
									"id" : "obj-11",
									"maxclass" : "message",
									"numinlets" : 2,
									"numoutlets" : 1,
									"outlettype" : [ "" ],
									"patching_rect" : [ 254.0, 179.0, 32.5, 18.0 ],
									"text" : "34"
								}

							}
, 							{
								"box" : 								{
									"fontname" : "Arial",
									"fontsize" : 12.0,
									"hidden" : 1,
									"id" : "obj-12",
									"maxclass" : "message",
									"numinlets" : 2,
									"numoutlets" : 1,
									"outlettype" : [ "" ],
									"patching_rect" : [ 219.0, 178.0, 32.5, 18.0 ],
									"text" : "34"
								}

							}
, 							{
								"box" : 								{
									"fontname" : "Arial",
									"fontsize" : 12.0,
									"id" : "obj-17",
									"maxclass" : "comment",
									"numinlets" : 1,
									"numoutlets" : 0,
									"patching_rect" : [ 278.0, 5.0, 71.0, 20.0 ],
									"presentation" : 1,
									"presentation_rect" : [ 212.0, 5.0, 71.0, 20.0 ],
									"text" : "room size"
								}

							}
, 							{
								"box" : 								{
									"fontname" : "Arial",
									"fontsize" : 12.0,
									"id" : "obj-18",
									"maxclass" : "comment",
									"numinlets" : 1,
									"numoutlets" : 0,
									"patching_rect" : [ 334.0, 26.0, 71.0, 20.0 ],
									"presentation" : 1,
									"presentation_rect" : [ 212.0, 30.0, 71.0, 20.0 ],
									"text" : "decay time"
								}

							}
, 							{
								"box" : 								{
									"color" : [ 1.0, 0.74902, 0.0, 1.0 ],
									"fontname" : "Arial",
									"fontsize" : 12.0,
									"id" : "obj-19",
									"maxclass" : "newobj",
									"numinlets" : 1,
									"numoutlets" : 2,
									"outlettype" : [ "signal", "signal" ],
									"patching_rect" : [ 98.0, 174.0, 74.0, 20.0 ],
									"text" : "OSC-yafr2~"
								}

							}
, 							{
								"box" : 								{
									"comment" : "",
									"id" : "obj-566",
									"maxclass" : "outlet",
									"numinlets" : 1,
									"numoutlets" : 0,
									"patching_rect" : [ 98.0, 254.0, 25.0, 25.0 ]
								}

							}
 ],
						"lines" : [ 							{
								"patchline" : 								{
									"destination" : [ "obj-3", 0 ],
									"disabled" : 0,
									"hidden" : 1,
									"source" : [ "obj-1", 0 ]
								}

							}
, 							{
								"patchline" : 								{
									"destination" : [ "obj-11", 0 ],
									"disabled" : 0,
									"hidden" : 1,
									"source" : [ "obj-10", 0 ]
								}

							}
, 							{
								"patchline" : 								{
									"destination" : [ "obj-12", 0 ],
									"disabled" : 0,
									"hidden" : 1,
									"source" : [ "obj-10", 0 ]
								}

							}
, 							{
								"patchline" : 								{
									"destination" : [ "obj-44", 0 ],
									"disabled" : 0,
									"hidden" : 1,
									"source" : [ "obj-10", 0 ]
								}

							}
, 							{
								"patchline" : 								{
									"destination" : [ "obj-9", 0 ],
									"disabled" : 0,
									"hidden" : 1,
									"source" : [ "obj-10", 0 ]
								}

							}
, 							{
								"patchline" : 								{
									"destination" : [ "obj-120", 0 ],
									"disabled" : 0,
									"hidden" : 1,
									"source" : [ "obj-11", 0 ]
								}

							}
, 							{
								"patchline" : 								{
									"destination" : [ "obj-26", 0 ],
									"disabled" : 0,
									"hidden" : 0,
									"source" : [ "obj-118", 0 ]
								}

							}
, 							{
								"patchline" : 								{
									"destination" : [ "obj-35", 0 ],
									"disabled" : 0,
									"hidden" : 0,
									"source" : [ "obj-119", 0 ]
								}

							}
, 							{
								"patchline" : 								{
									"destination" : [ "obj-121", 0 ],
									"disabled" : 0,
									"hidden" : 1,
									"source" : [ "obj-12", 0 ]
								}

							}
, 							{
								"patchline" : 								{
									"destination" : [ "obj-119", 0 ],
									"disabled" : 0,
									"hidden" : 0,
									"source" : [ "obj-120", 0 ]
								}

							}
, 							{
								"patchline" : 								{
									"destination" : [ "obj-118", 0 ],
									"disabled" : 0,
									"hidden" : 0,
									"source" : [ "obj-121", 0 ]
								}

							}
, 							{
								"patchline" : 								{
									"destination" : [ "obj-566", 0 ],
									"disabled" : 0,
									"hidden" : 0,
									"source" : [ "obj-19", 0 ]
								}

							}
, 							{
								"patchline" : 								{
									"destination" : [ "obj-19", 0 ],
									"disabled" : 0,
									"hidden" : 0,
									"source" : [ "obj-26", 0 ]
								}

							}
, 							{
								"patchline" : 								{
									"destination" : [ "obj-2", 0 ],
									"disabled" : 0,
									"hidden" : 1,
									"source" : [ "obj-3", 0 ]
								}

							}
, 							{
								"patchline" : 								{
									"destination" : [ "obj-19", 0 ],
									"disabled" : 0,
									"hidden" : 0,
									"source" : [ "obj-35", 0 ]
								}

							}
, 							{
								"patchline" : 								{
									"destination" : [ "obj-19", 0 ],
									"disabled" : 0,
									"hidden" : 0,
									"source" : [ "obj-36", 0 ]
								}

							}
, 							{
								"patchline" : 								{
									"destination" : [ "obj-36", 0 ],
									"disabled" : 0,
									"hidden" : 0,
									"source" : [ "obj-37", 0 ]
								}

							}
, 							{
								"patchline" : 								{
									"destination" : [ "obj-37", 0 ],
									"disabled" : 0,
									"hidden" : 0,
									"source" : [ "obj-38", 0 ]
								}

							}
, 							{
								"patchline" : 								{
									"destination" : [ "obj-19", 0 ],
									"disabled" : 0,
									"hidden" : 0,
									"source" : [ "obj-40", 0 ]
								}

							}
, 							{
								"patchline" : 								{
									"destination" : [ "obj-40", 0 ],
									"disabled" : 0,
									"hidden" : 0,
									"source" : [ "obj-41", 0 ]
								}

							}
, 							{
								"patchline" : 								{
									"destination" : [ "obj-41", 0 ],
									"disabled" : 0,
									"hidden" : 0,
									"source" : [ "obj-42", 0 ]
								}

							}
, 							{
								"patchline" : 								{
									"destination" : [ "obj-42", 0 ],
									"disabled" : 0,
									"hidden" : 1,
									"source" : [ "obj-44", 0 ]
								}

							}
, 							{
								"patchline" : 								{
									"destination" : [ "obj-19", 0 ],
									"disabled" : 0,
									"hidden" : 0,
									"source" : [ "obj-556", 0 ]
								}

							}
, 							{
								"patchline" : 								{
									"destination" : [ "obj-38", 0 ],
									"disabled" : 0,
									"hidden" : 1,
									"source" : [ "obj-9", 0 ]
								}

							}
 ],
						"dependency_cache" : [ 							{
								"name" : "OSC-yafr2~.maxpat",
								"bootpath" : "/Users/jml/Documents/materials/programming/max_files/5_berkeley/projects/cnmat/repositories/main/trunk/max/patches/MMJ-DEPOT/CNMAT_MMJ-Depot/modules/Effects-audio",
								"type" : "JSON",
								"implicit" : 1
							}
, 							{
								"name" : "yafr2.maxpat",
								"bootpath" : "/Applications/Max6/examples/effects/reverb/lib",
								"type" : "JSON",
								"implicit" : 1
							}
, 							{
								"name" : "uc_disclaimer.maxpat",
								"bootpath" : "/Users/jml/Documents/materials/programming/max_files/5_berkeley/projects/cnmat/repositories/main/trunk/max/patches/MMJ-DEPOT/CNMAT_MMJ-Depot/modules/Depot_Support",
								"type" : "JSON",
								"implicit" : 1
							}
, 							{
								"name" : "cnmat_blue.gif",
								"bootpath" : "/Users/jml/Documents/materials/programming/max_files/5_berkeley/projects/cnmat/repositories/main/trunk/max/patches/MMJ-DEPOT/CNMAT_MMJ-Depot/modules/Depot_Support",
								"type" : "GIFf",
								"implicit" : 1
							}
, 							{
								"name" : "OSC-route.mxo",
								"type" : "iLaX"
							}
 ]
					}
,
					"patching_rect" : [ 16.0, 340.0, 55.0, 20.0 ],
					"saved_object_attributes" : 					{
						"fontsize" : 12.0,
						"default_fontface" : 0,
						"digest" : "",
						"default_fontname" : "Arial",
						"fontname" : "Arial",
						"tags" : "",
						"default_fontsize" : 12.0,
						"description" : "",
						"globalpatchername" : "",
						"fontface" : 0
					}
,
					"text" : "p reverb",
					"varname" : "reverb"
				}

			}
, 			{
				"box" : 				{
					"fontname" : "Arial",
					"fontsize" : 10.0,
					"id" : "obj-68",
					"maxclass" : "newobj",
					"numinlets" : 1,
					"numoutlets" : 1,
					"outlettype" : [ "bang" ],
					"patching_rect" : [ 1110.0, 554.0, 53.0, 18.0 ],
					"text" : "loadbang"
				}

			}
, 			{
				"box" : 				{
					"fontname" : "Arial",
					"fontsize" : 12.0,
					"id" : "obj-58",
					"maxclass" : "newobj",
					"numinlets" : 1,
					"numoutlets" : 1,
					"outlettype" : [ "signal" ],
					"patching_rect" : [ 97.0, 340.0, 122.0, 20.0 ],
					"text" : "receive~ main_clicks"
				}

			}
, 			{
				"box" : 				{
					"bgcolor" : [ 1.0, 1.0, 1.0, 1.0 ],
					"bgcolor2" : [ 1.0, 1.0, 1.0, 1.0 ],
					"fontname" : "Arial",
					"fontsize" : 9.0,
					"id" : "obj-6",
					"linecount" : 6,
					"maxclass" : "message",
					"numinlets" : 2,
					"numoutlets" : 1,
					"outlettype" : [ "" ],
					"patching_rect" : [ 172.0, 524.0, 74.0, 67.0 ],
					"text" : ";\rmax preempt 1;\rdsp takeover 1;\rdsp sigvs 64;\rdsp iovs 64;\rdsp sr 44100",
					"textcolor" : [ 0.011765, 0.015686, 0.015686, 1.0 ]
				}

			}
, 			{
				"box" : 				{
					"args" : [ 140 ],
					"id" : "obj-25",
					"maxclass" : "bpatcher",
					"name" : "simple-stereo-gain~.maxpat",
					"numinlets" : 3,
					"numoutlets" : 2,
					"outlettype" : [ "signal", "signal" ],
					"patching_rect" : [ 16.0, 380.0, 100.0, 192.0 ],
					"presentation" : 1,
					"presentation_rect" : [ 8.0, 384.0, 100.0, 192.0 ],
					"prototypename" : "cnmat_stereoGain"
				}

			}
, 			{
				"box" : 				{
					"fontname" : "Arial",
					"fontsize" : 9.0,
					"id" : "obj-28",
					"maxclass" : "newobj",
					"numinlets" : 1,
					"numoutlets" : 1,
					"outlettype" : [ "bang" ],
					"patching_rect" : [ 172.0, 501.0, 48.0, 17.0 ],
					"text" : "loadbang"
				}

			}
, 			{
				"box" : 				{
					"fontname" : "Arial",
					"fontsize" : 10.0,
					"id" : "obj-29",
					"maxclass" : "message",
					"numinlets" : 2,
					"numoutlets" : 1,
					"outlettype" : [ "" ],
					"patching_rect" : [ 1110.0, 578.0, 50.0, 16.0 ],
					"text" : "/BPM 15"
				}

			}
, 			{
				"box" : 				{
					"fontname" : "Arial",
					"fontsize" : 10.0,
					"id" : "obj-30",
					"maxclass" : "newobj",
					"numinlets" : 1,
					"numoutlets" : 2,
					"outlettype" : [ "", "" ],
					"patching_rect" : [ 1032.0, 622.0, 90.0, 18.0 ],
					"text" : "tempo~ swinger"
				}

			}
 ],
		"lines" : [ 			{
				"patchline" : 				{
					"destination" : [ "obj-59", 0 ],
					"disabled" : 0,
					"hidden" : 0,
					"source" : [ "obj-10", 0 ]
				}

			}
, 			{
				"patchline" : 				{
					"destination" : [ "obj-18", 0 ],
					"disabled" : 0,
					"hidden" : 0,
					"source" : [ "obj-12", 0 ]
				}

			}
, 			{
				"patchline" : 				{
					"destination" : [ "obj-7", 0 ],
					"disabled" : 0,
					"hidden" : 0,
					"source" : [ "obj-146", 0 ]
				}

			}
, 			{
				"patchline" : 				{
					"destination" : [ "obj-9", 0 ],
					"disabled" : 0,
					"hidden" : 0,
					"source" : [ "obj-148", 0 ]
				}

			}
, 			{
				"patchline" : 				{
					"destination" : [ "obj-5", 0 ],
					"disabled" : 0,
					"hidden" : 0,
					"source" : [ "obj-153", 0 ]
				}

			}
, 			{
				"patchline" : 				{
					"destination" : [ "obj-1746", 0 ],
					"disabled" : 0,
					"hidden" : 0,
					"source" : [ "obj-17", 0 ]
				}

			}
, 			{
				"patchline" : 				{
					"destination" : [ "obj-30", 0 ],
					"disabled" : 0,
					"hidden" : 0,
					"source" : [ "obj-1746", 0 ]
				}

			}
, 			{
				"patchline" : 				{
					"destination" : [ "obj-63", 0 ],
					"disabled" : 0,
					"hidden" : 0,
					"source" : [ "obj-22", 0 ]
				}

			}
, 			{
				"patchline" : 				{
					"destination" : [ "obj-6", 0 ],
					"disabled" : 0,
					"hidden" : 0,
					"source" : [ "obj-28", 0 ]
				}

			}
, 			{
				"patchline" : 				{
					"destination" : [ "obj-30", 0 ],
					"disabled" : 0,
					"hidden" : 0,
					"source" : [ "obj-29", 0 ]
				}

			}
, 			{
				"patchline" : 				{
					"destination" : [ "obj-59", 0 ],
					"disabled" : 0,
					"hidden" : 0,
					"source" : [ "obj-3", 0 ]
				}

			}
, 			{
				"patchline" : 				{
					"destination" : [ "obj-56", 0 ],
					"disabled" : 0,
					"hidden" : 0,
					"source" : [ "obj-36", 0 ]
				}

			}
, 			{
				"patchline" : 				{
					"destination" : [ "obj-10", 0 ],
					"disabled" : 0,
					"hidden" : 0,
					"source" : [ "obj-47", 0 ]
				}

			}
, 			{
				"patchline" : 				{
					"destination" : [ "obj-49", 0 ],
					"disabled" : 0,
					"hidden" : 0,
					"source" : [ "obj-47", 0 ]
				}

			}
, 			{
				"patchline" : 				{
					"destination" : [ "obj-30", 0 ],
					"disabled" : 0,
					"hidden" : 0,
					"source" : [ "obj-49", 0 ]
				}

			}
, 			{
				"patchline" : 				{
					"destination" : [ "obj-25", 1 ],
					"disabled" : 0,
					"hidden" : 0,
					"source" : [ "obj-58", 0 ]
				}

			}
, 			{
				"patchline" : 				{
					"destination" : [ "obj-25", 0 ],
					"disabled" : 0,
					"hidden" : 0,
					"source" : [ "obj-58", 0 ]
				}

			}
, 			{
				"patchline" : 				{
					"destination" : [ "obj-17", 0 ],
					"disabled" : 0,
					"hidden" : 0,
					"source" : [ "obj-59", 0 ]
				}

			}
, 			{
				"patchline" : 				{
					"destination" : [ "obj-67", 0 ],
					"disabled" : 0,
					"hidden" : 0,
					"source" : [ "obj-59", 0 ]
				}

			}
, 			{
				"patchline" : 				{
					"destination" : [ "obj-59", 0 ],
					"disabled" : 0,
					"hidden" : 0,
					"source" : [ "obj-60", 0 ]
				}

			}
, 			{
				"patchline" : 				{
					"destination" : [ "obj-12", 0 ],
					"disabled" : 0,
					"hidden" : 0,
					"source" : [ "obj-61", 0 ]
				}

			}
, 			{
				"patchline" : 				{
					"destination" : [ "obj-59", 0 ],
					"disabled" : 0,
					"hidden" : 0,
					"source" : [ "obj-62", 0 ]
				}

			}
, 			{
				"patchline" : 				{
					"destination" : [ "obj-59", 0 ],
					"disabled" : 0,
					"hidden" : 0,
					"source" : [ "obj-63", 0 ]
				}

			}
, 			{
				"patchline" : 				{
					"destination" : [ "obj-30", 0 ],
					"disabled" : 0,
					"hidden" : 0,
					"source" : [ "obj-64", 0 ]
				}

			}
, 			{
				"patchline" : 				{
					"destination" : [ "obj-59", 0 ],
					"disabled" : 0,
					"hidden" : 0,
					"source" : [ "obj-67", 0 ]
				}

			}
, 			{
				"patchline" : 				{
					"destination" : [ "obj-29", 0 ],
					"disabled" : 0,
					"hidden" : 0,
					"source" : [ "obj-68", 0 ]
				}

			}
, 			{
				"patchline" : 				{
					"destination" : [ "obj-25", 1 ],
					"disabled" : 0,
					"hidden" : 0,
					"source" : [ "obj-69", 0 ]
				}

			}
, 			{
				"patchline" : 				{
					"destination" : [ "obj-25", 0 ],
					"disabled" : 0,
					"hidden" : 0,
					"source" : [ "obj-69", 0 ]
				}

			}
, 			{
				"patchline" : 				{
					"destination" : [ "obj-69", 0 ],
					"disabled" : 0,
					"hidden" : 0,
					"source" : [ "obj-74", 0 ]
				}

			}
, 			{
				"patchline" : 				{
					"destination" : [ "obj-12", 0 ],
					"disabled" : 0,
					"hidden" : 0,
					"source" : [ "obj-8", 0 ]
				}

			}
 ],
		"dependency_cache" : [ 			{
				"name" : "tempo~.maxpat",
				"bootpath" : "/Users/jml/Documents/materials/programming/max_files/5_berkeley/projects/cnmat/repositories/main/trunk/max/patches/MMJ-DEPOT/CNMAT_MMJ-Depot/modules/Timing/stepmetro",
				"patcherrelativepath" : "../../../modules/Timing/stepmetro",
				"type" : "JSON",
				"implicit" : 1
			}
, 			{
				"name" : "OSC-unroute.js",
				"bootpath" : "/Users/jml/Documents/materials/programming/max_files/2_max_externals/cnmat/CNMAT-Everything-OSX-MachO",
				"patcherrelativepath" : "../../../../../../../../../../../../../2_max_externals/cnmat/CNMAT-Everything-OSX-MachO",
				"type" : "TEXT",
				"implicit" : 1
			}
, 			{
				"name" : "badge.maxpat",
				"bootpath" : "/Users/jml/Documents/materials/programming/max_files/5_berkeley/projects/cnmat/repositories/main/trunk/max/patches/MMJ-DEPOT/CNMAT_MMJ-Depot/modules/Depot_Support",
				"patcherrelativepath" : "../../../modules/Depot_Support",
				"type" : "JSON",
				"implicit" : 1
			}
, 			{
				"name" : "uc_license.maxpat",
				"bootpath" : "/Users/jml/Documents/materials/programming/max_files/5_berkeley/projects/cnmat/repositories/main/trunk/max/patches/MMJ-DEPOT/CNMAT_MMJ-Depot/modules/Depot_Support",
				"patcherrelativepath" : "../../../modules/Depot_Support",
				"type" : "JSON",
				"implicit" : 1
			}
, 			{
				"name" : "cnmat_blue.gif",
				"bootpath" : "/Users/jml/Documents/materials/programming/max_files/5_berkeley/projects/cnmat/repositories/main/trunk/max/patches/MMJ-DEPOT/CNMAT_MMJ-Depot/modules/Depot_Support",
				"patcherrelativepath" : "../../../modules/Depot_Support",
				"type" : "GIFf",
				"implicit" : 1
			}
, 			{
				"name" : "myNotes.js",
				"bootpath" : "/Users/jml/Documents/materials/programming/max_files/5_berkeley/projects/cnmat/repositories/main/trunk/max/patches/MMJ-DEPOT/CNMAT_MMJ-Depot/modules/Depot_Support",
				"patcherrelativepath" : "../../../modules/Depot_Support",
				"type" : "TEXT",
				"implicit" : 1
			}
, 			{
				"name" : "take_notes.maxpat",
				"bootpath" : "/Users/jml/Documents/materials/programming/max_files/5_berkeley/projects/cnmat/repositories/main/trunk/max/patches/MMJ-DEPOT/CNMAT_MMJ-Depot/modules/Depot_Support",
				"patcherrelativepath" : "../../../modules/Depot_Support",
				"type" : "JSON",
				"implicit" : 1
			}
, 			{
				"name" : "simple-stereo-gain~.maxpat",
				"bootpath" : "/Users/jml/Documents/materials/programming/max_files/5_berkeley/projects/cnmat/repositories/main/trunk/max/patches/MMJ-DEPOT/CNMAT_MMJ-Depot/modules/Mixing_and_Gain",
				"patcherrelativepath" : "../../../modules/Mixing_and_Gain",
				"type" : "JSON",
				"implicit" : 1
			}
, 			{
				"name" : "OSC-yafr2~.maxpat",
				"bootpath" : "/Users/jml/Documents/materials/programming/max_files/5_berkeley/projects/cnmat/repositories/main/trunk/max/patches/MMJ-DEPOT/CNMAT_MMJ-Depot/modules/Effects-audio",
				"patcherrelativepath" : "../../../modules/Effects-audio",
				"type" : "JSON",
				"implicit" : 1
			}
, 			{
				"name" : "yafr2.maxpat",
				"bootpath" : "/Applications/Max6/examples/effects/reverb/lib",
				"patcherrelativepath" : "../../../../../../../../../../../../../../../../../../../Applications/Max6/examples/effects/reverb/lib",
				"type" : "JSON",
				"implicit" : 1
			}
, 			{
				"name" : "uc_disclaimer.maxpat",
				"bootpath" : "/Users/jml/Documents/materials/programming/max_files/5_berkeley/projects/cnmat/repositories/main/trunk/max/patches/MMJ-DEPOT/CNMAT_MMJ-Depot/modules/Depot_Support",
				"patcherrelativepath" : "../../../modules/Depot_Support",
				"type" : "JSON",
				"implicit" : 1
			}
, 			{
				"name" : "banner.maxpat",
				"bootpath" : "/Users/jml/Documents/materials/programming/max_files/5_berkeley/projects/cnmat/repositories/main/trunk/max/patches/MMJ-DEPOT/CNMAT_MMJ-Depot/modules/Depot_Support",
				"patcherrelativepath" : "../../../modules/Depot_Support",
				"type" : "JSON",
				"implicit" : 1
			}
, 			{
				"name" : "cnmat_wht-trans.png",
				"bootpath" : "/Users/jml/Documents/materials/programming/max_files/5_berkeley/projects/cnmat/repositories/main/trunk/max/patches/MMJ-DEPOT/CNMAT_MMJ-Depot/modules/Depot_Support",
				"patcherrelativepath" : "../../../modules/Depot_Support",
				"type" : "PNG ",
				"implicit" : 1
			}
, 			{
				"name" : "divided-steps.xml",
				"bootpath" : "/Users/jml/Documents/materials/programming/max_files/5_berkeley/projects/cnmat/repositories/main/trunk/max/patches/MMJ-DEPOT/CNMAT_MMJ-Depot/tutorials/Music29/Time Domain",
				"patcherrelativepath" : "",
				"type" : "TEXT",
				"implicit" : 1
			}
, 			{
				"name" : "pstore-simple-storage.maxpat",
				"bootpath" : "/Users/jml/Documents/materials/programming/max_files/5_berkeley/projects/cnmat/repositories/main/trunk/max/patches/MMJ-DEPOT/CNMAT_MMJ-Depot/modules/Data_Storage/pstore-simple-storage",
				"patcherrelativepath" : "../../../modules/Data_Storage/pstore-simple-storage",
				"type" : "JSON",
				"implicit" : 1
			}
, 			{
				"name" : "polyrhythm_small_module.maxpat",
				"bootpath" : "/Users/jml/Documents/materials/programming/max_files/5_berkeley/projects/cnmat/repositories/main/trunk/max/patches/MMJ-DEPOT/CNMAT_MMJ-Depot/tutorials/Music29/Time Domain",
				"patcherrelativepath" : "",
				"type" : "JSON",
				"implicit" : 1
			}
, 			{
				"name" : "fixlist.maxpat",
				"bootpath" : "/Users/jml/Documents/materials/programming/max_files/5_berkeley/projects/cnmat/repositories/main/trunk/max/patches/MMJ-DEPOT/CNMAT_MMJ-Depot/tutorials/Music29/Misc Support",
				"patcherrelativepath" : "../Misc Support",
				"type" : "JSON",
				"implicit" : 1
			}
, 			{
				"name" : "sub-beat.maxpat",
				"bootpath" : "/Users/jml/Documents/materials/programming/max_files/5_berkeley/projects/cnmat/repositories/main/trunk/max/patches/MMJ-DEPOT/CNMAT_MMJ-Depot/modules/Timing/stepmetro",
				"patcherrelativepath" : "../../../modules/Timing/stepmetro",
				"type" : "JSON",
				"implicit" : 1
			}
, 			{
				"name" : "clicker-poly.maxpat",
				"bootpath" : "/Users/jml/Documents/materials/programming/max_files/5_berkeley/projects/cnmat/repositories/main/trunk/max/patches/MMJ-DEPOT/CNMAT_MMJ-Depot/tutorials/Music29/Misc Support",
				"patcherrelativepath" : "../Misc Support",
				"type" : "JSON",
				"implicit" : 1
			}
, 			{
				"name" : "clicker~.maxpat",
				"bootpath" : "/Users/jml/Documents/materials/programming/max_files/5_berkeley/projects/cnmat/repositories/main/trunk/max/patches/MMJ-DEPOT/CNMAT_MMJ-Depot/modules/Timing/stepmetro",
				"patcherrelativepath" : "../../../modules/Timing/stepmetro",
				"type" : "JSON",
				"implicit" : 1
			}
, 			{
				"name" : "polyrhythm_basic_module.maxpat",
				"bootpath" : "/Users/jml/Documents/materials/programming/max_files/5_berkeley/projects/cnmat/repositories/main/trunk/max/patches/MMJ-DEPOT/CNMAT_MMJ-Depot/tutorials/Music29/Time Domain",
				"patcherrelativepath" : "",
				"type" : "JSON",
				"implicit" : 1
			}
, 			{
				"name" : "OSC-route.mxo",
				"type" : "iLaX"
			}
, 			{
				"name" : "cambio~.mxo",
				"type" : "iLaX"
			}
 ]
	}

}
